<svg xmlns="http://www.w3.org/2000/svg" xmlns:xlink="http://www.w3.org/1999/xlink" id="Layer_1" x="0" y="0" version="1.1" viewBox="0 0 161.2 48" style="enable-background:new 0 0 161.2 48" xml:space="preserve"><style type="text/css">.st0{fill:#00294c}</style><path d="M24,48c13.2,0,24-10.7,24-24S37.3,0,24,0S0,10.7,0,24S10.7,48,24,48z M24,3.4c11.4,0,20.6,9.2,20.6,20.6	S35.4,44.6,24,44.6S3.4,35.4,3.4,24C3.4,12.6,12.6,3.4,24,3.4z" class="st0"/><path d="M33.7,36.9c-0.2,0-1.1,0.3-1.2,0.3c-0.1-0.1-0.4,0.2-0.2,0.2s1.2-0.1,1.4-0.2C33.8,37.1,33.9,36.9,33.7,36.9z" class="st0"/><path d="M26.9,35.3c-0.2,0-0.3,0-0.5,0s-0.3,0.1-0.1,0.2c0.1,0.1,0.4,0.1,0.5,0.1C27,35.5,27.1,35.3,26.9,35.3z" class="st0"/><path d="M25.9,34.1c0.2-0.1,0.1-0.2,0.1-0.2c0-0.1-0.5-0.1-0.6-0.2c-0.2-0.1-0.3,0.2-0.1,0.2	C25.5,34,25.7,34.1,25.9,34.1z" class="st0"/><path d="M25.6,34.5c-0.2,0-0.3,0.2-0.1,0.2s0.6,0.2,0.6,0.1c0.1,0,0.2-0.2,0.1-0.2C26,34.7,25.7,34.6,25.6,34.5z" class="st0"/><path d="M28,36.9c0.1,0,0.2-0.1,0.2-0.2s-0.1-0.1-0.3,0s-0.8,0-0.9-0.1c-0.2,0-0.3,0.1-0.2,0.1C27,36.9,27.9,37,28,36.9	z" class="st0"/><path d="M28.4,37.3c-0.2,0.1-0.8,0-0.9,0c-0.2,0-0.3,0.1-0.2,0.1c0.1,0.1,1,0.2,1.2,0.1c0.1,0,0.2-0.1,0.2-0.2	C28.6,37.3,28.5,37.3,28.4,37.3z" class="st0"/><path d="M35.2,21.7c-0.1,0-0.1-0.1-0.2-0.1c0,0,0,0,0.1,0C35.1,21.7,35.1,21.7,35.2,21.7z" class="st0"/><path d="M23.9,43.2c10.6,0,19.2-8.6,19.2-19.2S34.5,4.7,23.9,4.7S4.7,13.3,4.7,23.9C4.7,34.6,13.3,43.2,23.9,43.2z M17.7,6.5c0.3,0.1,0.7,0.1,0.8,0.2c0.3,0.1,0.1-0.2-0.1-0.3c0,0-0.1,0-0.2,0C19.6,6,21,5.7,22.4,5.6c0,0.1,0,0.2,0,0.3	c-0.1,0.1-1.1,1.8-1.1,1.8c-0.1,0.1-1.4,1.5-1.4,1.5c-0.1,0.1-0.3,0.3-0.4,0.4c-0.3,0.2-1.6,1.6-1.8,2c-0.1,0-0.2-0.1-0.4-0.1	c-0.7-0.3-0.5-0.8,0.1-0.9c0.1,0,0.2,0,0.5,0c0.3,0.1,0.1-0.1,0-0.2c-0.1,0-0.3-0.1-0.6-0.1c-0.7-0.1-0.5-0.5-0.3-0.5	s0.9,0.1,1.2,0.1s0.1-0.1,0-0.2s-0.7-0.1-1-0.2c-0.8-0.2-0.6-0.6-0.4-0.5c0.2,0,0.9,0.1,1.1,0.2c0.2,0,0.2-0.2,0-0.2	c-0.2-0.1-0.9-0.2-1-0.2s-0.3-0.4,0.2-0.4c0.2,0,1.1,0.2,1.4,0.2c0.3,0,0.2-0.1,0-0.2c-0.2-0.1-1.1-0.3-1.4-0.3S16.6,7.7,17,7.8	c0.4,0,0.8,0.1,1.2,0.2c0.4,0.1,0.2-0.2,0-0.2s-1-0.2-1.2-0.3c-0.3-0.1-0.3-0.4-0.1-0.3c0.2,0,1.2,0.3,1.5,0.3c0.3,0,0.3-0.1,0-0.2	c-0.2-0.4-0.8-0.6-1.2-0.7C17.4,6.6,17.5,6.5,17.7,6.5z M23.9,5.3c1.2,0,2.3,0.1,3.4,0.3c0,0.3,0.1,0.6,0.1,1c0,1.1-0.1,2.5-0.2,3.7	c-0.2,0-0.3,0-0.5,0c-0.3,0-0.5,0-0.8-0.1c-0.7-0.2-1.3-0.2-1.7,0l0,0c0-0.5,0-1,0-1.4h0.1c0.1,0,0.1,0.1,0.1,0.2c0,0.1,0,0.7,0,0.9	s0.1,0,0.1-0.1s0-0.2,0-0.5s0-1,0-1.2s0-0.4,0-0.6c0-0.2-0.2-0.1-0.2,0.1s0,0.3,0,0.5s-0.1,0.1-0.2,0.1c0-0.2,0-0.3,0-0.5	S24,7.2,24,7c-0.1-0.8-0.4-1.3-0.6-1.8l0,0C23.6,5.4,23.7,5.3,23.9,5.3z M42.5,24c0,9.1-6.6,16.7-15.3,18.3L26.7,40h0.2	c0.5,0.1,1,0.1,1.5,0c1.9,0,3.7-0.3,5.2-0.9c1.4-0.6,2.4-1.5,3-2.5c0.5-0.8,0.6-1.7,0.5-2.6c-0.1-0.5-0.3-1.1-0.6-1.6v-0.1	c-1-1.6-2-3.1-2.3-4.9c-0.1-0.7,0-1.5,0.1-2.3c0.1-0.6,0.1-1.2,0-1.9c-0.1-0.8-0.4-1.6-0.8-2.3c0,0,0.8,0.4,1.6,0.8	c-0.2-0.1-0.4-0.4-0.6-0.7c-0.1-0.1-0.1-0.3-0.2-0.4c0-0.1,0-0.3,0-0.3c0.2-0.4-0.3-1.4-0.4-1.5c-0.1-0.1-0.2-0.3-0.3-0.5	c0-0.1-0.2-0.7,0.1-1c0.1-0.1,0.4-0.3,0.6-0.4c0.2-0.1,0.2,0,0.2,0.1c-0.1,0.1-0.2,0.2-0.3,0.3c-0.1,0.2-0.1,0.5-0.1,0.9	c0,0.2,0.1,0.4,0.2,0.7c0.2,0.4,0.2,0.7,0.3,1c0,0.2,0,0.4,0,0.6c0,0.1,0,0.2,0,0.3c0,0.2,0.2,0.4,0.3,0.6c0.1,0.2,0.3,0.4,0.3,0.6	l0,0l0,0c0,0,0,0-0.1,0c0,0,0.1,0,0.1,0.1l0,0c0.3,0.2,0.5-0.1,0.4-0.3c-0.1-0.1-0.2-0.3-0.3-0.6c-0.2-0.2-0.3-0.4-0.2-0.7	c0.1-0.4,0-1-0.3-1.7c-0.4-1.1-0.2-1.6,0.4-1.8c0.2-0.1,0.3-0.3,0.1-0.5c-2.5-2.2-5.4-3.1-8-3c0.1-0.5,0.2-1,0.2-1.6	c0.3,0,1,0,1.4,0c0.2,0,0.4-0.1,0.4-0.2c-0.1-0.1-0.3-0.6-0.6-0.7c-0.2,0-0.7-0.3-1-0.4c0.1-1.2,0.2-2.6,0.2-3.8c0-0.3,0-0.5,0-0.8	C36.2,7.5,42.5,15,42.5,24z M23.9,42.6c-0.1,0-0.2,0-0.4,0c0-0.3,0-0.6,0-0.7c0-0.2,0.3-0.6,0.9-0.5c0.3,0,0.5-0.1,0.5-0.3	c0-0.1-0.1-0.5,0-0.5c0.5,0,0.2-0.4,0.3-0.5c0.3,0,0.7,0,1.1-0.1h0.1c0,0.1,0.3,1.3,0.5,2.3C25.9,42.5,24.9,42.6,23.9,42.6z M12.3,38.5L12.3,38.5c0.1-0.1,0.1,0,0.3,0c0.2,0.1,0.1-0.1,0-0.2s-0.2-0.1-0.3-0.2c-0.1-0.1-0.1-0.2,0-0.2c0.1,0.1,0.2,0.1,0.3,0.1	c0.1,0.1,0.1-0.1,0-0.2s-0.2-0.1-0.4-0.2c0,0.1,0-0.1,0.2,0c0.1,0.1,0.3,0.2,0.5,0.3c0.2,0.1,0.1-0.2,0-0.2s-0.4-0.2-0.5-0.3	c-0.2-0.1-0.3-0.5,0-0.5c0.2,0,0.4,0.2,0.6,0.2c0.2,0.1,0.2-0.1,0.1-0.2c-0.2-0.1-0.5-0.3-0.7-0.4s-0.1-0.5,0.1-0.4	c0.1,0,0.3,0.1,0.4,0.1c0.1,0.1,0.2-0.1,0.1-0.1c-0.1-0.1-0.3-0.2-0.4-0.2c-0.1-0.1-0.1-0.4,0.1-0.3s0.2,0.1,0.4,0.2	c0.2,0.1,0.1-0.1,0.1-0.2c-0.1,0-0.4-0.2-0.5-0.2c-0.1-0.1-0.1-0.3,0.1-0.2c0.1,0.1,0.3,0.2,0.5,0.2c0.1,0.1,0.3,0,0.2-0.1	s-0.2-0.2-0.4-0.2c-0.6-0.2-0.3-2.3,0.7-1.5c0.2,0.2,1.2,1.3,1.5,1.3c0.4-0.1,0.4,5,0.4,5.1c0,0.2,0,0.5,0,0.7	C14.4,40,13.3,39.3,12.3,38.5z M11,27.9c-0.2-0.1-0.3-0.5-0.2-0.4c0.1,0.1,0.5,0.3,0.7,0.5s0.3,0,0-0.1c-0.2-0.1-0.6-0.5-0.8-0.7	c-0.1-0.1-0.2-0.4-0.1-0.3s0.6,0.4,0.7,0.5s0.2,0,0.1-0.1s-0.5-0.4-0.7-0.7c-0.4-0.3-0.3-0.9-0.1-0.9c0.1,0,1,0.8,1.2,0.9	c0.1,0.1,0.2,0,0-0.2c-0.1-0.2-1-0.9-1.1-1c-0.3-0.2-0.2-0.7-0.2-0.7c0-0.1,0.1-0.2,0.2-0.1c0.1,0.1,0.8,0.8,0.9,0.9s0.2,0,0.1-0.1	s-0.6-0.6-0.8-0.7c-0.2-0.2,0-0.3,0.1-0.2s0.7,0.7,0.8,0.7c0.1,0.1,0.1-0.1,0-0.1c-0.1-0.1-0.9-0.9-1-1c0,0-0.2-0.1-0.1-0.2	c0.1-0.2,0.1-0.3,0.4-0.2c0.1,0.1,0.3,0.2,0.4,0.3s0.2,0,0.1-0.1s-0.5-0.4-0.6-0.5s-0.1-0.3,0.1-0.2s0.6,0.5,0.7,0.6s0.3,0,0.1-0.1	c-0.2-0.1-0.9-0.9-1-1c0-0.2-0.1-1.1,0-1s0.4,0.3,0.6,0.5s0.1-0.1,0-0.2c-0.1-0.1-0.7-0.5-1-1c0-0.1-0.1-0.2-0.1-0.2	c-0.3-0.8,0-1.5,0.7-1.8c0.2-0.1,0.5-0.1,0.7,0s0.3,0.2,0.2,0.2c0,0.1-0.1,0.1-0.2,0.1c-0.4,0-0.7,0.2-0.8,0.5	c-0.1,0.2-0.1,0.5,0,0.8c0.1,0.2,0.3,0.4,0.4,0.7l0.4,0.6c0.6,0.9,0.7,2.2,0.5,3.1c-0.1,0.5-0.1,1.1,0,2c0.1,0.8,0,1.5-0.4,2	c-0.1,0.2-0.3,0.3-0.4,0.3s-0.3-0.1-0.4-0.2c-0.1-0.2-0.5-0.7-0.2-0.8C11.3,28.2,11.2,28.1,11,27.9z M12.9,14.5	c-0.1-0.1-0.7-0.4-0.8-0.5c-0.2-0.1,0.1-0.1,0.2-0.1s0.5,0.2,0.7,0.2c0.1,0,0.2-0.1,0.2-0.1c-0.1,0-0.2-0.2-0.4-0.3	c0.4-0.1,0.6-0.3,0.8-0.7c0.1-0.2,0.1-0.4,0.2-0.7s0.3-0.5,0.5-0.5s0.3,0.2,0.4,0.5c0.2,1.1,0.2,2.3,0.2,3.4c0,0.7,0,1.4,0.1,2	c-0.3,0.3-0.7,0.6-1,0.9c0,0-0.1,0-0.2,0c-0.2,0-0.3-0.2-0.2-0.2s0.2-0.2,0.1-0.2s-0.2,0-0.4-0.1c-0.2,0-0.2-0.2-0.1-0.2	s0.3,0.1,0.4,0.2c0.2,0.1,0.4-0.1,0.1-0.2c-0.2,0-0.6-0.3-0.9-0.3s-0.4-0.3-0.2-0.2c0.2,0.1,0.5,0.1,0.8,0.1s0.2-0.2,0-0.2	c-0.1,0-0.7-0.1-0.9-0.2c-0.2-0.1-0.2-0.2,0-0.2s0.9,0.2,1,0.3c0.2,0.1,0.3-0.1-0.1-0.2s-1-0.3-1.1-0.4c-0.1,0-0.1-0.2,0.1-0.2	s0.8,0.2,0.9,0.2s0.2-0.1-0.1-0.1c-0.2-0.1-0.8-0.4-1-0.4s-0.2-0.2,0-0.2s0.8,0.2,1,0.3c0.2,0,0.2-0.1-0.1-0.2	c-0.3-0.1-0.9-0.4-1.1-0.5s-0.2-0.2,0-0.2s0.6,0.3,0.8,0.3s0.1-0.1,0-0.1s-0.6-0.3-0.7-0.4C12,15,12,15,12.1,15s0.4,0.1,0.5,0.2	c0.1,0,0.2-0.1,0-0.1s-0.5-0.2-0.7-0.2s-0.1-0.2,0-0.2s0.5,0.2,0.7,0.2s0.2,0,0-0.1c-0.2,0-0.8-0.4-1-0.5s-0.2-0.3,0-0.2	c0.1,0.1,1.1,0.4,1.2,0.5C13,14.6,13,14.5,12.9,14.5z M23,6.6c0.1,0.1,0.4,0.3,0.5,0.3c0.1,0.1,0.1,0.3,0,0.3S23,6.9,22.9,6.8	c-0.2-0.1-0.3,0.1-0.2,0.2c0.1,0.1,0.6,0.5,0.7,0.6c0.2,0.1,0,0.2,0.1,0.4c-0.6,0.7-1,1.5-1.3,2.3c0,0.1,0,0.1,0,0.2	c0,0.1,0.1,0.2,0.1,0.2c0.1,0.1,0.3,0.1,0.4,0c0.3-0.2,0.8-0.3,1-0.2s0.4,0,0.6,0l0,0c0.3-0.1,0.8-0.1,1.4,0	c0.3,0.1,0.6,0.1,0.9,0.1c0.2,0,0.3,0,0.5,0l0.6,0.2c0.1,0.1,0.3,0.1,0.4,0.2c0,0.1-0.1,0.1-0.1,0.1c-0.2,0-1.3,0.2-1.3,0.2	c-0.1,0-0.2,0-0.2,0c-0.2-0.2-0.7-0.5-0.7-0.6c-0.1-0.1-0.2,0-0.1,0.1c0.1,0.1,0.4,0.4,0.5,0.5c-0.1,0-0.2,0-0.3,0l0,0	c-0.2-0.1-0.4-0.4-0.5-0.5s-0.2,0-0.1,0.1c0.1,0.1,0.3,0.4,0.3,0.4l0,0h-0.1c0,0-0.1,0-0.2-0.1c-0.1-0.1-0.4-0.4-0.5-0.4	c-0.1-0.1-0.3,0-0.2,0c0.1,0.1,0.5,0.3,0.5,0.4v0.1c0,0,0,0-0.1,0s-0.1,0-0.2-0.1c-0.2-0.1-0.4-0.4-0.5-0.4	c-0.1-0.1-0.2,0.1-0.1,0.2c0.1,0.1,0.3,0.2,0.3,0.3v0.1l0,0c-0.1,0-0.1,0-0.2,0.1h-0.1c-0.2-0.1-0.3-0.3-0.4-0.4	c-0.1-0.1-0.3,0-0.2,0.1s0.5,0.3,0.5,0.4v0.1l0,0H24c-0.1-0.1-0.1-0.1-0.2-0.1c-0.1-0.1-0.1,0.2,0,0.3l0,0c-0.1,0-0.1,0.1-0.2,0.2	c-0.2-0.1-0.5-0.4-0.5-0.4s-0.3,0-0.1,0c0.2,0.1,0.4,0.3,0.3,0.4c-0.1,0.1-0.4-0.1-0.5-0.2c-0.1-0.1-0.2,0-0.1,0.1	c0.1,0.1,0.5,0.2,0.5,0.4c0.1,0.1,0,0.2-0.2,0.2c-0.2-0.1-0.4-0.2-0.6-0.2c-0.2-0.1-0.1,0.1-0.1,0.2c0.1,0.1,0.6,0.4,0.5,0.5	S22.2,13,22,12.9c-0.1-0.1-0.3,0-0.2,0.1s0.7,0.4,0.6,0.5s-0.6-0.2-0.7-0.3c-0.1-0.1-0.2,0-0.1,0.1c0.1,0.1,0.7,0.4,0.6,0.5	c-0.1,0.1-0.8-0.3-1-0.4c-0.2-0.1-0.3,0.1-0.1,0.2c0.2,0.1,1,0.5,0.8,0.7s-0.8-0.3-1-0.4c-0.2-0.1-0.3,0-0.2,0.1	c0.2,0.1,0.6,0.4,0.7,0.5c0.1,0.1,0.1,0.2-0.1,0.1c-0.2-0.1-1-0.6-1.2-0.6s-0.2,0.1,0,0.2s0.8,0.3,0.9,0.4c0,0,0,0,0,0.1h-0.2h-0.1	c-0.2-0.1-0.7-0.4-0.8-0.4s-0.3,0-0.1,0.1s0.7,0.2,0.6,0.3s-0.5,0-0.8,0c-0.2,0-1.5,0.9-2.3,1.6c-0.7,0.2-1.2-1-0.3-2.7	c0-0.1,0.7-1.2,0.7-1.3c0.5-1.1,1.3-1.9,2.2-2.7c1.7-1.5,2.4-2.7,3.1-4.2c0-0.1,0.1-0.1,0.1-0.1s0.3,0.3,0.3,0.4	c0,0,0.2,0.5,0.1,0.6c-0.1,0.1-0.2,0-0.3-0.1C22.9,6.3,22.9,6.5,23,6.6z M35.7,36.8c0,0.1-0.1,0.1-0.2,0.2c-3.1,2.2-7.1,1.9-7.4,1.9	c-0.2-0.1-1.6,0-1.7,0c-0.1,0-0.2,0.1-0.3,0.2s-0.3,0.1,0,0.1s1.7,0,1.8,0c2.5,0.1,4.4-0.4,4.9-0.6c0.3-0.1,1.6-0.6,2.3-1.2	c-0.4,0.5-2.7,2.9-10.5,2.2c-0.7-0.2-0.9-0.8-0.9-0.9c0-0.2-1.1-0.7-1.3-0.7s-0.2-0.2,0-0.3c0.2-0.1-0.2-0.2-0.4-0.3	c-0.9-0.3-0.4-0.9-0.2-0.8s1.2,0.4,1.5,0.5s0.1-0.2,0-0.2c-0.1-0.1-0.8-0.2-1-0.3c-0.8-0.4,0-0.9,0.4-0.9c0.1,0,1,0.2,1.3,0.3	c0.3,0.1,0.2-0.1-0.1-0.2s-0.4-0.1-0.7-0.2s0-0.1,0.1-0.2c0.1,0,0.7,0.2,0.6,0.1c-0.1-0.2-0.5-0.3-0.9-0.4c-0.5-0.2-2.1-2,0.4-1.3	c0.2,0.1,0.3-0.2,0.2-0.3c-0.1,0-1.4-0.6-1.6-0.6c-0.8-0.5-0.8-1.2-0.7-1.1s1.3,0.5,1.4,0.5s0.2-0.2,0-0.3s-1.1-0.4-1.3-0.5	s-0.4-0.2-0.3-0.3c0-0.1,0-0.1-0.2-0.2c0-0.1-0.1-0.2-0.1-0.3c0.1,0,0.2,0,0.3,0c0.3,0.1,0.2-0.1,0.1-0.2c-0.1,0-0.2-0.1-0.4-0.2	l0,0c0.5,0.1,1.7,0.4,2.6,0.8c0.1,0.1,0.2,0,0.3-0.1c0-0.1,0-0.2-0.1-0.3c-0.9-0.5-2.2-1-2.9-1.2c-0.1,0-0.2-0.2-0.2-0.4h0.1	c0.2,0,0.1-0.1-0.1-0.2l-0.1-0.3c0,0,0,0,0-0.1c0.1,0,0.2,0,0.2,0c0.2,0,0.1-0.1-0.1-0.2c-0.1,0-0.1-0.1-0.2-0.1	c0-0.1,0-0.2-0.1-0.3c0.1,0,0.2,0,0.4,0s0.1-0.2-0.1-0.2c-0.1,0-0.2-0.1-0.4-0.1c0-0.2-0.1-0.3-0.1-0.5c0.1,0,0.1,0,0.2,0	c0.2,0,0.3-0.1,0.3-0.1c-0.1-0.2-0.4-0.1-0.5-0.1l0,0c-0.1-0.2-0.1-0.5-0.2-0.7c0,0,0.1,0,0.2,0c0.1,0,0.1-0.3-0.2-0.3	c-0.2-0.5-0.1-0.9,0.4-1.3c0.2-0.2,0.8-0.4,1.1-0.4c0.1,0,0.1,0,0.1,0l0.1,0.1c0,0,0,0.1,0.1,0.2c0.2,0.7,0.5,1.4,1,1.8	c0.4,0.5,0.6,0.8,0.8,1.3c0.1,0.2,0.2,0.2,0.2,0.2s0.2,0,0.1-0.3c0-0.5-0.3-1.1-0.6-1.6c-0.4-0.5-0.7-1.1-0.8-1.6s0-0.8,0.1-1.3	c0.2-0.9,0.9-1.7,1.4-2.1c0.6-0.5,1-1.3,0.9-2.2c0-0.1,0-0.1,0.1-0.1s0.1,0,0.1,0.1c0.5,1,1,1.8,1.6,2.2c0.8,0.5,1.4,1.2,1.4,1.8	s-0.2,1.2-0.8,1.5c-2.1,1.4-1.7,3.2-1,4.4c0.4,0.7,0.6,1,0.8,1.3l0,0c0.2,0.3,0.2,0.6,0.1,1c-0.5,1.1-0.5,2.2,0.1,3	c0.4,0.5,0.6,1,0.8,1.3c0,0.1,0.1,0.2,0.1,0.2h-0.1c-0.2,0.1-0.8,0-0.9,0c-0.2,0-0.3,0.1-0.2,0.1c0.1,0.1,1,0.2,1.2,0.1	c0.1,0,0.2-0.1,0.2-0.2l0,0l0,0c0.1,0,0.1-0.1,0.1-0.3c-0.1-0.5-0.4-1-0.6-1.4l-0.1-0.1c-0.3-0.6-0.2-1.6,0-2l0.3-0.6l0.1-0.2	c0-0.1,0.1-0.2,0.2-0.2c0,0,0.1,0,0.1,0.1c0.4,0.4,0.7,1,0.8,1.5v0.1c0.2,0.4,0.5,0.6,0.9,0.8c0.6,0.3,1.3,0.7,1.5,1.3	c0.1,0.2,0.2,0.2,0.2,0.2c0.1,0,0.2-0.1,0.1-0.2c-0.2-0.8-0.7-1.2-1.4-1.7l-0.1-0.1c-0.4-0.3-0.6-0.4-0.7-0.8l-0.2-0.4	c-0.2-0.7-0.5-1.2-1-1.6l-0.3-0.2c-0.2-0.1-0.4-0.2-0.6-0.4c-0.7-0.9-1.1-1.8-1-2.5c0-0.7,0.5-1.3,1.3-1.8c0.9-0.5,1.3-1.4,1.3-2.3	c0-0.1,0-0.1,0.1-0.2c0.1,0,0.2-0.1,0.3,0c1.1,0.3,1.8,1,2,2.1c0,0.2,0.1,0.2,0.2,0.2c0.1,0,0.2-0.1,0.2-0.3c-0.1-0.6-0.2-2-1.7-2.6	c-0.2-0.1-0.3-0.2-0.4-0.1h-0.1l-0.3-0.1h-0.1c-0.2,0-0.4-0.1-0.5-0.3c-0.4-0.7-1-1.2-1.5-1.4c-0.5-0.3-0.9-0.9-1.2-1.6	c-0.4-0.6-0.7-1.2-1.5-1.2c-0.9-0.1-1.6-0.3-2.2-0.8c-0.2,0.4-0.3,0.4-0.3,0.3s0.1-0.1,0.3-0.2c0.2-0.1,0.8,0.3,1.1,0.3	c0.3-0.1,0.8,0,1.1,0.2c0.2,0.2,0.7,0.4,1,0.5c0.4,0.3,0.6,0.7,0.9,1c0.1,0.1,0.2,0.3,0.2,0.3c0,0.2,0.4,0.5,0.6,1	c0.2,0.5,1.2,0.8,1.4,0.8s0.2,0.2,0.4,0.2s0-0.2,0-0.2c0-0.1,0.1,0,0.2,0c0.1,0,0.2,0.2,0.2,0.1c0-0.1,0.1-0.1,0.2,0	c0.1,0.1,0.2,0.1,0.2,0.2c0.1,0,0.1,0,0-0.1s0-0.2,0.1-0.1c0.1,0.1,0.3,0.4,0.5,0.3c0.1,0,0-0.2,0-0.3s0.1-0.1,0.2,0	c0.1,0.1,0.4,0.4,0.6,0.4c0.2,0,0-0.2,0-0.4c0-0.1,0.1,0,0.2,0.1c0.1,0.1,0.6,0.9,0.7,0.8c0.1,0,0.5,0.6,0.7,1.2	c0.4,1.2,0.4,2.2-0.1,2.9c-0.6,0.8-0.8,1.9-0.5,2.9c0.1,0.3,0.1,0.5,0.1,0.7s0,0.4,0.1,0.7c0.1,0.6,0.5,1.2,1.1,1.8	c0.4,0.4,0.5,0.7,0.6,1.2c0.1,0.4,0.3,0.9,0.7,1.4c0.1,0.1,0.2,0.1,0.3,0c0.1,0,0.1-0.2,0-0.3c0,0-0.3-0.5-0.4-1.2	c-0.1-0.7-0.4-1.1-0.6-1.4c-0.2-0.2-0.4-0.5-0.5-0.9c0-0.1,0-0.2,0-0.2s0.2,0,0.3,0.1c0.6,0.4,1.9,1.5,2.3,3.2	c0,0.2,0.2,0.2,0.2,0.2l0,0v0.1c0.1,0.2,0.1,0.9,0.1,1.2c0,0.3-0.5,1.3-0.6,1.5C35.9,36.6,35.8,36.7,35.7,36.8z M17.2,33.8	c-0.2,0-0.4-0.2-0.5-0.4c0-0.1,0.1-0.3,0.6-0.1c0.2,0.1,0.8,0.3,1.2,0.4l0.2,0.1l0.2,0.1c0.2,0,1.2,0.4,1.2,0.4	c0.2,0.1,1.1,0.4,1.3,0.5c0.1,0,0.1,0.2,0.1,0.3C21.5,35.4,17.4,33.8,17.2,33.8z M20.4,37.5c-0.1,0-1.8-0.7-2-0.8	c-0.2-0.1-0.1-0.5,0.2-0.4c0.1,0,1.7,0.7,1.9,0.7C21.3,37.3,21.2,37.8,20.4,37.5z M15.9,30.6c0.1,0.3,0.3,1.5,0.5,2.2	c0,0.1,0,0.2,0,0.2s-0.1,0-0.1-0.1c-0.3-0.5-0.5-1.3-0.7-1.9c-0.1-0.5-0.2-0.7-0.4-1.2c-0.1-0.3-0.4-0.7-0.6-1.2l0,0	c-0.1-0.2-0.5-0.7-0.5-0.8c0-0.2-0.3-0.7-0.4-0.8c-0.1-0.1-0.2-0.5-0.3-0.6c0-0.1,0.3,0.1,0.4,0.2l0,0c0.1,0.1,0.4,0.7,0.4,0.6	c0.2,0.3,0.5,0.7,0.7,1l0,0c0.2,0.3,0.4,1.1,1.2,1.4c0.1,0,0.9,0.6,1,0.7c0.1,0.1,0.5,0.6,0.8,0.8c0.1,0.1,0.2,0.2,0.3,0.2	c0.4,0.5,0.5,0.7,0.9,0.8c0.1,0,0.1,0.2,0.1,0.2l0,0c0,0-0.1,0.1-0.2,0.1c-0.6-0.1-1-0.5-1.2-0.7c-0.4-0.5-0.9-1-1.4-1.2	c-0.2-0.1-0.3-0.1-0.4-0.1C15.9,30.3,15.9,30.4,15.9,30.6z M26.2,15.8c-0.2-0.2,0.1,0,0.2-0.1l0,0c0.8,0.1,1.7,0.5,2.5,1	c1.1,0.7,2,1.7,2.5,2.7c-0.4-0.1-0.8-0.2-1.2-0.2h-0.1c-1-0.1-1.8,0-2.3-0.7l-0.2-0.2c-0.3-0.4-0.7-0.9-1.3-1.5	c-0.3-0.3-0.6-0.7-0.7-0.8c-0.1-0.2,0.1-0.2,0.2-0.1c0.1,0.1,0.4,0.4,0.5,0.3C26.5,16.1,26.4,16,26.2,15.8z M20.5,31.6	c0,0-0.1,0.1-0.2,0.1c-0.1,0-1.3-0.4-1.5-0.5h-0.1h-0.1c-0.1,0-0.2,0-0.2-0.2v-0.2c0.1,0,1.3,0.4,1.5,0.4s0.3,0,0.4,0.1	c0,0,0,0.1,0.1,0.1C20.4,31.4,20.5,31.5,20.5,31.6C20.5,31.5,20.5,31.6,20.5,31.6z M20.7,33L20.7,33l-0.1,0.2	c-0.1,0-0.8-0.2-0.9-0.3l-0.2-0.1c-0.1,0-0.1-0.1-0.1-0.1s0-0.1,0.1-0.1c0,0,0.1,0,0.2,0c0,0,0.1,0.1,0.2,0.1	C20.1,32.8,20.7,33,20.7,33z M19.4,27.8C19.5,27.8,19.5,27.9,19.4,27.8c0.1,0.2,0.2,0.4,0.2,0.5v0.1c0,0.1-0.2,0.1-0.2,0.1	s-2.2-0.9-2.4-0.9c-0.3-0.1-0.7-0.2-0.7-0.3c0-0.1,0.1-0.6,1-0.2C17.4,27.2,19.4,27.8,19.4,27.8z M17.6,28.2l0.3,0.1	c0.2,0.1,1.1,0.4,1.2,0.4h0.1c0.1,0,0.2,0,0.4,0.1s0.2,0.4,0.2,0.4c0,0.1,0,0.2-0.1,0.2s-2.5-0.9-2.6-1c0,0-1.1-0.5-1.3-0.6l0.1-0.2	c0-0.1,0.1-0.1,0.2,0C16.2,27.8,17.4,28.1,17.6,28.2z M16.6,21c-0.3,0-2-0.8-2.1-0.9c0-0.1-0.1-0.2-0.1-0.2l0.1-0.2	c0,0,0.2,0,0.2,0.1c0.1,0.1,1.2,0.5,1.8,0.8c0.1,0,0.3,0.1,0.3,0.2C16.9,20.9,16.8,21,16.6,21z M16.9,21.6c0,0.1-0.1,0.4-0.1,0.4	c-0.1,0.1-1.3-0.4-1.5-0.5c-0.3-0.1-1-0.4-1.2-0.5C14,21,14,20.9,14,20.8c0-0.1,0.1-0.4,0.2-0.4h0.2c0.1,0.1,0.9,0.4,1.2,0.5	c0.1,0,0.4,0.1,0.7,0.3c0.2,0.1,0.4,0.2,0.5,0.2C16.8,21.5,16.9,21.6,16.9,21.6z M16.8,20c-0.3,0-1-0.4-1.4-0.6l-0.3-0.1	c-0.1,0,0-0.2,0-0.2s0-0.1,0.1-0.1c0,0,0.1,0,0.2,0c0.1,0.1,1.4,0.7,1.6,0.7c0.2,0.1,0.2,0.1,0.2,0.1C17.1,19.9,17.1,20,16.8,20z M15.8,18.5c0,0,0-0.1,0.1-0.1c0,0,0.1-0.1,0.2,0c0.2,0.1,1,0.5,1.1,0.6c0.1,0,0.1,0.1,0.1,0.2c0,0.1-0.1,0.1-0.3,0.1	c-0.1,0-0.4-0.2-0.6-0.3C16.1,18.7,15.9,18.6,15.8,18.5C15.8,18.6,15.8,18.5,15.8,18.5z M13.3,21.6c0.1-0.1,0.3-0.1,0.4,0	s2.9,1.1,3.1,1.2c0.1,0,0.1,0.1,0.1,0.1s0,0.5,0,0.6c-0.1,0.1-0.2,0.1-0.3,0.1c-0.2-0.1-3.2-1.3-3.3-1.5L13.2,22	C13.2,21.9,13.3,21.6,13.3,21.6z M17.9,23.1c-0.1-0.1-0.2-0.1-0.2-0.2c0-0.1,0-0.1,0-0.2c0.1-0.1,0.2-0.2,0.4-0.2s0.3-0.1,0.2-0.2	c-0.1-0.1-0.3,0-0.5-0.1c-0.1,0-0.1-0.1-0.2-0.2c0-0.1,0-0.3,0-0.4c0-0.1,0-0.2,0-0.3c0.1-0.1,0.2-0.1,0.4-0.1c0.1,0,0.2-0.2,0-0.2	s-0.2-0.1-0.4-0.1c0-0.2,0.1-0.3,0.1-0.4c0.1-0.1,0.1-0.2,0.2-0.3c0.1,0,0.2,0.1,0.4,0.1c0.2,0.1,0.2-0.1,0-0.2	C18.2,20,18.1,20,18,19.9c0-0.1,0.1-0.2,0.1-0.3c0.1,0,0.3,0.1,0.5,0.2c0.2,0.1,0.3-0.2,0-0.3c-0.1,0-0.3-0.1-0.4-0.2	c0.1-0.2,0.1-0.4,0.1-0.5c0.2,0,0.5,0.1,0.5,0.1s0.2-0.2,0-0.3c-0.1,0-0.2,0-0.5-0.1v-0.1c0,0,0-0.2,0-0.4h0.1	c0.1,0,0.6,0.2,0.9,0.1c0.3-0.1,0.2-0.3,0-0.3c-0.2-0.1-0.8-0.2-1-0.3l0,0v-0.2c0.1-0.2,0.3-0.5,0.5-0.6c0.3-0.1,1-0.7,1.7,0.2	c0.1,0.2,0.5,0.3,0.6,0.4c0,0,0.1,0.1,0.2,0.2c0.1,0.1,0.3,0.2,0.4,0.3l0.1,0.1c0,0.1,0.1,0.1,0.2,0.1c0.3,0.2,0.6,0.3,0.9,0.4	c0.4,0.2,0.6,0.3,0.5,0.8l0,0c-0.1,0.4-0.1,0.8-0.5,1.2c-0.8,0.7-1.3,1.5-1.6,2.3c-0.1,0.2-0.3,0.5-0.7,0.6	c-0.9,0.2-1.5,0.7-1.8,1.3c-0.1-0.1-0.1-0.1-0.2-0.1c0,0,0-0.2-0.1-0.3c-0.1,0-1-0.3-1.3-0.4c0.1-0.2,0.1-0.3,0.1-0.5	c0.1,0,0.2,0,0.4,0c0.2,0.1,0.5,0.1,0.5-0.1C18.6,23.3,18.4,23.3,17.9,23.1z M17.2,25c0.2,0,0.6,0.2,1,0.3c0.2,0,0.3,0.1,0.4,0.2	c0.1,0,0.1,0.1,0.2,0.1v0.1c0,0-0.1,0-0.3,0l-0.3-0.1c-0.4-0.1-0.8-0.2-1-0.3C17.1,25.2,17.1,25.2,17.2,25C17,25,17,25,17.2,25z M18.4,25.1c-0.2,0-0.5-0.2-0.8-0.3c-0.1-0.1-0.2-0.1-0.3-0.1c-0.1,0-0.1-0.1-0.1-0.1v-0.1c0,0,0.1,0,0.2,0c0.2,0.1,1,0.4,1.2,0.4	c0.1,0,0.1,0.1,0.1,0.1C18.8,25.1,18.6,25.1,18.4,25.1z M13.3,22.7c0,0,0.2,0.1,0.4,0.2c0.1,0,0.2,0.1,0.2,0.1	c0.1,0,1.5,0.6,1.9,0.7l0.3,0.1c0.1,0,0.1,0.1,0.1,0.1v0.2c0,0,0,0.2-0.5,0.1c-0.7-0.2-2.9-0.8-2.8-1.4C13,22.8,13.2,22.7,13.3,22.7	z M13.5,24.1c1.1,0.3,2.2,0.8,2.9,1c0.5,0.2,0.2,0.3,0.3,0.4c0.2,0.1,0.5,0.2,1.1,0.4c0.5,0.2,1,0.3,1.1,0.4c0,0,0,0,0.1,0.1	l0.1,0.2c0,0.1,0,0.1,0,0.1c0,0.1,0,0.1-0.1,0.1s-0.1,0-0.2,0c-0.1-0.1-0.7-0.3-1.3-0.5c-0.6-0.2-1.2-0.4-1.4-0.5	c-0.2-0.1-0.6-0.2-0.9-0.3c-0.2-0.1-0.5-0.1-0.6-0.2c-0.4-0.2-0.9-0.3-1.4-0.6C13.1,24.6,13.2,24,13.5,24.1z M13.2,25.4	c0-0.1,0-0.2,0.2-0.1c0.1,0,2.8,1.1,2.9,1.1c0,0,0.1,0.2,0,0.2c0.1,0.1-0.1,0.1-0.1,0.1L14.3,26c-0.5-0.2-1-0.3-1.1-0.5	C13.2,25.5,13.2,25.5,13.2,25.4z M14.1,26.4c0.1,0,1,0.3,1.1,0.4c0.2,0.1,0.4,0.2,0.4,0.2s0.1,0.1,0,0.2s0,0.2-0.1,0.2h-0.1	c-0.1-0.1-1.5-0.6-1.5-0.7C14,26.5,14.1,26.4,14.1,26.4z M15.6,28.4h0.1c0,0,0.2,0.1,0.3,0.1c0.2,0.1,1,0.4,1.2,0.5s2.2,0.9,2.3,0.9	s0.3,0.1,0.4,0.2l0,0c0,0,0,0.1,0.1,0.2v0.1c0,0.1,0.1,0.3-0.1,0.3c-0.2,0-1.5-0.5-1.7-0.6c-0.1,0-0.2-0.1-0.5-0.2	c-0.5-0.2-1-0.4-1.1-0.5c-0.6-0.2-1.3-0.3-1.2-0.7C15.5,28.6,15.6,28.4,15.6,28.4z M16.9,16.8c0.3-0.1,0.6-0.2,0.8-0.5	c0.2-0.2,0.5-0.5,0.9-0.7l0,0h0.1c0.5-0.3,1.2-0.5,1.9-0.6l0.4-0.1c0.2,0,0.5,0,1,0h0.6H23c0.1,0,0.2,0.1,0.4,0.1	c0.5,0.1,0.9,0.3,1.3,0.5c0.1,0,0.2,0.1,0.3,0.1l0,0l0,0l0,0l0,0c0.3,0.2,0.7,0.4,0.9,0.7c0.7,0.7,1.2,1.4,1.5,1.8l0.2,0.2l0.1,0.1	c0.6,0.7,1.4,0.8,2.4,0.9h0.1c0.4,0,0.9,0.1,1.4,0.3l0,0h0.1l0,0c0.4,0.2,0.7,0.5,1,0.9c0.1,0.2,0.3,0.4,0.4,0.7	c0.1,0.2,0.2,0.4,0.3,0.6c0.3,0.8,0.4,1.5,0.4,2.2c0,0.6-0.1,1.1-0.3,1.5c0,0.1-0.1,0.2-0.1,0.2c-0.3,0.6-0.5,1.1-0.5,1.6	c0,0.2,0,0.4,0.1,0.5c0.2,0.8,0.8,1.3,1.2,1.7l0,0l0.1,0.1c1.1,1,1.9,2.3,2,3.5l0,0l0,0l0,0c0,0,0,0,0-0.1s0-0.1-0.1-0.2	c-0.3-0.9-0.7-1.6-1.2-2.1c-0.4-0.5-0.9-0.8-1.1-1c-0.2-0.1-0.3-0.1-0.5,0c0,0-0.1,0.1-0.1,0.2s0,0.1,0,0.2c0.2,0.5,0.4,0.7,0.6,1	c0.2,0.3,0.5,0.7,0.6,1.3c0.1,0.7,0.3,1.2,0.4,1.3l0,0l0,0c-0.4-0.4-0.5-0.9-0.6-1.3c-0.1-0.5-0.2-0.8-0.6-1.3	c-0.5-0.6-0.9-1.2-1-1.7c-0.1-0.3-0.1-0.5-0.1-0.7s0-0.5-0.1-0.8s-0.1-0.6-0.1-0.8c0-0.7,0.2-1.3,0.6-1.9c0.3-0.4,0.5-1,0.5-1.5	c0-0.2,0-0.5-0.1-0.7c-0.2,0.1-0.2-0.3-0.4-0.7c-0.6-1.6-1.4-2.2-2.9-2.2c-1.1,0-2.2-0.1-3-1.2c-0.3-0.4-0.6-0.8-1-1.2	c-0.1-0.1-0.1-0.1-0.2-0.2c-0.1-0.2-0.3-0.3-0.5-0.5c-0.1-0.1-0.3-0.2-0.4-0.3c-0.1-0.1-0.3-0.2-0.4-0.3c-0.8-0.5-1.7-0.7-3-0.7	c-0.1,0-0.1,0-0.2,0c-0.1,0-0.1,0.1-0.1,0.1l0,0v0.1c0,0.1,0,0.1,0.1,0.2c0.3,0.5,0.8,0.8,1.3,1.1s1.1,0.4,1.8,0.5s1,0.5,1.4,1.1	c0.4,0.7,0.8,1.3,1.3,1.6s1,0.7,1.4,1.4c0.2,0.3,0.4,0.3,0.7,0.4h0.1l0.3,0.1l0,0h0.1c0,0,0.1,0,0.3,0.1c1.3,0.5,1.5,1.6,1.6,2.5	l0,0V25c0,0,0,0,0-0.1c-0.3-1.5-1.3-2.1-2.1-2.3c-0.2,0-0.3,0-0.4,0.1c-0.1,0.1-0.1,0.2-0.1,0.3l0,0v0.1c0,0.8-0.5,1.5-1.2,2	c-0.8,0.5-1.3,1.2-1.4,2c0,0,0,0.1,0,0.2c0,0.8,0.4,1.6,1.1,2.5c0.2,0.2,0.4,0.3,0.6,0.5l0.3,0.2c0.5,0.3,0.7,0.8,0.9,1.5l0.2,0.4	c0.2,0.4,0.4,0.6,0.8,0.9h0.1c0.7,0.5,1.2,0.8,1.3,1.5l0,0l0,0c-0.2-0.7-1-1.2-1.6-1.5c-0.3-0.1-0.6-0.3-0.8-0.7v-0.1	c-0.2-0.4-0.5-1.1-0.9-1.5c-0.1-0.1-0.2-0.1-0.3-0.1S28,31,27.9,31.2l-0.1,0.2L27.5,32c-0.1,0.3-0.2,0.7-0.2,1.1s0.1,0.8,0.2,1.1	l0.1,0.1c0.2,0.4,0.5,0.9,0.6,1.3c0,0,0,0,0,0.1c0,0,0-0.1-0.1-0.1c-0.1-0.4-0.4-0.9-0.8-1.4c-0.3-0.4-0.4-0.9-0.4-1.4	s0.1-1,0.4-1.5c0.1-0.2,0.1-0.3,0.1-0.5s-0.1-0.5-0.2-0.7l0,0c-0.2-0.3-0.5-0.6-0.8-1.3c-0.7-1.2-1-2.9,0.9-4.2c0.7-0.4,1-1,1-1.7	c0-0.8-0.5-1.5-1.4-2c-0.7-0.4-1.3-1.2-1.7-2.1c-0.2-0.1-0.4-0.1-0.5-0.1c-0.1,0.1-0.2,0.2-0.2,0.3l0,0c0,0.1,0,0.1,0,0.2	c0,0.7-0.3,1.4-0.9,1.8c-0.6,0.4-1.2,1.3-1.5,2.2c-0.1,0.3-0.1,0.6-0.1,1c0,0.1,0,0.3,0,0.4c0.1,0.5,0.4,1.2,0.8,1.7	c0.3,0.5,0.6,1,0.6,1.5l0,0l0,0c0,0,0,0,0-0.1c-0.1-0.5-0.4-0.9-0.8-1.3c-0.4-0.4-0.8-1.2-0.9-1.8c0-0.1,0-0.2-0.1-0.2l0,0l0,0	l-0.1-0.1l0,0c-0.1,0-0.1-0.1-0.2-0.1c-0.3,0-0.9,0.2-1.2,0.4c-0.2,0.1-0.3,0.3-0.4,0.5c-0.1,0.2-0.1,0.3-0.1,0.5	c0,0.1,0,0.2,0.1,0.3l0,0c0,0.1,0,0.1,0.1,0.2c0.2,0.4,0.3,0.8,0.4,1.3c0,0.1,0.1,0.2,0.1,0.3c0.1,0.3,0.1,0.6,0.2,0.9v0.1v0.2v0.2	l0,0c0.1,0.3,0.2,0.5,0.4,0.6c0.6,0.1,2,0.6,2.9,1.1l0,0l0,0c-1-0.4-2.2-0.8-2.7-0.8c-0.1,0-0.1,0-0.2,0.1l0,0	c-0.1,0.1-0.1,0.1-0.1,0.2v0.1c0.3,1.1,0.9,2.8,1.5,3.9l0,0l0,0c-0.5-0.6-1-1.8-1.5-3c-0.3-0.9-0.7-2.1-0.8-2.9	c-0.2-0.7-0.3-1.1-0.6-1.9l-0.1-0.4c-0.1-0.2-0.1-0.4-0.1-0.6s0-0.4,0.1-0.6c0,0,0-0.1,0.1-0.2c0.3-0.6,1-1,1.8-1.2	c0.5-0.1,0.7-0.5,0.8-0.8c0.2-0.8,0.7-1.5,1.5-2.2c0.5-0.4,0.5-0.9,0.6-1.4l0,0c0-0.1,0-0.2,0-0.2c0-0.4-0.2-0.7-0.6-0.8	c-0.2-0.1-0.5-0.2-0.7-0.3c-0.8-0.4-1.5-0.9-2-1.7c-0.1-0.2-0.4-0.5-0.7-0.4c-0.5,0.1-1,0.4-1.3,0.7c-0.5,0.3-0.6,0.5-0.6,0.8v0.1	V18v0.2v0.2l0,0c0,0,0,0.1,0,0.2c0,0.1,0,0.2,0,0.3s0,0.3-0.1,0.4c0,0.1-0.1,0.3-0.2,0.5v0.1c-0.1,0.1-0.1,0.2-0.2,0.4	c0,0,0,0.1-0.1,0.1c0,0,0,0,0,0.1c-0.1,0.3-0.2,0.6-0.2,1c0,0.1,0,0.1,0,0.2c0,0.3,0,0.5,0,0.8c0,0.4,0,0.8-0.1,1.1	c0,0.1-0.1,0.2-0.1,0.3c-0.1,0.3-0.3,0.6-0.5,0.8l0,0l0,0c0.4-0.6,0.5-1.3,0.5-1.9c0-0.4,0-0.8-0.1-1.1v-0.2c0-0.1,0-0.2,0-0.2	c0-0.3,0.1-0.7,0.2-1l0.1-0.3c0.1-0.2,0.2-0.5,0.3-0.7c0-0.2,0.1-0.4,0.1-0.6c0-0.3,0-0.6-0.1-0.9c0-0.2-0.1-0.4-0.2-0.5	c-0.1-0.1-0.2-0.1-0.5,0c-1.5,0.4-2.9,1.5-3.7,2.7c0.5-1,1.1-1.7,1.9-2.2c0.2-0.2,0.4-0.3,0.6-0.4C16.1,17.1,16.5,17,16.9,16.8z M13,28.6c0,0,0-0.5,0.1-0.5s1.1,0.5,1.2,0.6c0.2,0.2,0.3,0.8,0.4,0.8c0.1,0.1-0.7-0.2-0.8-0.3c-0.3-0.1-0.8-0.3-0.8-0.3	C13,28.8,13,28.7,13,28.6z M13.1,30c0-0.1,0-0.3,0.1-0.3c0,0,1.5,0.4,1.5,0.5c0.3,0.1,0.3,0.7,0.3,0.7L14.9,31	c-0.1,0-1.2-0.4-1.3-0.4c-0.1,0-0.4-0.1-0.4-0.1C13.1,30.3,13.1,30.1,13.1,30z M13.5,31.2c0.2,0,1.4,0.4,1.7,0.5	c0.5,0.1,0.5,0.8,0.2,0.8C15.1,32.4,14,32,13.8,32C13.7,32,13.3,31.3,13.5,31.2z M16.5,31.9c0,0,0.2,0,1.2,0.4	c0.3,0.1,0.5,0.2,0.6,0.2s0.9,0.3,0.9,0.4s0,0.1,0,0.2c0,0-0.1,0.2-0.2,0.2c-0.1,0-0.8-0.2-0.8-0.2c-0.5-0.2-1.4-0.5-1.5-0.5	c-0.2-0.1-0.3-0.3-0.3-0.5C16.5,32.1,16.5,32,16.5,31.9C16.5,32,16.5,31.9,16.5,31.9z M33.1,28c0-0.2,0-0.3,0-0.5	c0-0.4,0.1-0.8,0.3-1.2c0,1.2,0.3,2.2,0.8,3.2C33.7,29.2,33.2,28.8,33.1,28z M33.3,19.8c0.3,0.2,0.6,0.8,0.6,1v0.1	c-0.1-0.1-0.2-0.1-0.3-0.2c-0.1-0.3-0.6-0.8-0.7-0.9C32.8,19.8,33,19.6,33.3,19.8z M33,16.1c-0.2,0-0.4,0.2-0.4,0.4	c0.1,0.2,0,0.6,0,0.8s0.2,0.5,0.3,0.5s0.2,0.4,0.1,0.5s-0.3,0.1-0.2,0.2c0.1,0.2-0.1,0.4-0.1,0.3s-0.1-0.2-0.2-0.4	c-0.1-0.2-0.2-0.3-0.2-0.1c0.1,0.2,0.1,0.3,0.2,0.5c0.1,0.2-0.1,0.3-0.2,0S32,18.3,32,18.1s-0.2-0.1-0.1,0.1c0,0.2-0.1,0.3-0.2,0	s-0.3-1-0.4-1.2c-0.1-0.2-0.2-0.2-0.2-0.1c0,0.1,0.1,0.3,0.1,0.4c0,0.1-0.1,0.2-0.2,0c0-0.2-0.2-0.4-0.2-0.6s-0.3-0.3-0.2-0.1	s0,0.3,0.1,0.5c0,0.2-0.1,0-0.2,0c0-0.1-0.1-0.3-0.1-0.4c0-0.1-0.2-0.3-0.2-0.1s0,0.2,0,0.2c-0.1,0-0.1-0.2-0.2-0.3	c0-0.1-0.2-0.5-0.2-0.6c-0.1-0.2-0.3-0.2-0.2-0.1s0.1,0.4,0.1,0.6c0,0.1-0.2,0.1-0.2,0s-0.3-0.6-0.3-0.8c-0.1-0.1-0.2,0-0.1,0.1	c0.1,0.1,0.2,0.4,0.2,0.5c0.1,0.2-0.2-0.1-0.3-0.2s-0.2-0.4-0.3-0.5s-0.3-0.1-0.2,0s0.1,0.2,0.1,0.3s-0.2,0-0.3-0.1	c0-0.1-0.3-0.5-0.3-0.6s-0.2,0-0.1,0.1s0.1,0.2,0.1,0.4c0,0.1-0.3-0.1-0.3-0.2c0-0.1-0.3-0.5-0.4-0.7c-0.1-0.2-0.1,0-0.1,0.1	s0.2,0.3,0.2,0.4c0,0.2-0.1,0.1-0.2,0S27,14.8,27,14.7s-0.3-0.2-0.1,0.2s0,0.3,0,0.3c-0.1,0-0.2-0.1-0.2-0.1s-0.1-0.2-0.1-0.4	s-0.2-0.1-0.1,0c0,0.1,0,0.2,0,0.4s-0.2,0-0.2,0c0-0.1-0.1-0.3-0.2-0.4c0-0.1-0.2-0.1-0.1,0c0.1,0.1,0.1,0.2,0.1,0.3s0,0.1-0.1,0.1	c-0.1-0.1-0.2-0.2-0.3-0.3c-0.1-0.2-0.3,0.1-0.4,0.1c-0.1,0-0.4-0.3-0.4-0.3c-0.1,0-0.2,0-0.1,0.1c0.1,0.1,0.2,0.2,0.2,0.3	s0,0.3-0.1,0.3c-0.2,0-0.4-0.3-0.6-0.3c-0.2,0-0.4,0-0.5,0.1h-0.1c-0.2,0-0.4-0.1-0.5-0.1c0,0-0.2,0-0.3,0s-0.1-0.1-0.2-0.1	c-0.1,0-0.1-0.1-0.1-0.2c3.3-1.6,8-1.7,11.9,1.5h-0.1c-0.1-0.1-0.4-0.1-0.5-0.1C33.6,16,33.2,16.1,33,16.1z M26.8,13.1	c-0.5,0-2.1,0.2-2.7,0.3c0-0.2,0.1-1.2,0.3-1.3c0.2,0,1.5-0.2,1.7-0.2c0.4,0,0.6-0.1,0.9-0.1C27,12.3,26.9,12.8,26.8,13.1z M15.8,35.2l-0.1-0.1c1.5,1.8,3.3,3.2,5.5,4l0,0c0.2,0.9,0.5,2.3,0.7,3.4c-2.1-0.2-4.1-0.8-5.9-1.7C16,39,15.9,36.8,15.8,35.2z M16.2,7.5c-0.2,0.6-0.3,1.2-0.3,2s0,2,0,3.2c0,1-0.2,2.9-0.1,4.5c-0.2,0.1-0.4,0.2-0.6,0.4c-0.1-1.6,0-3.5-0.3-5.3	c-0.2-0.9-1-0.9-1.3,0c-0.1,0.3-0.2,0.4-0.2,0.7c-0.1,0.3-0.3,0.5-0.7,0.5c-0.5,0.1-1,0.2-1.4,0.4c-0.2,0.1-0.3,0.3-0.2,0.5	c0.1,0.7,0.2,2.3,0.3,4.4c-0.2,0.1-0.5,0.2-0.6,0.4c-0.4,0.5-0.5,1.1-0.3,2c0.4,1.3,0.3,1.9,0,2.7c-0.6,1.6-0.3,3.8,1,5.3l0.1,0.1	c0.1,0.1,0.2,0.2,0.4,0.2l0,0c0.1,3.4,0.2,6.7,0.3,8.9C8.2,35,5.6,29.8,5.6,24.1c0-7.5,4.5-14,11-17C16.3,7.2,16.2,7.3,16.2,7.5z" class="st0"/><path d="M55.6,12.3h4.7l1,2.4h1.9l-4.4-10h-1.6l-4.4,10h1.8L55.6,12.3z M58,6.8l1.7,4h-3.4L58,6.8z" class="st0"/><polygon points="66.7 7.6 69.9 12.3 69.9 12.3 73 7.6 73 14.7 74.8 14.7 74.8 4.8 72.9 4.8 69.9 9.5 66.9 4.8 65 4.8 65 14.7 66.7 14.7" class="st0"/><polygon points="84.9 13.2 79.2 13.2 79.2 10.5 84.2 10.5 84.2 8.9 79.2 8.9 79.2 6.4 84.9 6.4 84.9 4.8 77.5 4.8 77.5 14.7 84.9 14.7" class="st0"/><path d="M88.9,11.3h2.2l2.4,3.5h2.1L92.9,11c1.4-0.4,2.4-1.4,2.4-3l0,0c0-0.9-0.3-1.6-0.8-2.1c-0.6-0.6-1.6-1-2.9-1	h-4.4v9.8H89L88.9,11.3L88.9,11.3z M88.9,6.4h2.5c1.3,0,2.1,0.6,2.1,1.7l0,0c0,1-0.8,1.7-2,1.7h-2.6V6.4z" class="st0"/><rect width="1.8" height="9.9" x="97.6" y="4.8" class="st0"/><path d="M106.8,14.9c1.9,0,3-0.7,4-1.8l-1.1-1.1c-0.8,0.8-1.6,1.3-2.8,1.3c-1.9,0-3.3-1.6-3.3-3.5l0,0	c0-1.9,1.4-3.5,3.3-3.5c1.1,0,2,0.5,2.8,1.2l1.1-1.3c-0.9-0.9-2.1-1.5-3.9-1.5c-3,0-5.1,2.3-5.1,5.1l0,0	C101.7,12.6,103.9,14.9,106.8,14.9z" class="st0"/><path d="M114.8,12.3h4.7l1,2.4h1.9l-4.4-10h-1.6l-4.4,10h1.8L114.8,12.3z M117.1,6.8l1.7,4h-3.4L117.1,6.8z" class="st0"/><polygon points="125.9 7.7 131.3 14.7 132.8 14.7 132.8 4.8 131.1 4.8 131.1 11.7 125.8 4.8 124.2 4.8 124.2 14.7 125.9 14.7" class="st0"/><path d="M61.2,26.2c-0.8,0.8-1.6,1.3-2.8,1.3c-1.9,0-3.3-1.6-3.3-3.5l0,0c0-1.9,1.4-3.5,3.3-3.5c1.1,0,2,0.5,2.8,1.2	l1.1-1.3c-0.9-0.9-2.1-1.5-3.9-1.5c-3,0-5.1,2.3-5.1,5.1l0,0c0,2.8,2.2,5.1,5.1,5.1c1.9,0,3-0.7,4-1.8L61.2,26.2z" class="st0"/><path d="M68.7,29.1c3.1,0,5.2-2.3,5.2-5.1l0,0c0-2.8-2.1-5.1-5.2-5.1c-3.1,0-5.2,2.3-5.2,5.1l0,0	C63.6,26.8,65.7,29.1,68.7,29.1z M65.4,23.9c0-1.9,1.4-3.5,3.3-3.5c1.9,0,3.4,1.6,3.4,3.5l0,0c0,1.9-1.4,3.5-3.3,3.5	C66.9,27.4,65.4,25.9,65.4,23.9L65.4,23.9z" class="st0"/><polygon points="83.2 27.3 78 27.3 78 19 76.2 19 76.2 28.9 83.2 28.9" class="st0"/><polygon points="92.1 27.3 86.9 27.3 86.9 19 85.1 19 85.1 28.9 92.1 28.9" class="st0"/><polygon points="101.4 20.6 101.4 19 94.1 19 94.1 28.9 101.5 28.9 101.5 27.4 95.8 27.4 95.8 24.7 100.8 24.7 100.8 23.1 95.8 23.1 95.8 20.6" class="st0"/><path d="M112.6,23.4h-4.2v1.5h2.5v1.9c-0.6,0.5-1.5,0.8-2.4,0.8c-2,0-3.4-1.5-3.4-3.5l0,0c0-1.9,1.4-3.5,3.2-3.5	c1.3,0,2,0.4,2.8,1.1l1.1-1.3c-1-0.9-2.1-1.4-3.8-1.4c-3,0-5.1,2.4-5.1,5.1l0,0c0,2.9,2,5.1,5.2,5.1c1.8,0,3.2-0.7,4.1-1.6	L112.6,23.4L112.6,23.4z" class="st0"/><polygon points="122.3 20.6 122.3 19 115 19 115 28.9 122.4 28.9 122.4 27.4 116.7 27.4 116.7 24.7 121.7 24.7 121.7 23.1 116.7 23.1 116.7 20.6" class="st0"/><path d="M128.4,25.2L128.4,25.2c0,2.2,1.7,3.9,4,3.9s4-1.8,4-3.9l0,0c0-2.1-1.7-3.9-4-3.9S128.4,23.1,128.4,25.2z M134.7,25.2L134.7,25.2c0,1.3-0.9,2.4-2.3,2.4c-1.3,0-2.3-1.1-2.3-2.4l0,0c0-1.3,0.9-2.4,2.3-2.4S134.7,23.9,134.7,25.2z" class="st0"/><path d="M138.7,28.9h1.7v-6h2v-1.4h-2v-0.4c0-0.8,0.3-1.1,1-1.1c0.4,0,0.7,0.1,1,0.2v-1.5c-0.4-0.1-0.8-0.2-1.4-0.2	c-0.7,0-1.3,0.2-1.7,0.6c-0.4,0.4-0.6,1-0.6,1.8v0.6h-0.9v1.4h0.9V28.9z" class="st0"/><path d="M58.3,34.6c1.1,0,2,0.5,2.8,1.2l1.1-1.3c-0.9-0.9-2.1-1.6-3.9-1.6c-3,0-5.1,2.3-5.1,5.1l0,0	c0,2.9,2.2,5.1,5.1,5.1c1.9,0,3-0.7,4-1.8l-1.1-0.9c-0.8,0.8-1.6,1.3-2.8,1.3c-1.9,0-3.3-1.6-3.3-3.5l0,0	C55.1,36.2,56.4,34.6,58.3,34.6z" class="st0"/><path d="M66.2,40.7h4.7l1,2.4h1.8l-4.4-10h-1.6l-4.4,10h1.9L66.2,40.7z M68.6,35.2l1.7,4h-3.4L68.6,35.2z" class="st0"/><path d="M77.4,39.7h2.2l2.4,3.5h2.1l-2.7-3.8c1.4-0.4,2.4-1.4,2.4-3l0,0c0-0.9-0.3-1.6-0.8-2.1c-0.6-0.6-1.6-1-2.9-1	h-4.4v9.9h1.8L77.4,39.7L77.4,39.7z M77.4,34.8h2.5c1.3,0,2.1,0.6,2.1,1.6l0,0c0,1-0.8,1.7-2,1.7h-2.6V34.8L77.4,34.8z" class="st0"/><path d="M89.7,33.2H86v9.9h3.7c3.1,0,5.3-2.2,5.3-5l0,0C95,35.3,92.9,33.2,89.7,33.2z M93.2,38.2c0,1.9-1.4,3.3-3.4,3.3	h-2v-6.8h2C91.8,34.8,93.2,36.2,93.2,38.2L93.2,38.2z" class="st0"/><rect width="1.8" height="9.9" x="97.4" y="33.2" class="st0"/><path d="M101.5,38.2L101.5,38.2c0,2.8,2.1,5.1,5.2,5.1c3.1,0,5.2-2.3,5.2-5.1l0,0c0-2.8-2.1-5.1-5.2-5.1	C103.6,33,101.5,35.4,101.5,38.2z M110,38.2L110,38.2c0,2-1.4,3.5-3.3,3.5c-1.9,0-3.4-1.6-3.4-3.5l0,0c0-1.9,1.4-3.5,3.3-3.5	C108.6,34.6,110,36.2,110,38.2z" class="st0"/><polygon points="114.1 33.2 114.1 43.1 121.1 43.1 121.1 41.5 115.9 41.5 115.9 33.2" class="st0"/><path d="M122.1,38.2c0,2.8,2.1,5.1,5.2,5.1s5.2-2.3,5.2-5.1l0,0c0-2.8-2.1-5.1-5.2-5.1S122.1,35.4,122.1,38.2	L122.1,38.2L122.1,38.2z M123.9,38.1c0-1.9,1.4-3.5,3.4-3.5s3.4,1.6,3.4,3.5l0,0c0,1.9-1.4,3.5-3.4,3.5S123.9,40.1,123.9,38.1	L123.9,38.1z" class="st0"/><path d="M139.3,34.6c1.3,0,2,0.4,2.8,1.1l1.1-1.3c-1-0.9-2.1-1.3-3.8-1.3c-3,0-5.1,2.4-5.1,5.1l0,0c0,2.9,2,5.1,5.1,5.1	c1.8,0,3.2-0.7,4.1-1.5v-4.2h-4.2v1.5h2.5V41c-0.6,0.5-1.5,0.8-2.4,0.8c-2,0-3.4-1.5-3.4-3.5l0,0C136.1,36.2,137.5,34.6,139.3,34.6z" class="st0"/><polygon points="148.5 43.1 150.2 43.1 150.2 39.2 154.2 33.2 152.2 33.2 149.4 37.6 146.6 33.2 144.5 33.2 148.5 39.2" class="st0"/><path d="M155.2,40.9c0-0.5-0.4-0.7-0.8-0.7h-1v2h0.5v-0.6h0.3l0.4,0.6h0.6l-0.5-0.7C155,41.4,155.2,41.2,155.2,40.9z M154.3,41.2h-0.4v-0.6h0.4c0.2,0,0.4,0.1,0.4,0.3C154.7,41.1,154.6,41.2,154.3,41.2z" class="st0"/><path d="M154.2,39.3c-1.1,0-2,0.9-2,2l0,0c0,1.1,0.9,2,2,2s2-0.9,2-2l0,0C156.2,40.2,155.3,39.3,154.2,39.3z M156,41.3	c0,1-0.8,1.8-1.7,1.8c-1,0-1.7-0.8-1.7-1.8l0,0c0-1,0.8-1.8,1.7-1.8C155.2,39.5,156,40.3,156,41.3L156,41.3z" class="st0"/></svg>