<?xml version="1.0" encoding="UTF-8"?>
<svg id="Layer_1" data-name="Layer 1" xmlns="http://www.w3.org/2000/svg" xmlns:xlink="http://www.w3.org/1999/xlink" viewBox="0 0 432 260.05">
  <defs>
    <style>
      .cls-1 {
        fill: url(#Silver-9);
      }

      .cls-1, .cls-2, .cls-3, .cls-4, .cls-5, .cls-6, .cls-7, .cls-8, .cls-9, .cls-10, .cls-11, .cls-12, .cls-13, .cls-14, .cls-15, .cls-16, .cls-17, .cls-18 {
        stroke-width: 0px;
      }

      .cls-2 {
        fill: url(#Silver-12);
      }

      .cls-3 {
        fill: url(#Silver-2);
      }

      .cls-4 {
        fill: url(#Silver-16);
      }

      .cls-5 {
        fill: url(#Silver-14);
      }

      .cls-6 {
        fill: url(#Silver-17);
      }

      .cls-7 {
        fill: url(#Silver-7);
      }

      .cls-8 {
        fill: url(#Silver-11);
      }

      .cls-9 {
        fill: url(#Silver);
      }

      .cls-10 {
        fill: url(#Silver-10);
      }

      .cls-11 {
        fill: url(#Silver-4);
      }

      .cls-12 {
        fill: url(#Silver-5);
      }

      .cls-13 {
        fill: url(#Bridge_Gradient);
        fill-rule: evenodd;
      }

      .cls-14 {
        fill: url(#Silver-8);
      }

      .cls-15 {
        fill: url(#Silver-13);
      }

      .cls-16 {
        fill: url(#Silver-6);
      }

      .cls-17 {
        fill: url(#Silver-3);
      }

      .cls-18 {
        fill: url(#Silver-15);
      }
    </style>
    <linearGradient id="Bridge_Gradient" data-name="Bridge Gradient" x1="18.26" y1="88.35" x2="413.74" y2="88.35" gradientUnits="userSpaceOnUse">
      <stop offset=".04" stop-color="#172b54"/>
      <stop offset=".11" stop-color="#1e3159"/>
      <stop offset=".22" stop-color="#344567"/>
      <stop offset=".35" stop-color="#58647d"/>
      <stop offset=".51" stop-color="#898f9d"/>
      <stop offset=".65" stop-color="#bebebf"/>
      <stop offset="1" stop-color="#d2d3d4"/>
    </linearGradient>
    <linearGradient id="Silver" x1="18.26" y1="150.08" x2="59.83" y2="150.08" gradientUnits="userSpaceOnUse">
      <stop offset="0" stop-color="#bebebf"/>
      <stop offset="1" stop-color="#d2d3d4"/>
    </linearGradient>
    <linearGradient id="Silver-2" data-name="Silver" x1="68.71" x2="111.98" xlink:href="#Silver"/>
    <linearGradient id="Silver-3" data-name="Silver" x1="122.55" x2="125.86" xlink:href="#Silver"/>
    <linearGradient id="Silver-4" data-name="Silver" x1="139.58" x2="189.31" xlink:href="#Silver"/>
    <linearGradient id="Silver-5" data-name="Silver" x1="193.59" y1="150.12" x2="251.24" y2="150.12" xlink:href="#Silver"/>
    <linearGradient id="Silver-6" data-name="Silver" x1="258.56" x2="297.71" xlink:href="#Silver"/>
    <linearGradient id="Silver-7" data-name="Silver" x1="111.53" y1="218.02" x2="150.68" y2="218.02" xlink:href="#Silver"/>
    <linearGradient id="Silver-8" data-name="Silver" x1="158.59" y1="218.62" x2="205.73" y2="218.62" xlink:href="#Silver"/>
    <linearGradient id="Silver-9" data-name="Silver" x1="214.12" y1="218.02" x2="254.96" y2="218.02" xlink:href="#Silver"/>
    <linearGradient id="Silver-10" data-name="Silver" x1="263.12" y1="218.62" x2="310.26" y2="218.62" xlink:href="#Silver"/>
    <linearGradient id="Silver-11" data-name="Silver" x1="322.36" y1="218.02" x2="365.63" y2="218.02" xlink:href="#Silver"/>
    <linearGradient id="Silver-12" data-name="Silver" x1="374.59" y1="218.02" x2="413.74" y2="218.02" xlink:href="#Silver"/>
    <linearGradient id="Silver-13" data-name="Silver" x1="49.2" y1="199.75" x2="65.57" y2="199.75" xlink:href="#Silver"/>
    <linearGradient id="Silver-14" data-name="Silver" x1="67.31" y1="199.75" x2="86.26" y2="199.75" xlink:href="#Silver"/>
    <linearGradient id="Silver-15" data-name="Silver" x1="90.09" y1="199.75" x2="105.79" y2="199.75" xlink:href="#Silver"/>
    <linearGradient id="Silver-16" data-name="Silver" x1="300.93" y1="168.48" x2="317.3" y2="168.48" xlink:href="#Silver"/>
    <linearGradient id="Silver-17" data-name="Silver" x1="316.87" y1="168.48" x2="339.69" y2="168.48" xlink:href="#Silver"/>
  </defs>
  <path class="cls-13" d="M207.76,9.08c95.19,0,176.15,66.22,205.98,158.53h-56.88C324.87,87.7,251.55,31.8,166.2,31.8c-28.22,0-55.13,6.12-79.66,17.2C121.22,23.79,162.91,9.08,207.76,9.08h0ZM166.87,34.95c-65.63,0-122.28,32.87-148.6,80.36h43.98c32.16-39.22,83.34-64.59,140.98-64.59,19.38,0,38.03,2.88,55.47,8.18-26.22-15.11-57.82-23.94-91.83-23.94h0Z"/>
  <g>
    <g>
      <path class="cls-9" d="M48.78,149.27v.08c5.73.16,11.06,6.38,11.06,14.61,0,11.54-8.23,15.66-17.11,15.66h-24.46v-59.09h22.6c9.2,0,16.39,5,16.39,15.18,0,7.67-4.2,12.51-8.48,13.56ZM21.57,147.82h19.45c8.8,0,12.83-4.92,12.83-12.11,0-8.23-5.89-11.95-12.75-11.95h-19.53v24.05ZM56.52,164.04c0-8.15-5.65-13-14.85-13h-20.1v25.35h21.15c9.12,0,13.8-4.92,13.8-12.35Z"/>
      <path class="cls-3" d="M72.02,179.62h-3.31v-59.09h24.94c10.57,0,18.32,7.99,18.32,18.97s-6.22,17.84-16.87,18.48l15.09,21.63h-4.04l-14.93-21.55h-19.21v21.55ZM72.02,154.84h20.91c6.62,0,15.74-2.99,15.74-15.42,0-5.49-3.15-15.66-15.74-15.66h-20.91v31.08Z"/>
      <path class="cls-17" d="M125.86,179.62h-3.31v-59.09h3.31v59.09Z"/>
      <path class="cls-11" d="M139.58,179.62v-59.09h20.58c16.95,0,29.14,9.53,29.14,29.54s-12.35,29.54-29.14,29.54h-20.58ZM142.89,176.39h16.14c9.77,0,26.88-3.07,26.88-26.23s-16.55-26.4-26.8-26.4h-16.22v52.63Z"/>
      <path class="cls-12" d="M251.14,151.05c1.21,15.58-8.72,29.87-28.33,29.87-16.95,0-29.22-13.8-29.22-30.75s12.27-30.83,29.22-30.83c9.12,0,16.63,3.71,21.55,9.77l-2.66,2.18c-4.76-5.33-11.14-8.72-18.89-8.72-15.01,0-25.91,12.59-25.91,27.61s10.9,27.53,25.91,27.53,24.86-10.49,25.02-23.41h-25.1v-3.23h28.41Z"/>
      <path class="cls-16" d="M261.87,123.76v24.94h31.56v3.23h-31.56v24.46h35.84v3.23h-39.15v-59.09h39.15v3.23h-35.84Z"/>
    </g>
    <g>
      <path class="cls-7" d="M114.84,191.7v25.91h31.56v3.23h-31.56v26.72h-3.31v-59.09h39.15v3.23h-35.84Z"/>
      <path class="cls-14" d="M158.59,224.64v-36.16h3.31v35.44c0,17.68,12.59,21.63,20.42,21.63,7.43,0,20.1-3.96,20.1-21.63v-35.44h3.31v36.16c0,14.69-9.2,24.14-23.41,24.14s-23.73-9.44-23.73-24.14Z"/>
      <path class="cls-1" d="M254.96,191.7h-18.89v55.86h-3.31v-55.86h-18.65v-3.23h40.84v3.23Z"/>
      <path class="cls-10" d="M263.12,224.64v-36.16h3.31v35.44c0,17.68,12.59,21.63,20.42,21.63,7.43,0,20.1-3.96,20.1-21.63v-35.44h3.31v36.16c0,14.69-9.2,24.14-23.41,24.14s-23.73-9.44-23.73-24.14Z"/>
      <path class="cls-8" d="M325.67,247.56h-3.31v-59.09h24.94c10.57,0,18.32,7.99,18.32,18.97s-6.22,17.84-16.87,18.48l15.09,21.63h-4.04l-14.93-21.55h-19.21v21.55ZM325.67,222.78h20.91c6.62,0,15.74-2.99,15.74-15.42,0-5.49-3.15-15.66-15.74-15.66h-20.91v31.08Z"/>
      <path class="cls-2" d="M377.9,191.7v24.94h31.56v3.23h-31.56v24.46h35.84v3.23h-39.15v-59.09h39.15v3.23h-35.84Z"/>
    </g>
    <g>
      <path class="cls-15" d="M65.57,190.98h-6.76v19.9h-2.83v-19.9h-6.79v-2.37h16.37v2.37Z"/>
      <path class="cls-5" d="M86.26,188.61v22.27h-2.86v-9.52h-13.24v9.52h-2.86v-22.27h2.86v10.35h13.24v-10.35h2.86Z"/>
      <path class="cls-18" d="M92.95,190.98v7.67h11.35v2.43h-11.35v7.36h12.84v2.43h-15.7v-22.27h15.7v2.37h-12.84Z"/>
    </g>
    <g>
      <path class="cls-4" d="M317.3,159.72h-6.75v19.9h-2.83v-19.9h-6.78v-2.37h16.37v2.37Z"/>
      <path class="cls-6" d="M316.87,168.48c0-6.39,4.81-11.59,11.38-11.59s11.44,5.2,11.44,11.59-4.81,11.59-11.44,11.59-11.38-5.17-11.38-11.59ZM319.7,168.48c0,4.81,3.86,9.04,8.55,9.04s8.58-4.23,8.58-9.04-3.83-9.01-8.58-9.01-8.55,4.23-8.55,9.01Z"/>
    </g>
  </g>
</svg>