<?xml version="1.0" encoding="UTF-8"?>
<svg id="Layer_1" data-name="Layer 1" xmlns="http://www.w3.org/2000/svg" viewBox="0 0 171.4 71.4">
  <defs>
			<style>
			  .cls-1 {
				fill:currentColor;
			  }
			</style>
  </defs>
  <path class="cls-1" d="M89.54,12.43c1.12-.26,2.31-.43,3.59-.51,1.27-.08,2.57-.04,3.9.12s2.66.45,4,.88c1.34.43,2.63,1.03,3.88,1.81-2.37-1.17-4.84-1.95-7.43-2.34-2.59-.39-5.14-.19-7.66.58-2.24.7-4.23,1.6-5.97,2.69,1.35.96,2.41,2.22,3.18,3.78.77,1.56,1.26,3.28,1.48,5.17.22,1.89.19,3.86-.1,5.93-.29,2.07-.82,4.09-1.6,6.06-.75,1.9-1.7,3.7-2.83,5.4-1.13,1.7-2.44,3.18-3.92,4.45-1.48,1.26-3.11,2.24-4.89,2.93-1.78.69-3.69.98-5.71.88-.91-.03-1.77-.19-2.57-.51-.81-.31-1.51-.72-2.11-1.21-.6-.49-1.06-1.07-1.38-1.72s-.45-1.35-.37-2.11c.08.81.33,1.51.74,2.11.42.6.92,1.1,1.52,1.52.6.42,1.27.72,2.01.92.74.2,1.48.29,2.2.29,1.66-.03,3.26-.41,4.8-1.15s2.96-1.73,4.27-2.96c1.31-1.24,2.5-2.67,3.55-4.31,1.05-1.64,1.93-3.35,2.63-5.15.73-1.87,1.27-3.79,1.62-5.75.35-1.96.47-3.83.37-5.6-.1-1.77-.45-3.4-1.03-4.89-.58-1.49-1.44-2.71-2.55-3.65-2.05,1.38-3.88,3.04-5.48,4.99-1.6,1.95-3.1,4.03-4.5,6.24-1.4,2.21-2.78,4.47-4.11,6.79-1.34,2.31-2.78,4.51-4.31,6.59-1.85,2.5-3.95,4.59-6.32,6.3-2.37,1.7-5.15,2.79-8.35,3.26-1.53.21-3.09.2-4.68-.04-1.59-.23-3.09-.67-4.52-1.31-1.43-.64-2.73-1.48-3.9-2.53-1.17-1.05-2.09-2.29-2.77-3.72-.57-1.2-.97-2.47-1.19-3.82-.22-1.35-.29-2.72-.19-4.09.09-1.38.34-2.74.74-4.1.4-1.35.93-2.64,1.58-3.86.78-1.48,1.74-2.87,2.89-4.15,1.14-1.29,2.42-2.39,3.82-3.32s2.92-1.62,4.54-2.09c1.62-.47,3.32-.62,5.09-.47,2.24.21,4.08.87,5.54,1.99,1.46,1.12,2.55,2.48,3.3,4.09.74,1.61,1.14,3.39,1.19,5.32.05,1.94-.22,3.83-.82,5.67-.44,1.4-1.06,2.72-1.85,3.94-.79,1.22-1.73,2.28-2.81,3.16-1.08.88-2.29,1.57-3.65,2.05-1.35.48-2.81.68-4.37.6-1.07-.05-2.01-.25-2.83-.58s-1.53-.78-2.13-1.33c-.6-.55-1.09-1.16-1.46-1.85-.38-.69-.66-1.41-.84-2.16-.29-1.27-.3-2.59-.04-3.94.26-1.35.76-2.56,1.5-3.63.74-1.07,1.7-1.92,2.89-2.57,1.18-.65,2.54-.91,4.08-.78,1.12.1,2.05.42,2.79.96.74.53,1.29,1.17,1.66,1.91.36.74.55,1.53.55,2.36s-.16,1.59-.49,2.28c-.33.69-.81,1.27-1.44,1.74-.64.47-1.41.69-2.32.66.6-.36,1.1-.84,1.52-1.42s.72-1.21.92-1.89c.2-.68.28-1.37.25-2.07-.03-.7-.16-1.34-.41-1.93-.25-.58-.62-1.07-1.11-1.46-.49-.39-1.12-.62-1.87-.7-1.04-.1-2,.16-2.89.78-.88.62-1.62,1.44-2.22,2.46-.6,1.01-1.04,2.16-1.33,3.43-.29,1.27-.36,2.51-.23,3.71.08.73.25,1.42.51,2.09.26.66.61,1.25,1.05,1.77.44.52.99.94,1.64,1.27s1.4.5,2.26.53c1.4.05,2.69-.21,3.86-.8s2.22-1.37,3.14-2.34c.92-.97,1.7-2.07,2.34-3.28.64-1.21,1.14-2.41,1.5-3.61.49-1.77.74-3.56.74-5.38s-.3-3.49-.9-5.01c-.6-1.52-1.5-2.79-2.69-3.82s-2.73-1.63-4.6-1.81c-1.56-.16-3.06.03-4.5.57-1.44.53-2.78,1.28-4,2.24s-2.32,2.08-3.3,3.35c-.98,1.27-1.79,2.59-2.44,3.94-.57,1.17-1.04,2.39-1.4,3.67-.36,1.27-.62,2.55-.76,3.82-.14,1.27-.17,2.52-.08,3.74.09,1.22.32,2.37.68,3.43.47,1.43,1.21,2.71,2.22,3.84,1.01,1.13,2.18,2.04,3.51,2.73,1.33.69,2.75,1.13,4.27,1.33s3.01.08,4.47-.33c1.3-.39,2.51-.91,3.63-1.56,1.12-.65,2.17-1.41,3.16-2.28.99-.87,1.93-1.85,2.83-2.94.9-1.09,1.8-2.26,2.71-3.51,1.48-2.08,2.95-4.23,4.41-6.45,1.46-2.22,2.97-4.38,4.54-6.47,1.57-2.09,3.25-4.08,5.03-5.95,1.78-1.87,3.75-3.5,5.91-4.88-.81-.52-1.72-.89-2.75-1.11-1.03-.22-2.19-.28-3.49-.18-1.66.16-3.12.63-4.37,1.42-1.25.79-2.26,1.77-3.02,2.92-.77,1.16-1.27,2.42-1.52,3.78-.25,1.37-.19,2.68.18,3.96-.75-.29-1.29-.77-1.62-1.44-.33-.68-.45-1.45-.37-2.32s.36-1.78.86-2.73c.49-.95,1.19-1.84,2.09-2.67s1.99-1.54,3.28-2.13c1.29-.58,2.78-.94,4.47-1.07,1.4-.13,2.67-.09,3.8.12,1.13.21,2.15.57,3.06,1.09,1.01-.6,2.07-1.12,3.16-1.56,1.09-.44,2.26-.81,3.51-1.09Z"/>
  <path class="cls-1" d="M101.36,35.99c-.36.47-.81,1.03-1.35,1.68-.53.65-1.1,1.29-1.7,1.91-.47.49-.94.97-1.42,1.42-.48.46-.97.85-1.48,1.19-.51.34-1.02.59-1.54.76-.52.17-1.04.21-1.56.14-.91-.13-1.56-.49-1.95-1.07s-.58-1.28-.57-2.09c.01-.81.21-1.66.58-2.57.38-.91.87-1.74,1.48-2.5.61-.75,1.3-1.38,2.07-1.87.77-.49,1.57-.73,2.4-.7.55.03.98.14,1.29.35.31.21.53.46.64.76s.14.62.06.96c-.08.34-.25.66-.51.98-.39.47-.99.82-1.79,1.05-.81.23-1.75.2-2.85-.12-.42.65-.78,1.33-1.09,2.03-.31.7-.51,1.36-.6,1.97-.09.61-.05,1.12.14,1.54.18.42.55.68,1.09.78.36.08.76.04,1.19-.12s.88-.38,1.35-.68c.47-.3.94-.66,1.4-1.09.47-.43.92-.88,1.36-1.35.6-.6,1.16-1.21,1.7-1.83.53-.62.94-1.13,1.23-1.52h.43ZM96.95,32.91c-.55-.03-1.13.26-1.75.86-.62.6-1.24,1.33-1.83,2.18,1.04.26,1.9.29,2.59.08.69-.21,1.21-.52,1.58-.94.18-.23.31-.47.37-.72.06-.25.08-.47.04-.68-.04-.21-.14-.39-.31-.55-.17-.16-.4-.23-.68-.23Z"/>
  <path class="cls-1" d="M108.85,31.23c0,.1-.08.16-.23.16h-2.3c-.52.73-1.03,1.45-1.54,2.17-.51.71-1.02,1.44-1.54,2.16-.23.31-.53.72-.88,1.23-.35.51-.7,1.03-1.05,1.58-.35.55-.67,1.08-.96,1.6-.29.52-.48.96-.58,1.33-.08.29-.1.55-.06.8.04.25.24.37.6.37.44,0,.98-.25,1.62-.74.64-.49,1.28-1.08,1.93-1.75.65-.68,1.25-1.35,1.81-2.03.56-.68.99-1.21,1.31-1.6.08-.1.16-.21.25-.31.09-.1.16-.18.21-.23h.39c-.08.1-.16.21-.25.31-.09.1-.18.22-.25.35-.34.42-.8.99-1.38,1.72-.58.73-1.21,1.44-1.89,2.14-.68.7-1.35,1.31-2.03,1.81-.68.51-1.29.76-1.83.76-.47-.03-.83-.2-1.07-.53s-.4-.68-.45-1.07c-.05-.49.05-1.09.31-1.79.26-.7.58-1.4.97-2.11.39-.7.79-1.37,1.21-2.01.42-.64.77-1.16,1.05-1.58.31-.44.62-.88.92-1.31s.59-.86.88-1.31l-2.15-.04c-.13,0-.19-.05-.18-.16.01-.1.08-.16.21-.16h2.34c.36-.52.72-1.03,1.07-1.54.35-.51.71-1.02,1.07-1.54h.82c.18,0,.35-.01.51-.04.16-.03.34-.07.55-.14.21-.06.52-.16.94-.29-.44.6-.88,1.2-1.33,1.79s-.88,1.2-1.33,1.79l2.11.04c.13,0,.2.05.2.16Z"/>
  <path class="cls-1" d="M121.25,35.99c-.1.13-.19.25-.27.35-.08.1-.17.21-.27.31-.34.44-.79,1.02-1.36,1.74-.57.71-1.19,1.42-1.85,2.12s-1.33,1.31-2.01,1.81c-.68.51-1.29.76-1.83.76-.31,0-.57-.08-.78-.23-.21-.16-.37-.34-.49-.57-.12-.22-.2-.47-.23-.74-.04-.27-.03-.53.02-.76.1-.55.33-1.2.66-1.95-.36.49-.76,1-1.19,1.52-.43.52-.87.99-1.33,1.4-.46.42-.92.75-1.38,1.01-.47.26-.92.36-1.37.31-.78-.05-1.3-.38-1.56-.99-.26-.61-.32-1.35-.19-2.2.13-.86.43-1.77.9-2.73.47-.96,1.05-1.83,1.74-2.59.69-.77,1.46-1.37,2.3-1.81.84-.44,1.72-.57,2.63-.39.73.13,1.21.44,1.44.94.23.49.33,1.03.27,1.6.55-.8,1.05-1.55,1.52-2.22h.82c.18,0,.35-.01.51-.04.16-.03.33-.07.53-.14.2-.06.5-.16.92-.29-.47.6-1,1.31-1.6,2.12-.6.82-1.19,1.65-1.77,2.5-.58.85-1.12,1.64-1.6,2.38-.48.74-.81,1.33-1,1.77-.05.13-.11.29-.17.49-.07.19-.1.38-.1.57s.04.34.14.47c.09.13.27.2.53.2.44,0,.97-.25,1.6-.74s1.25-1.08,1.89-1.75c.64-.68,1.23-1.36,1.77-2.05.55-.69.97-1.21,1.29-1.58l.47-.58h.43ZM107.64,42.66c.49.1,1.08-.12,1.75-.66.68-.55,1.35-1.2,2.01-1.97.66-.77,1.28-1.56,1.85-2.38.57-.82,1-1.45,1.29-1.89.08-.26.14-.54.18-.84.04-.3.03-.58-.04-.86-.07-.27-.17-.51-.33-.7s-.39-.32-.7-.37c-.44-.08-.96.09-1.54.51-.58.42-1.17.97-1.75,1.68s-1.13,1.47-1.64,2.3c-.51.83-.91,1.62-1.21,2.38-.3.75-.45,1.39-.47,1.91-.01.52.19.82.6.9Z"/>
  <path class="cls-1" d="M127.61,35.99c-.1.13-.2.25-.27.35-.08.1-.17.21-.27.31-.34.44-.79,1.02-1.37,1.74-.57.71-1.19,1.42-1.85,2.12s-1.33,1.31-2.01,1.81c-.68.51-1.29.76-1.83.76-.31,0-.57-.08-.78-.23-.21-.16-.37-.35-.49-.58-.12-.23-.2-.49-.23-.76-.04-.27-.03-.53.02-.76.1-.55.33-1.18.66-1.89.34-.71.73-1.44,1.17-2.18.44-.74.89-1.46,1.35-2.17.45-.7.86-1.31,1.23-1.83h.82c.18,0,.35-.01.51-.04.16-.03.34-.07.55-.14.21-.06.52-.16.94-.29-.47.6-1,1.31-1.6,2.12-.6.82-1.19,1.65-1.77,2.5-.58.85-1.12,1.64-1.6,2.38-.48.74-.81,1.33-.99,1.77-.05.13-.11.29-.18.49-.06.19-.1.38-.1.57s.05.34.14.47c.09.13.25.2.49.2.44,0,.98-.25,1.62-.74.64-.49,1.27-1.08,1.91-1.75.64-.68,1.23-1.36,1.77-2.05.55-.69.97-1.21,1.29-1.58l.47-.58h.43ZM124.06,31.86c-.23-.16-.37-.39-.41-.7-.04-.31.04-.61.25-.9s.46-.47.76-.55c.3-.08.57-.04.8.12.23.16.36.39.39.7.03.31-.07.61-.27.9s-.46.47-.74.55c-.29.08-.55.04-.78-.12Z"/>
  <path class="cls-1" d="M134.08,35.99c-.29.31-.73.86-1.33,1.66-.6.79-1.26,1.59-1.99,2.4-.73.81-1.48,1.51-2.24,2.13-.77.61-1.46.92-2.09.92-.49,0-.86-.16-1.11-.49s-.4-.7-.45-1.11c-.05-.49.05-1.09.31-1.77.26-.69.58-1.38.97-2.09.39-.7.8-1.37,1.23-2.01.43-.64.79-1.16,1.07-1.58,1.04-1.53,2.08-3.05,3.12-4.54,1.04-1.49,2.08-3,3.12-4.5h.82c.18,0,.35-.01.51-.04.16-.03.34-.07.55-.14.21-.06.52-.16.94-.29-1.4,1.87-2.78,3.77-4.12,5.69-1.34,1.92-2.66,3.78-3.96,5.58-.23.31-.53.72-.88,1.23-.35.51-.7,1.03-1.05,1.58-.35.55-.67,1.08-.96,1.6s-.48.96-.58,1.33c-.05.29-.06.55-.02.8.04.25.24.37.6.37.49,0,1.08-.28,1.77-.84.69-.56,1.37-1.21,2.05-1.95s1.31-1.48,1.91-2.22,1.05-1.31,1.37-1.7h.43Z"/>
  <path class="cls-1" d="M142.19,35.99c-.68.99-1.38,2.03-2.12,3.12-.74,1.09-1.57,2.03-2.48,2.81-1.07.91-2.33,1.37-3.78,1.37-.57,0-1.15-.1-1.74-.31s-1.03-.56-1.35-1.05c-.21-.31-.32-.64-.33-.99-.01-.35.04-.68.17-1,.13-.31.32-.58.57-.82.25-.23.53-.4.84-.51.34-.1.7-.14,1.07-.1.38.04.72.15,1.03.33.31.18.56.42.74.72s.26.66.23,1.07c-.03.18-.12.38-.27.58-.16.21-.4.29-.74.23.21-.34.29-.68.25-1.01-.04-.34-.16-.64-.35-.9-.2-.26-.45-.45-.76-.57-.31-.12-.66-.12-1.05-.02-.6.16-1.01.51-1.23,1.07-.22.56-.18,1.1.14,1.62.31.6.9.96,1.76,1.09.68.1,1.29-.03,1.83-.39.55-.36.97-.83,1.29-1.4.26-.47.44-.98.55-1.52.1-.55.16-1.1.16-1.66s-.03-1.12-.08-1.68c-.05-.56-.1-1.08-.16-1.58-.03-.21-.05-.42-.06-.62-.01-.21-.03-.42-.06-.62-.44.52-.84,1.01-1.19,1.46-.35.46-.72.92-1.11,1.38h-.43c.44-.55.88-1.09,1.31-1.64.43-.55.89-1.12,1.38-1.72-.03-.36-.05-.75-.06-1.17-.01-.42.02-.81.1-1.17.13-.57.34-.96.64-1.17.3-.21.57-.27.8-.18.23.09.38.32.43.68.05.36-.09.83-.43,1.4-.1.18-.21.36-.31.53-.1.17-.25.37-.43.6.16.68.36,1.4.62,2.16.26.77.47,1.55.64,2.36.17.81.24,1.59.21,2.34-.03.75-.25,1.44-.66,2.07.81-.81,1.51-1.65,2.11-2.54.6-.88,1.23-1.78,1.91-2.69h.39ZM136.77,30.88c0,.16.01.31.04.47.03.16.05.34.08.55.13-.21.23-.38.31-.51.08-.13.16-.27.23-.43.26-.49.37-.87.33-1.13s-.14-.39-.29-.39-.32.12-.49.35c-.17.23-.24.6-.21,1.09Z"/>
</svg>