<svg xmlns="http://www.w3.org/2000/svg" id="Layer_1" data-name="Layer 1" viewBox="0 0 171.4 71.4"><defs><style>.cls-1{fill:currentColor}</style></defs><path d="M87.75,15.56c.36,0,.64.08.84.23.19.16.29.33.29.53s-.11.38-.33.55c-.22.17-.57.27-1.03.29-.34.03-.68.01-1.03-.04s-.7-.12-1.03-.2c-.88.57-1.76,1.33-2.63,2.26-.87.94-1.74,1.98-2.59,3.14-.86,1.16-1.7,2.39-2.53,3.69-.83,1.3-1.65,2.61-2.44,3.94-.79,1.33-1.57,2.63-2.32,3.9-.75,1.27-1.47,2.44-2.15,3.51-1.12,1.79-2.28,3.45-3.47,4.97-1.2,1.52-2.49,2.87-3.88,4.06-1.39,1.18-2.91,2.17-4.56,2.96-1.65.79-3.49,1.33-5.52,1.62-1.53.21-3.09.2-4.68-.04-1.59-.23-3.09-.67-4.52-1.31-1.43-.64-2.73-1.48-3.9-2.53-1.17-1.05-2.09-2.29-2.77-3.72-.57-1.2-.97-2.47-1.19-3.82-.22-1.35-.29-2.72-.19-4.09.09-1.38.34-2.74.74-4.1.4-1.35.93-2.64,1.58-3.86.78-1.48,1.74-2.87,2.89-4.15,1.14-1.29,2.42-2.39,3.82-3.32,1.4-.92,2.92-1.62,4.54-2.09,1.62-.47,3.32-.62,5.09-.47,2.11.18,3.89.79,5.36,1.83,1.47,1.04,2.6,2.35,3.39,3.94.79,1.59,1.23,3.36,1.33,5.32.09,1.96-.19,3.96-.84,5.99-.47,1.4-1.1,2.72-1.89,3.94-.79,1.22-1.73,2.28-2.81,3.16-1.08.88-2.29,1.57-3.63,2.05-1.34.48-2.79.68-4.35.6-1.07-.05-2.01-.25-2.83-.58-.82-.34-1.53-.78-2.13-1.33s-1.09-1.16-1.48-1.85c-.39-.69-.66-1.41-.82-2.16-.29-1.27-.3-2.59-.04-3.94.26-1.35.76-2.56,1.5-3.63.74-1.07,1.7-1.92,2.87-2.57,1.17-.65,2.52-.91,4.06-.78,1.14.1,2.08.43,2.81.97.73.55,1.27,1.2,1.64,1.97.36.77.55,1.57.55,2.42s-.16,1.61-.49,2.3c-.33.69-.81,1.25-1.44,1.7-.64.44-1.41.62-2.32.55.6-.36,1.1-.84,1.52-1.42.42-.58.73-1.21.94-1.89.21-.68.3-1.37.27-2.07-.03-.7-.17-1.34-.43-1.93s-.64-1.07-1.13-1.46c-.49-.39-1.12-.62-1.87-.7-1.04-.1-2,.16-2.87.78-.87.62-1.61,1.44-2.22,2.46-.61,1.01-1.06,2.16-1.35,3.43-.29,1.27-.36,2.51-.23,3.71.08.73.25,1.42.51,2.09.26.66.62,1.25,1.07,1.77.45.52,1,.94,1.64,1.27.64.33,1.38.5,2.24.53,1.4.05,2.69-.21,3.86-.8,1.17-.58,2.22-1.37,3.14-2.34s1.7-2.07,2.34-3.28c.64-1.21,1.14-2.41,1.5-3.61.47-1.64.71-3.36.72-5.17.01-1.81-.26-3.48-.82-5.03-.56-1.55-1.44-2.86-2.63-3.94-1.2-1.08-2.76-1.71-4.68-1.89-1.59-.16-3.09.03-4.52.57-1.43.53-2.76,1.28-4,2.24-1.24.96-2.34,2.08-3.31,3.35-.98,1.27-1.79,2.59-2.44,3.94-.55,1.17-1,2.39-1.37,3.67-.36,1.27-.62,2.55-.76,3.82-.14,1.27-.17,2.52-.08,3.74.09,1.22.32,2.37.68,3.43.47,1.43,1.21,2.71,2.22,3.84,1.01,1.13,2.18,2.04,3.51,2.73,1.33.69,2.74,1.13,4.25,1.33,1.51.2,2.99.08,4.45-.33,1.59-.47,3.03-1.12,4.33-1.97,1.3-.85,2.52-1.85,3.67-3,1.14-1.16,2.24-2.45,3.3-3.88,1.05-1.43,2.11-2.96,3.18-4.6,1.12-1.69,2.32-3.5,3.61-5.44,1.29-1.94,2.63-3.83,4.04-5.67,1.4-1.85,2.86-3.56,4.37-5.13,1.51-1.57,3.04-2.84,4.6-3.8-1.27-.34-2.61-.6-4.02-.8-1.4-.2-2.8-.21-4.17-.06-1.09.13-2.09.44-2.98.92-.9.48-1.69,1.08-2.38,1.79-.69.72-1.25,1.54-1.68,2.48-.43.94-.7,1.92-.8,2.96-.05.73-.03,1.45.06,2.16.09.72.28,1.41.57,2.09-.86-.21-1.5-.69-1.93-1.44-.43-.75-.62-1.62-.57-2.61.08-1.17.41-2.25.99-3.26s1.33-1.88,2.22-2.63,1.9-1.37,3.02-1.83c1.12-.47,2.24-.77,3.35-.9,1.46-.16,2.89-.14,4.31.06,1.42.2,2.85.49,4.31.88.49-.26,1-.48,1.52-.66s1.01-.27,1.48-.27ZM87.51,16.93c.36-.03.64-.09.82-.2.18-.1.28-.22.29-.35.01-.13-.05-.25-.2-.37-.14-.12-.36-.18-.64-.18s-.61.08-.98.23c-.36.16-.73.38-1.09.66.29.05.58.1.9.16.31.05.61.07.9.04Z" class="cls-1"/><path d="M97.81,36.7c-.31.39-.77.98-1.37,1.77-.6.79-1.25,1.59-1.97,2.38-.72.79-1.45,1.48-2.2,2.07s-1.44.88-2.07.88c-.39,0-.72-.12-.98-.37s-.44-.54-.55-.88c-.18-.57-.15-1.19.1-1.85s.58-1.33.99-1.99.86-1.3,1.33-1.91c.47-.61.84-1.18,1.13-1.7.08-.1.14-.25.2-.45.05-.2.07-.38.06-.57-.01-.18-.07-.34-.16-.49s-.25-.23-.49-.25c-.47-.05-.99.1-1.56.47-.57.37-1.18.85-1.81,1.44-.64.6-1.27,1.28-1.91,2.05s-1.24,1.53-1.81,2.28c-.57.75-1.1,1.48-1.58,2.16-.48.69-.86,1.24-1.15,1.66-.36.03-.65.04-.86.06-.21.01-.4.04-.58.08-.18.04-.39.1-.62.2-.23.09-.55.21-.94.37.6-.8,1.18-1.59,1.74-2.36.56-.77,1.14-1.55,1.74-2.36.21-.29.48-.66.82-1.11.34-.45.68-.92,1.01-1.4.34-.48.64-.95.9-1.4.26-.46.42-.81.47-1.07.05-.26.03-.49-.06-.7-.09-.21-.28-.34-.57-.39-.47-.05-.99.11-1.58.49-.58.38-1.2.87-1.83,1.46-.64.6-1.27,1.28-1.91,2.05s-1.25,1.53-1.83,2.28-1.12,1.48-1.6,2.16c-.48.69-.86,1.24-1.15,1.66-.36.03-.66.05-.88.08-.22.03-.42.06-.6.1-.18.04-.38.1-.6.18-.22.08-.53.2-.92.35.1-.16.36-.49.76-.99.4-.51.86-1.1,1.38-1.79.52-.69,1.07-1.44,1.66-2.24s1.12-1.57,1.6-2.3c.48-.73.88-1.38,1.21-1.95.32-.57.49-.98.49-1.21,0-.13-.05-.2-.16-.2-.16,0-.4.15-.74.45-.34.3-.69.64-1.05,1.03-.36.39-.7.77-1.01,1.15s-.53.64-.66.8h-.43c.13-.18.34-.45.62-.8.29-.35.6-.71.96-1.09.35-.38.7-.73,1.05-1.07.35-.34.67-.58.96-.74.23-.13.46-.17.68-.12.22.05.4.21.53.47.13.29.14.67.02,1.15-.12.48-.29.97-.51,1.48-.22.51-.46.98-.7,1.42-.25.44-.45.78-.6,1.01.52-.65,1.08-1.32,1.68-2.01.6-.69,1.2-1.31,1.79-1.85.6-.55,1.2-.99,1.79-1.33.6-.34,1.17-.49,1.72-.47.6.05,1.04.27,1.33.64.29.38.45.79.51,1.23.03.52-.07,1.08-.27,1.68.42-.49.85-.96,1.31-1.38.46-.43.9-.81,1.35-1.15.44-.34.88-.6,1.33-.78.44-.18.86-.26,1.25-.23.6.05,1.04.27,1.33.64.29.38.45.79.51,1.23.08.68-.05,1.33-.39,1.97-.34.64-.73,1.26-1.19,1.87-.46.61-.92,1.22-1.38,1.81-.47.6-.79,1.18-.98,1.75-.13.34-.16.62-.1.84.07.22.23.34.49.37.44.05.99-.18,1.64-.7.65-.52,1.32-1.14,2.01-1.87.69-.73,1.34-1.48,1.97-2.26.62-.78,1.13-1.4,1.52-1.87h.43Z" class="cls-1"/><path d="M109.98,36.7c-.68.83-1.25,1.53-1.72,2.09-.47.56-.92,1.01-1.37,1.35-.44.34-.92.58-1.44.72-.52.14-1.16.23-1.91.25-.62.81-1.38,1.47-2.26,1.99-.88.52-1.86.77-2.92.74-.55,0-1-.1-1.37-.31-.36-.21-.6-.45-.72-.72-.12-.27-.1-.56.04-.86.14-.3.42-.55.84-.76.6-.31,1.29-.47,2.07-.49.78-.01,1.49,0,2.14.06.49-.6.94-1.21,1.33-1.85.39-.64.73-1.29,1.01-1.97.36-.91.57-1.69.62-2.34.05-.65-.13-1.03-.55-1.13-.36-.13-.83,0-1.4.39-.57.39-1.16.92-1.75,1.6-.65.75-1.25,1.53-1.81,2.32-.56.79-1.14,1.64-1.74,2.55-1.2,1.79-2.38,3.59-3.57,5.38-1.18,1.79-2.4,3.59-3.65,5.38h-.82c-.18,0-.35.01-.51.04-.16.03-.34.08-.55.16-.21.08-.52.17-.94.27.68-.88,1.4-1.9,2.16-3.06.77-1.16,1.57-2.37,2.42-3.63.85-1.26,1.7-2.54,2.57-3.82.87-1.29,1.75-2.52,2.63-3.69.47-.62,1.03-1.35,1.68-2.18.65-.83,1.36-1.6,2.12-2.32.77-.71,1.57-1.31,2.42-1.79.84-.48,1.7-.68,2.55-.6-.39.05-.8.21-1.23.49-.43.27-.84.6-1.25.99-.4.39-.79.81-1.15,1.25-.36.44-.66.83-.9,1.17.36-.34.8-.66,1.31-.97.51-.31,1.02-.44,1.54-.39.44.05.81.19,1.09.41.29.22.49.51.62.88s.19.79.18,1.27c-.01.48-.08.98-.21,1.5-.18.65-.43,1.3-.74,1.95-.31.65-.66,1.25-1.05,1.79.62-.03,1.16-.12,1.62-.27.46-.16.88-.39,1.29-.7.4-.31.83-.72,1.27-1.23.44-.51.96-1.14,1.56-1.89h.43ZM97.61,43.1c.42.05.91-.07,1.48-.37.57-.3,1.23-.85,1.99-1.66-.23,0-.52,0-.86-.02-.34-.01-.68,0-1.03.02-.35.03-.7.07-1.03.14-.34.07-.61.15-.82.25-.44.26-.66.58-.66.97s.31.61.94.66Z" class="cls-1"/><path d="M123.39,36.7c-.1.13-.2.25-.27.35-.08.1-.17.21-.27.31-.34.44-.79,1.02-1.37,1.74-.57.71-1.19,1.42-1.85,2.12s-1.33,1.31-2.01,1.81-1.29.76-1.83.76c-.31,0-.57-.08-.78-.23-.21-.16-.37-.34-.49-.57-.12-.22-.2-.47-.23-.74-.04-.27-.03-.53.02-.76.1-.55.32-1.2.66-1.95-.36.49-.76,1-1.19,1.52-.43.52-.87.99-1.33,1.4-.46.42-.92.75-1.38,1.01s-.92.36-1.37.31c-.78-.05-1.3-.38-1.56-.99s-.33-1.35-.2-2.2c.13-.86.43-1.77.9-2.73s1.05-1.83,1.74-2.59c.69-.77,1.46-1.37,2.3-1.81.84-.44,1.72-.57,2.63-.39.73.13,1.21.44,1.44.94.23.49.32,1.03.27,1.6.55-.8,1.05-1.55,1.52-2.22h.82c.18,0,.35-.01.51-.04.16-.03.33-.07.53-.14.19-.06.5-.16.92-.29-.47.6-1,1.31-1.6,2.12-.6.82-1.19,1.65-1.77,2.5-.58.85-1.12,1.64-1.6,2.38-.48.74-.81,1.33-.99,1.77-.05.13-.11.29-.18.49-.07.19-.1.38-.1.57s.04.34.14.47c.09.13.27.2.53.2.44,0,.98-.25,1.6-.74s1.25-1.08,1.89-1.75c.64-.68,1.23-1.36,1.78-2.05.55-.69.97-1.21,1.29-1.58l.47-.58h.43ZM109.78,43.37c.49.1,1.08-.12,1.75-.66s1.35-1.2,2.01-1.97c.66-.77,1.28-1.56,1.85-2.38.57-.82,1-1.45,1.29-1.89.08-.26.14-.54.18-.84.04-.3.03-.58-.04-.86-.07-.27-.18-.51-.33-.7-.16-.2-.39-.32-.7-.37-.44-.08-.96.09-1.54.51s-1.17.97-1.75,1.68-1.13,1.47-1.64,2.3c-.51.83-.91,1.62-1.21,2.38-.3.75-.46,1.39-.47,1.91-.01.52.19.82.6.9Z" class="cls-1"/><path d="M133.22,36.7c-.36.47-.81,1.03-1.35,1.68-.53.65-1.1,1.29-1.7,1.91-.47.49-.94.97-1.42,1.42-.48.46-.97.85-1.48,1.19-.51.34-1.02.59-1.54.76-.52.17-1.04.21-1.56.14-.96-.13-1.63-.51-2.01-1.13s-.54-1.37-.49-2.22c.05-.86.29-1.76.7-2.69.42-.94.96-1.78,1.62-2.54.66-.75,1.4-1.34,2.22-1.75.82-.42,1.66-.55,2.52-.39.44.08.8.23,1.07.47.27.23.46.52.57.86.1.34.14.7.12,1.07-.03.38-.12.73-.27,1.07-.44-.05-.81,0-1.09.14-.29.14-.58.28-.9.41.13-.18.31-.45.53-.82.22-.36.41-.73.57-1.11.16-.38.23-.71.21-1.01-.01-.3-.19-.47-.53-.53-.42-.08-.9.08-1.46.49-.56.4-1.11.95-1.66,1.64-.55.69-1.04,1.44-1.48,2.26-.44.82-.76,1.61-.96,2.36s-.22,1.4-.08,1.95c.14.55.54.88,1.19,1.01.36.08.76.04,1.19-.12s.88-.39,1.35-.7c.47-.31.94-.68,1.4-1.11.47-.43.92-.88,1.36-1.35.6-.6,1.16-1.21,1.7-1.83.53-.62.94-1.13,1.23-1.52h.43Z" class="cls-1"/><path d="M140.71,31.94c0,.1-.08.16-.23.16h-2.3c-.52.73-1.03,1.45-1.54,2.17s-1.02,1.44-1.54,2.16c-.23.31-.53.72-.88,1.23-.35.51-.7,1.03-1.05,1.58-.35.55-.67,1.08-.96,1.6-.29.52-.48.96-.58,1.33-.08.29-.1.55-.06.8.04.25.24.37.6.37.44,0,.98-.25,1.62-.74.64-.49,1.28-1.08,1.93-1.75.65-.68,1.25-1.35,1.81-2.03.56-.68,1-1.21,1.31-1.6.08-.1.16-.21.25-.31.09-.1.16-.18.21-.23h.39c-.08.1-.16.21-.25.31-.09.1-.17.22-.25.35-.34.42-.8.99-1.38,1.72s-1.22,1.44-1.89,2.14c-.68.7-1.35,1.31-2.03,1.81s-1.29.76-1.83.76c-.47-.03-.82-.2-1.07-.53-.25-.33-.4-.68-.45-1.07-.05-.49.05-1.09.31-1.79.26-.7.58-1.4.98-2.11.39-.7.79-1.37,1.21-2.01.42-.64.77-1.16,1.05-1.58.31-.44.62-.88.92-1.31.3-.43.59-.86.88-1.31l-2.14-.04c-.13,0-.19-.05-.18-.16.01-.1.08-.16.21-.16h2.34c.36-.52.72-1.03,1.07-1.54.35-.51.71-1.02,1.07-1.54h.82c.18,0,.35-.01.51-.04.16-.03.34-.07.55-.14.21-.06.52-.16.94-.29-.44.6-.88,1.2-1.33,1.79-.44.6-.88,1.2-1.33,1.79l2.11.04c.13,0,.19.05.19.16Z" class="cls-1"/></svg>