<svg xmlns="http://www.w3.org/2000/svg" id="Layer_1" data-name="Layer 1" viewBox="0 0 171.4 71.4"><defs><style>.cls-1{fill:currentColor}</style></defs><path d="M101.59,12.68c1.07.21,1.92.56,2.57,1.05.65.49,1.09,1.04,1.31,1.64s.24,1.2.06,1.81-.55,1.15-1.11,1.62c-.56.47-1.31.81-2.24,1.03-.94.22-2.04.23-3.32.02-1.43-.21-2.94-.59-4.54-1.15-1.6-.56-3.1-1.14-4.5-1.74-1.14.96-2.3,2.18-3.47,3.65-1.17,1.47-2.29,3.02-3.37,4.64-1.08,1.63-2.09,3.24-3.04,4.84-.95,1.6-1.79,3-2.52,4.19-1.3,2.13-2.6,4.14-3.9,6.03-1.3,1.88-2.7,3.56-4.21,5.03-1.51,1.47-3.17,2.69-4.97,3.67-1.81.98-3.85,1.63-6.14,1.97-1.53.21-3.09.2-4.68-.02s-3.09-.65-4.52-1.29c-1.43-.64-2.73-1.48-3.9-2.52s-2.09-2.28-2.77-3.7c-.57-1.2-.97-2.47-1.19-3.82-.22-1.35-.29-2.72-.19-4.11.09-1.39.34-2.77.74-4.13.4-1.36.93-2.66,1.58-3.88.78-1.48,1.74-2.87,2.89-4.15,1.14-1.29,2.42-2.39,3.82-3.3s2.92-1.59,4.54-2.05c1.62-.45,3.32-.6,5.09-.45,2.08.18,3.83.74,5.27,1.68.81-1.2,1.87-2.24,3.2-3.12,1.69-1.14,3.42-1.92,5.19-2.32,1.77-.4,3.55-.55,5.34-.45,1.79.1,3.59.4,5.4.9s3.59,1.07,5.36,1.72c.86-.6,1.78-1.14,2.77-1.64.99-.49,2.01-.9,3.06-1.21,1.05-.31,2.12-.51,3.2-.6,1.08-.09,2.15-.03,3.22.18ZM74.92,33.31c.78-1.2,1.71-2.59,2.79-4.17,1.08-1.59,2.24-3.17,3.47-4.76,1.23-1.59,2.5-3.09,3.78-4.5,1.29-1.42,2.52-2.55,3.69-3.41-1.59-.65-3.25-1.24-4.99-1.77-1.74-.53-3.49-.85-5.25-.96-1.76-.1-3.46.07-5.13.51-1.66.44-3.21,1.31-4.64,2.61-1.04.96-1.9,2.08-2.57,3.35.91.86,1.64,1.85,2.2,2.96.56,1.12.95,2.31,1.17,3.57.22,1.26.28,2.56.18,3.9-.1,1.34-.36,2.65-.78,3.92-.47,1.4-1.1,2.72-1.89,3.94-.79,1.22-1.73,2.28-2.81,3.16-1.08.88-2.29,1.57-3.63,2.05-1.34.48-2.79.68-4.35.6-1.07-.05-2.01-.25-2.83-.58s-1.53-.78-2.13-1.33c-.6-.55-1.09-1.16-1.48-1.85-.39-.69-.66-1.41-.82-2.16-.29-1.27-.3-2.59-.04-3.94.26-1.35.76-2.56,1.5-3.63.74-1.07,1.7-1.92,2.87-2.57,1.17-.65,2.52-.91,4.06-.78,1.14.1,2.08.43,2.81.97.73.55,1.27,1.2,1.64,1.97.36.77.55,1.57.55,2.42s-.16,1.61-.49,2.3c-.33.69-.81,1.25-1.44,1.7-.64.44-1.41.62-2.32.55.6-.36,1.1-.84,1.52-1.42.42-.58.73-1.21.94-1.89.21-.68.3-1.37.27-2.07-.03-.7-.17-1.34-.43-1.93-.26-.58-.64-1.07-1.13-1.46-.49-.39-1.12-.62-1.87-.7-1.04-.1-2,.16-2.87.78s-1.61,1.44-2.22,2.46c-.61,1.01-1.06,2.16-1.35,3.43-.29,1.27-.36,2.51-.23,3.71.08.73.25,1.42.51,2.09.26.66.62,1.25,1.07,1.77.45.52,1,.94,1.64,1.27.64.33,1.38.5,2.24.53,1.4.05,2.69-.21,3.86-.8s2.22-1.37,3.14-2.34c.92-.97,1.7-2.07,2.34-3.28.64-1.21,1.14-2.41,1.5-3.61.34-1.12.57-2.25.68-3.41.12-1.16.12-2.29.02-3.39-.1-1.1-.33-2.16-.68-3.16s-.81-1.9-1.38-2.71c-.36.86-.62,1.74-.76,2.63-.14.9-.19,1.78-.14,2.65.05.87.21,1.71.49,2.52.27.81.66,1.55,1.15,2.22-.86-.16-1.57-.61-2.15-1.37-.57-.75-.96-1.66-1.17-2.73-.21-1.07-.2-2.24.02-3.51.22-1.27.68-2.51,1.38-3.71-1.27-1.14-2.9-1.79-4.88-1.95-1.59-.16-3.09.03-4.52.55-1.43.52-2.76,1.25-4,2.2-1.24.95-2.33,2.05-3.3,3.31-.96,1.26-1.77,2.57-2.42,3.92-.57,1.17-1.04,2.39-1.4,3.67-.36,1.27-.62,2.55-.76,3.84-.14,1.29-.17,2.55-.08,3.78.09,1.24.32,2.39.68,3.45.47,1.43,1.21,2.7,2.22,3.82,1.01,1.12,2.18,2.02,3.51,2.71,1.33.69,2.74,1.12,4.25,1.31,1.51.18,2.99.06,4.45-.35,1.85-.55,3.51-1.35,4.99-2.42s2.87-2.33,4.17-3.8c1.3-1.47,2.56-3.11,3.78-4.91,1.22-1.81,2.48-3.72,3.78-5.75ZM99.14,18.72c1.25.18,2.3.2,3.16.04.86-.16,1.52-.42,1.99-.78.47-.36.75-.79.84-1.29.09-.49.02-.98-.21-1.46-.23-.48-.64-.92-1.23-1.33-.58-.4-1.32-.7-2.2-.88-.86-.18-1.79-.21-2.81-.1-1.01.12-2.01.34-3,.66s-1.93.73-2.83,1.23c-.9.49-1.67,1.01-2.32,1.56,1.25.44,2.64.89,4.17,1.35,1.53.46,3.02.79,4.45.99Z" class="cls-1"/><path d="M86.85,36.7c-.1.13-.2.25-.27.35-.08.1-.17.21-.27.31-.34.44-.79,1.02-1.36,1.74-.57.71-1.19,1.42-1.85,2.12s-1.33,1.31-2.01,1.81c-.68.51-1.29.76-1.83.76-.31,0-.57-.08-.78-.23-.21-.16-.37-.35-.49-.58-.12-.23-.2-.49-.23-.76-.04-.27-.03-.53.02-.76.1-.55.33-1.18.66-1.89.34-.71.73-1.44,1.17-2.18.44-.74.89-1.46,1.35-2.17.45-.7.86-1.31,1.23-1.83h.82c.18,0,.35-.01.51-.04.16-.03.34-.07.55-.14.21-.06.52-.16.94-.29-.47.6-1,1.31-1.6,2.12-.6.82-1.19,1.65-1.77,2.5-.58.85-1.12,1.64-1.6,2.38-.48.74-.81,1.33-.99,1.77-.05.13-.11.29-.18.49-.06.19-.1.38-.1.57s.05.34.14.47c.09.13.25.2.49.2.44,0,.98-.25,1.62-.74.64-.49,1.27-1.08,1.91-1.75.64-.68,1.23-1.36,1.77-2.05.55-.69.98-1.21,1.29-1.58l.47-.58h.43ZM83.3,32.57c-.23-.16-.37-.39-.41-.7-.04-.31.04-.61.25-.9.21-.29.46-.47.76-.55.3-.08.57-.04.8.12.23.16.36.39.39.7.03.31-.06.61-.27.9-.21.29-.46.47-.74.55-.29.08-.55.04-.78-.12Z" class="cls-1"/><path d="M96.68,36.7c-.36.47-.81,1.03-1.34,1.68-.53.65-1.1,1.29-1.7,1.91-.47.49-.94.97-1.42,1.42-.48.46-.98.85-1.48,1.19-.51.34-1.02.59-1.54.76-.52.17-1.04.21-1.56.14-.96-.13-1.63-.51-2.01-1.13-.38-.62-.54-1.37-.49-2.22.05-.86.29-1.76.7-2.69.42-.94.96-1.78,1.62-2.54.66-.75,1.4-1.34,2.22-1.75.82-.42,1.66-.55,2.52-.39.44.08.8.23,1.07.47.27.23.46.52.57.86.1.34.14.7.12,1.07-.03.38-.12.73-.27,1.07-.44-.05-.81,0-1.09.14s-.58.28-.9.41c.13-.18.3-.45.53-.82.22-.36.41-.73.57-1.11.16-.38.23-.71.21-1.01-.01-.3-.19-.47-.53-.53-.42-.08-.9.08-1.46.49-.56.4-1.11.95-1.66,1.64-.55.69-1.04,1.44-1.48,2.26-.44.82-.76,1.61-.96,2.36s-.22,1.4-.08,1.95c.14.55.54.88,1.19,1.01.36.08.76.04,1.19-.12.43-.16.88-.39,1.34-.7.47-.31.94-.68,1.4-1.11s.92-.88,1.37-1.35c.6-.6,1.16-1.21,1.7-1.83.53-.62.94-1.13,1.23-1.52h.43Z" class="cls-1"/><path d="M109.71,28.2c-.34.57-.86,1.09-1.56,1.56s-1.47.89-2.3,1.27-1.67.71-2.52.99c-.84.29-1.57.52-2.16.7-.52.78-1.03,1.56-1.54,2.34-.51.78-1.01,1.55-1.5,2.3.13-.18.25-.35.37-.51.12-.16.24-.31.37-.47.23-.29.53-.62.88-1.01.35-.39.73-.76,1.13-1.11.4-.35.82-.65,1.25-.9s.84-.37,1.23-.37c.49,0,.92.12,1.27.37s.6.56.76.94c.16.38.21.77.17,1.19s-.19.79-.47,1.13c-.27.34-.66.61-1.17.82-.51.21-1.14.27-1.89.2.42.36.64.75.66,1.15.03.4-.03.81-.18,1.21-.14.4-.33.79-.57,1.17-.23.38-.4.72-.51,1.03-.1.34-.11.62-.02.84.09.22.25.34.49.37.34.03.72-.08,1.15-.33.43-.25.87-.58,1.33-.99s.91-.88,1.37-1.4c.46-.52.88-1.03,1.29-1.54.4-.51.77-.98,1.09-1.42.33-.44.58-.78.76-1.01h.43c-.36.44-.83,1.06-1.4,1.85-.57.79-1.2,1.58-1.89,2.36-.69.78-1.39,1.46-2.11,2.03-.71.57-1.38.86-2.01.86-.44,0-.84-.14-1.19-.43-.35-.29-.58-.65-.68-1.09-.13-.44-.12-.9.02-1.36s.32-.9.53-1.29c.08-.18.16-.39.25-.62.09-.23.16-.47.21-.7.05-.23.06-.45.04-.66-.03-.21-.12-.38-.27-.51.91.08,1.59-.06,2.05-.41.45-.35.75-.76.88-1.23.13-.47.12-.91-.02-1.33s-.37-.64-.68-.66c-.26-.03-.55.06-.88.25-.33.2-.66.45-.99.76-.34.31-.68.66-1.01,1.03s-.64.72-.9,1.03c-.94,1.14-1.81,2.26-2.63,3.33-.82,1.08-1.63,2.24-2.44,3.49-.36.03-.64.05-.84.08-.19.03-.37.06-.53.1-.16.04-.34.1-.57.2-.22.09-.53.21-.92.37.57-.81,1.24-1.81,2.01-3,.77-1.2,1.59-2.46,2.46-3.78.87-1.33,1.79-2.66,2.75-4,.96-1.34,1.93-2.57,2.91-3.69.98-1.12,1.94-2.07,2.91-2.87s1.88-1.29,2.77-1.5c.6-.16,1.11-.17,1.54-.04.43.13.76.35,1,.64.23.3.36.65.37,1.05.01.4-.1.81-.33,1.23ZM107.4,25.9c-.52.18-1.06.53-1.62,1.05-.56.52-1.11,1.1-1.64,1.74-.53.64-1.03,1.29-1.5,1.95s-.86,1.21-1.17,1.66c.55-.18,1.21-.41,1.99-.68s1.56-.59,2.34-.96,1.5-.77,2.14-1.21c.65-.44,1.12-.91,1.4-1.4.21-.36.31-.71.29-1.03-.01-.33-.11-.6-.29-.82s-.44-.36-.78-.43c-.34-.07-.73-.02-1.17.14Z" class="cls-1"/><path d="M119.14,36.7c-.36.47-.81,1.03-1.35,1.68-.53.65-1.1,1.29-1.7,1.91-.47.49-.94.97-1.42,1.42-.48.46-.97.85-1.48,1.19-.51.34-1.02.59-1.54.76-.52.17-1.04.21-1.56.14-.91-.13-1.56-.49-1.95-1.07s-.58-1.28-.57-2.09c.01-.81.21-1.66.58-2.57.38-.91.87-1.74,1.48-2.5.61-.75,1.3-1.38,2.07-1.87.77-.49,1.57-.73,2.4-.7.55.03.98.14,1.29.35.31.21.53.46.64.76s.14.62.06.96c-.08.34-.25.66-.51.98-.39.47-.99.82-1.79,1.05-.81.23-1.75.2-2.85-.12-.42.65-.78,1.33-1.09,2.03-.31.7-.51,1.36-.6,1.97-.09.61-.05,1.12.14,1.54.18.42.55.68,1.09.78.36.08.76.04,1.19-.12s.88-.38,1.35-.68c.47-.3.94-.66,1.4-1.09.47-.43.92-.88,1.36-1.35.6-.6,1.16-1.21,1.7-1.83.53-.62.94-1.13,1.23-1.52h.43ZM114.74,33.62c-.55-.03-1.13.26-1.75.86-.62.6-1.24,1.33-1.83,2.18,1.04.26,1.9.29,2.59.08.69-.21,1.21-.52,1.58-.94.18-.23.31-.47.37-.72.06-.25.08-.47.04-.68-.04-.21-.14-.39-.31-.55-.17-.16-.4-.23-.68-.23Z" class="cls-1"/><path d="M126.63,31.94c0,.1-.08.16-.23.16h-2.3c-.52.73-1.03,1.45-1.54,2.17-.51.71-1.02,1.44-1.54,2.16-.23.31-.53.72-.88,1.23-.35.51-.7,1.03-1.05,1.58-.35.55-.67,1.08-.96,1.6-.29.52-.48.96-.58,1.33-.08.29-.1.55-.06.8.04.25.24.37.6.37.44,0,.98-.25,1.62-.74.64-.49,1.28-1.08,1.93-1.75.65-.68,1.25-1.35,1.81-2.03.56-.68.99-1.21,1.31-1.6.08-.1.16-.21.25-.31.09-.1.16-.18.21-.23h.39c-.08.1-.16.21-.25.31-.09.1-.18.22-.25.35-.34.42-.8.99-1.38,1.72-.58.73-1.21,1.44-1.89,2.14-.68.7-1.35,1.31-2.03,1.81-.68.51-1.29.76-1.83.76-.47-.03-.83-.2-1.07-.53s-.4-.68-.45-1.07c-.05-.49.05-1.09.31-1.79.26-.7.58-1.4.97-2.11.39-.7.79-1.37,1.21-2.01.42-.64.77-1.16,1.05-1.58.31-.44.62-.88.92-1.31s.59-.86.88-1.31l-2.15-.04c-.13,0-.19-.05-.18-.16.01-.1.08-.16.21-.16h2.34c.36-.52.72-1.03,1.07-1.54.35-.51.71-1.02,1.07-1.54h.82c.18,0,.35-.01.51-.04.16-.03.34-.07.55-.14.21-.06.52-.16.94-.29-.44.6-.88,1.2-1.33,1.79s-.88,1.2-1.33,1.79l2.11.04c.13,0,.2.05.2.16Z" class="cls-1"/><path d="M133.73,36.7c-.68.99-1.38,2.03-2.12,3.12-.74,1.09-1.57,2.03-2.48,2.81-1.07.91-2.33,1.37-3.78,1.37-.57,0-1.15-.1-1.74-.31s-1.03-.56-1.35-1.05c-.21-.31-.32-.64-.33-.99-.01-.35.04-.68.17-1,.13-.31.32-.58.57-.82.25-.23.53-.4.84-.51.34-.1.7-.14,1.07-.1.38.04.72.15,1.03.33.31.18.56.42.74.72s.26.66.23,1.07c-.03.18-.12.38-.27.58-.16.21-.4.29-.74.23.21-.34.29-.68.25-1.01-.04-.34-.16-.64-.35-.9-.2-.26-.45-.45-.76-.57-.31-.12-.66-.12-1.05-.02-.6.16-1.01.51-1.23,1.07-.22.56-.18,1.1.14,1.62.31.6.9.96,1.76,1.09.68.1,1.29-.03,1.83-.39.55-.36.97-.83,1.29-1.4.26-.47.44-.98.55-1.52.1-.55.16-1.1.16-1.66s-.03-1.12-.08-1.68c-.05-.56-.1-1.08-.16-1.58-.03-.21-.05-.42-.06-.62-.01-.21-.03-.42-.06-.62-.44.52-.84,1.01-1.19,1.46-.35.46-.72.92-1.11,1.38h-.43c.44-.55.88-1.09,1.31-1.64.43-.55.89-1.12,1.38-1.72-.03-.36-.05-.75-.06-1.17-.01-.42.02-.81.1-1.17.13-.57.34-.96.64-1.17.3-.21.57-.27.8-.18.23.09.38.32.43.68.05.36-.09.83-.43,1.4-.1.18-.21.36-.31.53-.1.17-.25.37-.43.6.16.68.36,1.4.62,2.16.26.77.47,1.55.64,2.36.17.81.24,1.59.21,2.34-.03.75-.25,1.44-.66,2.07.81-.81,1.51-1.65,2.11-2.54.6-.88,1.23-1.78,1.91-2.69h.39ZM128.31,31.59c0,.16.01.31.04.47.03.16.05.34.08.55.13-.21.23-.38.31-.51.08-.13.16-.27.23-.43.26-.49.37-.87.33-1.13s-.14-.39-.29-.39-.32.12-.49.35c-.17.23-.24.6-.21,1.09Z" class="cls-1"/></svg>