<svg id="Layer_1" data-name="Layer 1" xmlns="http://www.w3.org/2000/svg" viewBox="0 0 171.4 71.4">
<defs><style>.cls-1{fill:currentColor}</style></defs>
  <path class="cls-1" d="M101.88,12.52c1.27.1,2.29.39,3.06.86s1.29,1.02,1.58,1.66c.29.64.35,1.29.19,1.97-.16.68-.53,1.28-1.11,1.81-.58.53-1.37.94-2.36,1.21s-2.16.31-3.51.1c-1.43-.21-2.87-.62-4.33-1.25s-2.89-1.23-4.29-1.83c-.94.75-1.87,1.68-2.79,2.79-.92,1.11-1.83,2.28-2.71,3.53-.88,1.25-1.74,2.53-2.55,3.86s-1.59,2.59-2.32,3.78c.75.16,1.49.3,2.22.43.73.13,1.42.2,2.07.2.21-.44.45-.85.72-1.23s.58-.7.92-.96c.29-.21.56-.32.82-.33.26-.01.47.04.64.16.17.12.27.3.29.55.03.25-.05.53-.23.84-.26.42-.59.72-1,.92s-.84.32-1.31.37c-.34.75-.68,1.54-1.01,2.36-.34.82-.73,1.52-1.17,2.11-.44.58-.97.95-1.58,1.09-.61.14-1.36-.1-2.24-.72.7.08,1.31-.02,1.81-.29.51-.27.94-.64,1.31-1.11.36-.47.69-1,.98-1.6.29-.6.57-1.2.86-1.79-.65,0-1.34-.07-2.07-.21-.73-.14-1.47-.28-2.22-.41-1.25,2.11-2.54,4.25-3.88,6.42-1.34,2.17-2.83,4.17-4.47,5.99-1.64,1.82-3.48,3.38-5.54,4.68-2.05,1.3-4.42,2.15-7.1,2.54-1.53.21-3.09.2-4.68-.04-1.59-.23-3.09-.67-4.52-1.31-1.43-.64-2.73-1.48-3.9-2.53-1.17-1.05-2.09-2.29-2.77-3.72-.57-1.2-.97-2.47-1.19-3.82-.22-1.35-.29-2.72-.19-4.09.09-1.38.34-2.74.74-4.1.4-1.35.93-2.64,1.58-3.86.78-1.48,1.74-2.87,2.89-4.15,1.14-1.29,2.42-2.39,3.82-3.32,1.4-.92,2.92-1.62,4.54-2.09,1.62-.47,3.32-.62,5.09-.47,1.04.08,2,.27,2.87.58.87.31,1.67.7,2.4,1.17.81-1.2,1.86-2.24,3.16-3.12,1.72-1.14,3.46-1.92,5.23-2.32,1.77-.4,3.55-.55,5.34-.45,1.79.1,3.59.4,5.4.9,1.81.49,3.61,1.07,5.4,1.72,1.64-1.09,3.41-1.98,5.3-2.65,1.9-.68,3.83-.94,5.81-.78ZM78.29,30.5c.81-1.2,1.68-2.46,2.63-3.8.95-1.34,1.93-2.64,2.94-3.9,1.01-1.26,2.04-2.44,3.08-3.53,1.04-1.09,2.04-1.99,3-2.69-1.59-.65-3.25-1.25-4.99-1.79-1.74-.55-3.48-.88-5.23-1.01-1.74-.13-3.45.03-5.11.47-1.66.44-3.2,1.31-4.6,2.61-1.09.96-1.95,2.08-2.57,3.35.91.86,1.64,1.85,2.2,2.96.56,1.12.95,2.31,1.17,3.57.22,1.26.28,2.56.18,3.9-.1,1.34-.36,2.65-.78,3.92-.47,1.4-1.1,2.72-1.89,3.94s-1.73,2.28-2.81,3.16c-1.08.88-2.29,1.57-3.65,2.05-1.35.48-2.81.68-4.37.6-1.07-.05-2.01-.25-2.83-.58-.82-.34-1.53-.78-2.13-1.33-.6-.55-1.09-1.16-1.46-1.85-.38-.69-.66-1.41-.84-2.16-.29-1.27-.29-2.59-.02-3.94.27-1.35.78-2.56,1.52-3.63.74-1.07,1.7-1.92,2.87-2.57,1.17-.65,2.52-.91,4.06-.78,1.14.1,2.08.43,2.81.97.73.55,1.27,1.2,1.64,1.97.36.77.55,1.57.55,2.42s-.16,1.61-.49,2.3c-.33.69-.81,1.25-1.44,1.7-.64.44-1.41.62-2.32.55.6-.36,1.1-.84,1.52-1.42.42-.58.72-1.21.92-1.89.19-.68.28-1.37.25-2.07-.03-.7-.16-1.34-.41-1.93-.25-.58-.62-1.07-1.11-1.46-.49-.39-1.12-.62-1.87-.7-1.04-.1-2,.16-2.89.78s-1.62,1.44-2.22,2.46c-.6,1.01-1.04,2.16-1.33,3.43-.29,1.27-.36,2.51-.23,3.71.08.73.25,1.42.51,2.09.26.66.62,1.25,1.07,1.77.45.52,1,.94,1.64,1.27.64.33,1.38.5,2.24.53,1.4.05,2.69-.21,3.86-.8s2.22-1.37,3.14-2.34c.92-.97,1.7-2.07,2.34-3.28.64-1.21,1.14-2.41,1.5-3.61.31-1.12.53-2.25.64-3.41.12-1.16.12-2.29.02-3.39-.1-1.1-.33-2.16-.66-3.16s-.79-1.9-1.36-2.71c-.36.86-.62,1.74-.76,2.63-.14.9-.19,1.78-.14,2.65.05.87.21,1.71.49,2.52.27.81.66,1.55,1.15,2.22-.86-.16-1.57-.61-2.15-1.37s-.96-1.66-1.17-2.73c-.21-1.07-.21-2.24,0-3.51.21-1.27.66-2.51,1.37-3.71-.62-.57-1.34-1.03-2.15-1.38-.81-.35-1.7-.58-2.69-.68-1.59-.16-3.1.03-4.54.57-1.44.53-2.78,1.28-4,2.24-1.22.96-2.32,2.08-3.3,3.35-.98,1.27-1.79,2.59-2.44,3.94-.57,1.17-1.04,2.39-1.4,3.67-.36,1.27-.62,2.55-.76,3.82-.14,1.27-.17,2.52-.08,3.74.09,1.22.32,2.37.68,3.43.47,1.43,1.21,2.7,2.22,3.82,1.01,1.12,2.18,2.01,3.51,2.69,1.33.68,2.74,1.12,4.25,1.33,1.51.21,3,.12,4.48-.27,2.11-.57,4.02-1.56,5.75-2.96,1.73-1.4,3.33-3.01,4.82-4.82,1.48-1.81,2.86-3.72,4.13-5.73,1.27-2.01,2.5-3.91,3.67-5.67-.99-.05-1.92.03-2.81.23-.88.21-1.62.71-2.22,1.52.05-.68.23-1.2.55-1.58s.71-.64,1.19-.78c.48-.14,1.03-.2,1.66-.16s1.29.12,1.99.25ZM87.14,29.92c-.16.13-.33.34-.53.64-.19.3-.38.63-.57.99.36-.05.71-.16,1.05-.33.34-.17.61-.41.82-.72.26-.42.29-.7.08-.84-.21-.14-.49-.06-.86.25ZM100.01,18.53c1.33.21,2.44.22,3.33.04.9-.18,1.59-.47,2.09-.86.49-.39.78-.84.86-1.35s-.04-1.01-.35-1.5c-.31-.49-.81-.92-1.48-1.29s-1.52-.58-2.54-.66c-.83-.08-1.7-.03-2.59.14-.9.17-1.79.42-2.67.76-.88.34-1.73.74-2.54,1.19-.81.46-1.53.92-2.18,1.38,1.25.47,2.55.89,3.9,1.27s2.74.67,4.17.88Z"/>
  <path class="cls-1" d="M99.7,36.7c-.52.65-1.09,1.35-1.7,2.11-.61.75-1.28,1.35-2.01,1.79-.44.23-.88.34-1.33.31-.44-.03-.84-.22-1.21-.58-.29.44-.62.89-1.01,1.34-.39.46-.82.86-1.29,1.21-.47.35-.96.62-1.48.8s-1.07.21-1.64.08c-.39-.1-.73-.29-1.01-.55-.29-.26-.51-.57-.66-.94-.34-.78-.34-1.74-.02-2.87.33-1.13.85-2.2,1.58-3.22.73-1.01,1.59-1.84,2.59-2.48,1-.64,2.02-.85,3.06-.64.68.13,1.15.46,1.42.97.27.52.38,1.08.33,1.68-.05.7-.24,1.43-.57,2.18-.33.75-.7,1.44-1.11,2.07.29.36.62.55,1.01.57.39.01.78-.08,1.17-.29.68-.36,1.29-.9,1.85-1.6.56-.7,1.08-1.35,1.58-1.95h.43ZM92.92,38.81c-.03-.68.14-1.31.51-1.89s.87-.97,1.52-1.15c.05-.44,0-.88-.18-1.31-.17-.43-.51-.67-1.03-.72-.39-.05-.82.07-1.29.37-.47.3-.94.7-1.4,1.19-.47.49-.91,1.05-1.33,1.68s-.79,1.25-1.11,1.87-.59,1.21-.8,1.75-.31.99-.31,1.33c0,.29.05.55.16.78.1.23.29.42.55.55.47.21.95.22,1.44.04s.98-.46,1.44-.84c.47-.38.89-.79,1.27-1.25.38-.45.67-.85.88-1.19-.21-.36-.31-.77-.31-1.21Z"/>
  <path class="cls-1" d="M109.53,36.7c-.36.47-.81,1.03-1.34,1.68-.53.65-1.1,1.29-1.7,1.91-.47.49-.94.97-1.42,1.42-.48.46-.98.85-1.48,1.19-.51.34-1.02.59-1.54.76-.52.17-1.04.21-1.56.14-.96-.13-1.63-.51-2.01-1.13-.38-.62-.54-1.37-.49-2.22.05-.86.29-1.76.7-2.69.42-.94.96-1.78,1.62-2.54.66-.75,1.4-1.34,2.22-1.75.82-.42,1.66-.55,2.52-.39.44.08.8.23,1.07.47.27.23.46.52.57.86.1.34.14.7.12,1.07-.03.38-.12.73-.27,1.07-.44-.05-.81,0-1.09.14s-.58.28-.9.41c.13-.18.3-.45.53-.82.22-.36.41-.73.57-1.11.16-.38.23-.71.21-1.01-.01-.3-.19-.47-.53-.53-.42-.08-.9.08-1.46.49-.56.4-1.11.95-1.66,1.64-.55.69-1.04,1.44-1.48,2.26-.44.82-.76,1.61-.96,2.36-.19.75-.22,1.4-.08,1.95.14.55.54.88,1.19,1.01.36.08.76.04,1.19-.12.43-.16.88-.39,1.34-.7.47-.31.94-.68,1.4-1.11s.92-.88,1.37-1.35c.6-.6,1.16-1.21,1.7-1.83.53-.62.94-1.13,1.23-1.52h.43Z"/>
  <path class="cls-1" d="M124.82,36.7c-.39.42-.88,1.02-1.48,1.81s-1.25,1.59-1.95,2.38c-.7.79-1.41,1.48-2.13,2.05-.72.57-1.38.86-2.01.86-.31,0-.57-.08-.78-.23-.21-.16-.37-.34-.49-.57-.12-.22-.19-.47-.23-.74-.04-.27-.03-.53.02-.76.08-.44.21-.92.41-1.42s.44-1.03.72-1.58c-.31.44-.63.87-.96,1.29s-.66.82-.99,1.21c-.26.29-.53.59-.82.92-.29.33-.59.63-.92.92s-.68.52-1.05.7c-.38.18-.77.26-1.19.23-.55-.05-1.01-.27-1.4-.64s-.62-.76-.7-1.15c-.13-.7,0-1.42.37-2.16.38-.74.82-1.48,1.33-2.2.51-.73,1-1.41,1.48-2.05.48-.64.77-1.19.88-1.66.03-.08.03-.17,0-.29-.03-.12-.09-.18-.19-.18-.16,0-.39.15-.7.45-.31.3-.64.64-.99,1.03-.35.39-.68.77-.98,1.15s-.51.64-.64.8h-.43c.13-.16.32-.4.58-.72.26-.33.54-.67.84-1.03.3-.36.61-.71.94-1.05s.63-.6.92-.78c.29-.21.59-.28.92-.21.33.06.55.31.68.72.16.57.09,1.22-.2,1.93-.29.72-.64,1.44-1.07,2.18-.43.74-.86,1.46-1.29,2.14-.43.69-.71,1.27-.84,1.74-.08.29-.08.6,0,.94.08.34.3.53.66.58.31.03.63-.04.96-.21.32-.17.64-.39.96-.66.31-.27.6-.56.86-.86.26-.3.49-.57.7-.8.73-.81,1.43-1.66,2.11-2.57.6-.78,1.18-1.57,1.75-2.36.57-.79,1.14-1.61,1.72-2.44h.82c.18,0,.35-.01.51-.04.16-.03.34-.07.55-.14.21-.06.51-.16.9-.29-.47.6-1,1.31-1.6,2.12-.6.82-1.19,1.65-1.77,2.5-.59.85-1.11,1.64-1.58,2.38-.47.74-.81,1.33-1.01,1.77-.05.13-.1.29-.16.49-.05.19-.08.38-.08.57s.04.34.14.47c.09.13.25.2.49.2.49,0,1.08-.28,1.75-.84.68-.56,1.35-1.21,2.03-1.95.68-.74,1.31-1.49,1.89-2.24s1.03-1.31,1.35-1.68h.43Z"/>
  <path class="cls-1" d="M132.93,36.7c-.68.99-1.38,2.03-2.13,3.12-.74,1.09-1.57,2.03-2.48,2.81-1.07.91-2.33,1.37-3.78,1.37-.57,0-1.15-.1-1.74-.31s-1.03-.56-1.35-1.05c-.21-.31-.32-.64-.33-.99-.01-.35.05-.68.18-1,.13-.31.32-.58.57-.82.25-.23.53-.4.84-.51.34-.1.7-.14,1.07-.1.38.04.72.15,1.03.33.31.18.56.42.74.72.18.3.26.66.23,1.07-.03.18-.12.38-.27.58s-.4.29-.74.23c.21-.34.29-.68.25-1.01-.04-.34-.16-.64-.35-.9-.19-.26-.45-.45-.76-.57-.31-.12-.66-.12-1.05-.02-.6.16-1.01.51-1.23,1.07-.22.56-.18,1.1.14,1.62.31.6.9.96,1.75,1.09.68.1,1.29-.03,1.83-.39.55-.36.97-.83,1.29-1.4.26-.47.44-.98.55-1.52.1-.55.16-1.1.16-1.66s-.03-1.12-.08-1.68c-.05-.56-.1-1.08-.16-1.58-.03-.21-.05-.42-.06-.62-.01-.21-.03-.42-.06-.62-.44.52-.84,1.01-1.19,1.46-.35.46-.72.92-1.11,1.38h-.43c.44-.55.88-1.09,1.31-1.64.43-.55.89-1.12,1.38-1.72-.03-.36-.04-.75-.06-1.17-.01-.42.02-.81.1-1.17.13-.57.34-.96.64-1.17s.57-.27.8-.18c.23.09.38.32.43.68s-.09.83-.43,1.4c-.1.18-.21.36-.31.53-.1.17-.25.37-.43.6.16.68.36,1.4.62,2.16.26.77.47,1.55.64,2.36.17.81.24,1.59.21,2.34-.03.75-.25,1.44-.66,2.07.81-.81,1.51-1.65,2.11-2.54.6-.88,1.24-1.78,1.91-2.69h.39ZM127.51,31.59c0,.16.01.31.04.47.03.16.05.34.08.55.13-.21.23-.38.31-.51.08-.13.16-.27.23-.43.26-.49.37-.87.33-1.13s-.14-.39-.29-.39-.32.12-.49.35c-.17.23-.24.6-.21,1.09Z"/>
</svg>