<?xml version="1.0" encoding="UTF-8"?>
<svg id="Layer_1" data-name="Layer 1" xmlns="http://www.w3.org/2000/svg" xmlns:xlink="http://www.w3.org/1999/xlink" viewBox="0 0 497.07 311.72">
  <defs>
    <style>
      .cls-1 {
        fill: url(#linear-gradient);
      }

      .cls-1, .cls-2, .cls-3, .cls-4, .cls-5, .cls-6, .cls-7 {
        stroke-width: 0px;
      }

      .cls-2 {
        fill: none;
      }

      .cls-3 {
        fill: #3d4f7a;
      }

      .cls-4 {
        fill: url(#linear-gradient-2);
      }

      .cls-5 {
        fill: #002856;
      }

      .cls-6 {
        fill: url(#linear-gradient-3);
      }

      .cls-8 {
        clip-path: url(#clippath);
      }

      .cls-7 {
        fill: #fff;
      }
    </style>
    <linearGradient id="linear-gradient" x1="198.64" y1="49" x2="300.13" y2="49" gradientUnits="userSpaceOnUse">
      <stop offset="0" stop-color="#7a7a7a"/>
      <stop offset=".08" stop-color="#919192"/>
      <stop offset=".19" stop-color="#a8a9aa"/>
      <stop offset=".31" stop-color="#babcbc"/>
      <stop offset=".45" stop-color="#c7c9ca"/>
      <stop offset=".63" stop-color="#ced0d1"/>
      <stop offset="1" stop-color="#d1d3d4"/>
    </linearGradient>
    <linearGradient id="linear-gradient-2" x1="337.87" y1="197.13" x2="337.87" y2="26.95" gradientUnits="userSpaceOnUse">
      <stop offset="0" stop-color="#7a7a7a"/>
      <stop offset="0" stop-color="#7e7e7e"/>
      <stop offset=".08" stop-color="#979898"/>
      <stop offset=".16" stop-color="#acaeae"/>
      <stop offset=".26" stop-color="#bdbebf"/>
      <stop offset=".38" stop-color="#c8cacb"/>
      <stop offset=".54" stop-color="#cfd1d2"/>
      <stop offset="1" stop-color="#d1d3d4"/>
    </linearGradient>
    <linearGradient id="linear-gradient-3" x1="46.36" y1="123.77" x2="368.84" y2="123.77" gradientUnits="userSpaceOnUse">
      <stop offset="0" stop-color="#868586"/>
      <stop offset=".15" stop-color="#9e9e9f"/>
      <stop offset=".33" stop-color="#b4b5b6"/>
      <stop offset=".52" stop-color="#c4c6c7"/>
      <stop offset=".73" stop-color="#cdcfd0"/>
      <stop offset="1" stop-color="#d1d3d4"/>
    </linearGradient>
    <clipPath id="clippath">
      <path class="cls-2" d="M51.85,65.86c0,13.18,10.69,23.87,23.87,23.87s23.87-10.69,23.87-23.87-10.69-23.87-23.87-23.87-23.87,10.69-23.87,23.87"/>
    </clipPath>
  </defs>
  <g style="opacity:.75">
    <path class="cls-3" d="M285.12,117.68c4.88-1.13,10.1-1.87,15.67-2.21,5.56-.34,11.24-.17,17.03.51,5.79.68,11.61,1.96,17.45,3.83,5.84,1.87,11.49,4.51,16.94,7.92-10.22-5.11-20.94-8.48-32.18-10.13-11.24-1.64-22.42-.82-33.54,2.47-11.58,3.52-21.6,8.15-30.05,13.88-8.46,5.73-16.09,12.46-22.9,20.18-4.77,5.34-9.42,11.44-13.96,18.3-4.54,6.87-9.11,14.05-13.71,21.54s-9.28,15.1-14.05,22.82c-4.77,7.72-9.65,15.1-14.64,22.14,2.15,2.72,4.14,5.85,5.96,9.37,1.81,3.52,3.38,7.18,4.68,10.98,1.3,3.8,2.21,7.69,2.72,11.66.51,3.97.54,7.77.09,11.41-.57,3.86-1.9,7.26-4,10.22-2.1,2.95-5.02,5.22-8.77,6.81,3.97-9.76,5.79-19.75,5.45-29.97-.34-10.22-3.07-19.47-8.17-27.75-6.47,8.85-13.25,16.8-20.35,23.84-7.1,7.04-14.73,13-22.9,17.88-8.17,4.88-17.03,8.51-26.56,10.9-9.54,2.38-20.09,3.35-31.67,2.89-13.51-.57-24.6-3.18-33.29-7.83-8.68-4.66-15.13-10.39-19.33-17.2-4.2-6.81-6.21-14.22-6.04-22.22s2.41-15.61,6.73-22.82c4.31-7.21,10.64-13.54,18.99-18.99,8.34-5.45,18.53-9.02,30.56-10.73,6.24-.91,12.52-1.3,18.82-1.19,6.3.11,12.57.74,18.82,1.87,0-1.25.08-2.55.26-3.92.17-1.36.37-2.72.6-4.09-11.47.34-21.2-.65-29.2-2.98-8-2.33-14.45-5.45-19.33-9.37-4.88-3.92-8.34-8.31-10.39-13.2-2.04-4.88-2.78-9.76-2.21-14.64.45-4.2,1.79-8.17,4-11.92s5.19-7.04,8.94-9.88c3.75-2.84,8.17-5.11,13.28-6.81,5.11-1.7,10.73-2.55,16.86-2.55,2.84,0,5.9.28,9.2.85,3.29.57,6.53,1.45,9.71,2.64,3.18,1.19,6.16,2.7,8.94,4.51,2.78,1.82,5.02,3.98,6.73,6.47,2.04,2.95,3.04,5.59,2.98,7.92-.06,2.33-.31,4.29-.77,5.87-1.25-3.18-3.09-6.21-5.53-9.11-2.44-2.9-5.25-5.42-8.43-7.58-3.18-2.15-6.7-3.92-10.56-5.28-3.86-1.36-7.89-2.16-12.09-2.38-5.79-.34-11.07.17-15.84,1.53s-8.94,3.32-12.52,5.87c-3.58,2.55-6.44,5.56-8.6,9.02-2.16,3.46-3.46,7.18-3.92,11.15-.68,4.54-.11,9.17,1.7,13.88,1.81,4.71,5.08,8.94,9.79,12.69,4.71,3.75,10.95,6.73,18.73,8.94,7.77,2.21,17.39,3.15,28.86,2.81,2.04-9.19,5.84-17.91,11.41-26.14,5.56-8.23,12.26-15.38,20.09-21.45,7.83-6.07,16.4-10.78,25.71-14.13,9.31-3.35,18.73-4.74,28.27-4.17,2.16.11,4.37.43,6.64.94,2.27.51,4.43,1.22,6.47,2.13,2.04.91,3.89,2.07,5.53,3.49,1.64,1.42,2.92,3.15,3.83,5.19,1.36,3.06,1.5,6.27.43,9.62-1.08,3.35-2.58,6.21-4.51,8.6-4.66,5.45-10.67,10.22-18.05,14.3-7.38,4.09-15.44,7.72-24.18,10.9-9.08,3.29-18.39,5.93-27.92,7.92-9.54,1.99-18.45,3.26-26.73,3.83-1.25,3.41-2.1,6.64-2.55,9.71,15.21,3.63,29,9.99,41.38,19.07,3.86-1.93,7.75-4.28,11.66-7.07,3.92-2.78,7.75-5.79,11.49-9.02s7.35-6.56,10.81-9.96c3.46-3.41,6.73-6.7,9.79-9.88,4.88-5.22,9.51-10.53,13.88-15.92,4.37-5.39,9.05-10.64,14.05-15.75,7.94-7.83,16.6-14.61,25.97-20.35,9.37-5.73,19.89-9.96,31.59-12.69ZM73.64,295.44c11.35.45,21.54-1.02,30.56-4.43s17.25-8.12,24.69-14.13c7.43-6.02,14.27-12.97,20.52-20.86,6.24-7.89,12.32-16.03,18.22-24.43-3.75-4.31-7.78-8.11-12.09-11.41-3.63,1.7-7.27,3.01-10.9,3.92-3.63.91-7.15,1.19-10.56.85-8.4-.68-14.62-3.32-18.65-7.92-4.03-4.6-6.21-10.24-6.56-16.94-6.36-1.25-12.69-1.96-18.99-2.13-6.3-.17-12.35.25-18.13,1.28-10.1,1.7-18.76,5.17-25.97,10.39-7.21,5.22-12.74,11.32-16.6,18.3-3.86,6.98-5.99,14.33-6.38,22.05-.4,7.72,1.16,14.84,4.68,21.37,3.52,6.53,9.08,12.06,16.69,16.6,7.6,4.54,17.42,7.04,29.46,7.49ZM114.33,201.11c-.23,3.07-.06,5.88.51,8.43.57,2.55,1.64,4.83,3.24,6.81,1.59,1.99,3.69,3.58,6.3,4.77,2.61,1.19,5.85,1.96,9.71,2.3,3.18.23,6.44-.03,9.79-.77,3.35-.74,6.78-1.9,10.3-3.49-5.79-4.31-12.09-7.97-18.9-10.98-6.81-3.01-13.79-5.36-20.94-7.07ZM195.38,125.51c-5.34-.11-10.73.68-16.18,2.38s-10.76,4.09-15.92,7.15c-5.17,3.06-10.13,6.67-14.9,10.81-4.77,4.15-9.14,8.57-13.11,13.28-3.97,4.71-7.49,9.56-10.56,14.56-3.07,5-5.45,9.82-7.15,14.47,8.17-.68,16.91-1.99,26.22-3.92,9.31-1.93,18.45-4.54,27.41-7.83,8.63-3.18,16.6-6.75,23.92-10.73,7.32-3.97,13.2-8.63,17.62-13.96,1.93-2.27,3.35-4.94,4.26-8,.91-3.06.74-5.96-.51-8.68-.8-1.81-1.96-3.32-3.49-4.51-1.53-1.19-3.29-2.15-5.28-2.89-1.99-.74-4.03-1.28-6.13-1.62-2.1-.34-4.17-.51-6.21-.51ZM168.99,229.72c5.33-7.6,10.56-15.27,15.67-22.99,5.11-7.72,10.39-15.32,15.84-22.82-3.07,3.18-6.3,6.41-9.71,9.71-3.41,3.29-6.96,6.53-10.64,9.71-3.69,3.18-7.47,6.13-11.32,8.85-3.86,2.72-7.72,5.11-11.58,7.15,2.04,1.59,4.03,3.24,5.96,4.94,1.93,1.7,3.86,3.52,5.79,5.45Z"/>
    <path class="cls-3" d="M274.97,192.07c-.46.57-.85,1.08-1.19,1.53-.34.46-.74.91-1.19,1.36-1.48,1.93-3.46,4.46-5.96,7.58-2.5,3.12-5.19,6.21-8.09,9.28-2.89,3.07-5.82,5.7-8.77,7.92-2.95,2.21-5.62,3.32-8,3.32-1.36,0-2.5-.34-3.41-1.02-.91-.68-1.62-1.5-2.13-2.47-.51-.96-.85-2.04-1.02-3.24-.17-1.19-.14-2.3.09-3.32.45-2.38,1.42-5.22,2.89-8.51-1.59,2.16-3.32,4.37-5.19,6.64-1.87,2.27-3.8,4.32-5.79,6.13-1.99,1.82-4,3.29-6.04,4.43-2.04,1.14-4.03,1.59-5.96,1.36-3.41-.23-5.67-1.67-6.81-4.34-1.13-2.67-1.42-5.88-.85-9.62.57-3.75,1.87-7.72,3.92-11.92,2.04-4.2,4.57-7.97,7.58-11.32,3.01-3.35,6.36-5.99,10.05-7.92,3.69-1.93,7.52-2.5,11.49-1.7,3.18.57,5.28,1.93,6.3,4.09,1.02,2.16,1.42,4.49,1.19,6.98,2.38-3.52,4.6-6.75,6.64-9.71h3.58c.79,0,1.53-.06,2.21-.17.68-.11,1.45-.31,2.3-.6.85-.28,2.18-.71,4-1.28-2.04,2.61-4.37,5.7-6.98,9.28-2.61,3.58-5.19,7.21-7.75,10.9-2.55,3.69-4.88,7.15-6.98,10.39-2.1,3.24-3.55,5.82-4.34,7.75-.23.57-.48,1.28-.77,2.13-.29.85-.43,1.68-.43,2.47s.2,1.48.6,2.04c.4.57,1.16.85,2.3.85,1.93,0,4.26-1.08,6.98-3.24,2.72-2.16,5.48-4.71,8.26-7.66,2.78-2.95,5.36-5.93,7.75-8.94,2.38-3.01,4.26-5.3,5.62-6.9l2.04-2.55h1.87ZM215.54,221.19c2.15.46,4.71-.51,7.66-2.89,2.95-2.38,5.87-5.25,8.77-8.6,2.89-3.35,5.59-6.81,8.09-10.39,2.5-3.58,4.37-6.33,5.62-8.26.34-1.13.6-2.35.77-3.66.17-1.3.11-2.55-.17-3.75-.28-1.19-.77-2.21-1.45-3.06s-1.7-1.39-3.07-1.62c-1.93-.34-4.17.4-6.73,2.21-2.55,1.82-5.11,4.26-7.66,7.32-2.55,3.06-4.94,6.41-7.15,10.05-2.21,3.63-3.98,7.1-5.28,10.39-1.3,3.29-1.98,6.07-2.04,8.34-.06,2.27.82,3.58,2.64,3.92Z"/>
    <path class="cls-3" d="M271.9,189.01c3.29-4.88,6.81-10.27,10.56-16.18,3.75-5.9,7.77-11.78,12.09-17.62,4.31-5.85,8.94-11.41,13.88-16.69,4.94-5.28,10.19-9.76,15.75-13.45,5.56-3.69,11.49-6.33,17.79-7.92,6.3-1.59,12.97-1.64,20.01-.17-6.24-.23-12.12.82-17.62,3.15-5.51,2.33-10.76,5.51-15.75,9.54-5,4.03-9.74,8.66-14.22,13.88-4.49,5.22-8.71,10.62-12.69,16.18-3.97,5.56-7.78,11.07-11.41,16.52-3.63,5.45-7.04,10.45-10.22,14.98-1.02,1.36-2.3,3.15-3.83,5.36-1.53,2.21-3.06,4.51-4.6,6.9-1.53,2.38-2.92,4.71-4.17,6.98-1.25,2.27-2.1,4.2-2.55,5.79-.34,1.25-.43,2.41-.25,3.49.17,1.08,1.05,1.62,2.64,1.62,1.93,0,4.28-1.08,7.07-3.24,2.78-2.16,5.59-4.71,8.43-7.66,2.84-2.95,5.48-5.93,7.92-8.94,2.44-3.01,4.34-5.3,5.7-6.9l2.04-2.55h1.87c-.46.57-.85,1.08-1.19,1.53-.34.46-.74.91-1.19,1.36-1.48,1.93-3.49,4.46-6.04,7.58-2.55,3.12-5.28,6.21-8.17,9.28-2.89,3.07-5.85,5.7-8.85,7.92-3.01,2.21-5.7,3.32-8.09,3.32-2.04,0-3.6-.71-4.68-2.13-1.08-1.42-1.73-3.04-1.96-4.85-.23-1.7,0-3.69.68-5.96.68-2.27,1.62-4.62,2.81-7.07,1.19-2.44,2.53-4.88,4-7.32,1.48-2.44,2.89-4.68,4.26-6.73Z"/>
    <path class="cls-3" d="M444.22,167.72c7.38.11,13.59,1.34,18.64,3.66,5.05,2.33,9.11,5.22,12.17,8.68,3.07,3.46,5.16,7.24,6.3,11.32,1.13,4.09,1.39,7.98.77,11.66-.62,3.69-2.04,6.92-4.26,9.71-2.21,2.78-5.14,4.57-8.77,5.36,2.38-2.16,4.23-4.85,5.53-8.09,1.3-3.23,2.01-6.61,2.13-10.13.11-3.52-.43-7.04-1.62-10.56-1.19-3.52-3.12-6.7-5.79-9.54-2.67-2.84-6.07-5.19-10.22-7.07-4.14-1.87-9.11-2.92-14.9-3.15-5.22-.23-11.07.63-17.54,2.55-6.47,1.93-13.28,4.51-20.43,7.75-7.15,3.24-14.45,6.87-21.88,10.9-7.44,4.03-14.67,8.09-21.71,12.17-1.25.68-3.07,1.73-5.45,3.15-2.38,1.42-5,2.98-7.83,4.68-2.84,1.7-5.76,3.41-8.77,5.11-3.01,1.7-5.88,3.18-8.6,4.43-1.59.8-3.35,1.53-5.28,2.21-1.93.68-3.86.79-5.79.34-2.04-.45-3.58-1.62-4.6-3.49s-1.25-4-.68-6.38c.45-2.38,1.42-5.22,2.89-8.51-1.59,2.16-3.35,4.37-5.28,6.64-1.93,2.27-3.89,4.32-5.88,6.13-1.99,1.82-4,3.29-6.04,4.43-2.04,1.14-4.03,1.59-5.96,1.36-3.29-.23-5.53-1.67-6.73-4.34-1.19-2.67-1.47-5.88-.85-9.62.63-3.75,1.93-7.72,3.92-11.92,1.99-4.2,4.48-7.97,7.49-11.32,3.01-3.35,6.36-5.99,10.05-7.92,3.69-1.93,7.52-2.5,11.49-1.7,3.18.57,5.3,1.93,6.38,4.09,1.08,2.16,1.5,4.49,1.28,6.98,1.25-1.81,2.41-3.52,3.49-5.11,1.08-1.59,2.07-3.12,2.98-4.6h3.58c.79,0,1.53-.06,2.21-.17.68-.11,1.47-.31,2.38-.6.91-.28,2.27-.71,4.09-1.28-2.04,2.61-4.37,5.7-6.98,9.28-2.61,3.58-5.19,7.21-7.75,10.9-2.55,3.69-4.88,7.15-6.98,10.39-2.1,3.24-3.55,5.82-4.34,7.75-.68,1.48-1.05,2.98-1.11,4.51-.06,1.53.6,2.53,1.96,2.98,1.36.34,2.95.17,4.77-.51,1.81-.68,3.35-1.3,4.6-1.87,2.61-1.25,5.48-2.75,8.6-4.51,3.12-1.76,6.13-3.49,9.03-5.19,2.89-1.7,5.5-3.24,7.83-4.6,2.33-1.36,4-2.38,5.02-3.06,6.92-4.09,14.07-8.14,21.46-12.17,7.38-4.03,14.64-7.66,21.79-10.9s14.05-5.87,20.69-7.92c6.64-2.04,12.8-3.01,18.48-2.89ZM295.91,221.19c2.15.46,4.68-.51,7.58-2.89s5.82-5.25,8.77-8.6c2.95-3.35,5.68-6.81,8.17-10.39,2.5-3.58,4.37-6.33,5.62-8.26.34-1.13.57-2.35.68-3.66.11-1.3.03-2.55-.25-3.75-.29-1.19-.77-2.21-1.45-3.06-.68-.85-1.65-1.39-2.9-1.62-1.93-.34-4.17.4-6.73,2.21-2.55,1.82-5.11,4.26-7.66,7.32-2.55,3.06-4.94,6.41-7.15,10.05-2.21,3.63-3.98,7.1-5.28,10.39-1.3,3.29-1.98,6.07-2.04,8.34-.06,2.27.82,3.58,2.64,3.92Z"/>
  </g>
  <g>
    <polygon class="cls-1" points="299.77 8.75 300.02 8.75 264.17 90.11 249.95 90.11 280.22 20.3 198.64 20.3 204.62 7.9 300.13 7.9 299.77 8.75"/>
    <path class="cls-4" d="M334.3,55.93c-14.47,0-26.69,4.38-37.9,11.87l11.24-27.82h79.1l5.98-12.97h-79.94l.02-.05h-12.9l-27.04,63.16h14.6c10.87-13.97,27.83-22.96,46.85-22.96,32.75,0,59.38,26.64,59.38,59.37s-26.63,59.38-59.38,59.38c-21.44,0-40.26-11.42-50.7-28.5h-12.77c11.47,23.5,35.61,39.72,63.47,39.72,38.93,0,70.6-31.65,70.6-70.6s-31.67-70.59-70.6-70.59Z"/>
    <path class="cls-6" d="M46.36,141.68h3.74l2.37-6.01h18.12l2.42,6.01h4l-15.17-36.2h-.63l-14.86,36.2ZM53.79,132.41l6.32-15.91c.68-1.69,1.42-4.27,1.42-4.27,0,0,.68,2.58,1.37,4.27l6.32,15.91h-15.44ZM108.91,142.05h.63v-36.2h-3.53v24.18c0,1.53.26,4.06.26,4.06,0,0-1.48-2.11-2.48-3.32l-21.39-25.29h-.63v36.2h3.58v-24.18c0-1.53-.32-4.06-.32-4.06,0,0,1.47,2.11,2.48,3.32l21.39,25.29ZM144.37,142.05h.63v-36.2h-3.53v24.18c0,1.53.26,4.06.26,4.06,0,0-1.48-2.11-2.48-3.32l-21.39-25.29h-.63v36.2h3.58v-24.18c0-1.53-.32-4.06-.32-4.06,0,0,1.47,2.11,2.48,3.32l21.39,25.29ZM152.86,141.68h3.85v-35.83h-3.85v35.83ZM176.72,142.05h.63l14.91-36.2h-3.85l-9.8,24.29c-.74,1.79-1.53,4.85-1.53,4.85,0,0-.79-3.06-1.53-4.85l-9.85-24.29h-4.11l15.12,36.2ZM197.01,141.68h22.55v-3.37h-18.76v-8.96h16.07v-3.32h-16.07v-16.81h18.02v-3.37h-21.81v35.83ZM240.9,130.67c4.95-2,7.48-6.22,7.48-11.59,0-7.75-5.06-13.22-14.86-13.22h-8.06v35.83h3.79v-9.48h4.27c1.26,0,2.58-.1,3.79-.32l6.9,9.8h4.48l-7.8-11.01ZM229.26,128.88v-19.65h4.06c8.06,0,11.12,4.21,11.12,9.85s-3,9.8-11.12,9.8h-4.06ZM263.88,142.1c6.43,0,11.12-3.58,11.12-9.48,0-5.37-3.06-8.33-9.01-10.96l-2.85-1.32c-4-1.84-5.69-3.27-5.69-6.43s2.16-5.11,5.69-5.11,5.27,1.69,6.64,3.9l3.06-1.9c-1.9-3.16-4.9-5.37-9.7-5.37-5.37,0-9.43,3.42-9.43,8.59s2.79,7.48,7.9,9.8l2.84,1.32c4.48,2,6.74,3.85,6.74,7.48s-3.27,6.11-7.43,6.11c-5.06,0-7.54-2.58-9.22-5.58l-3.16,1.69c1.9,3.79,5.64,7.27,12.49,7.27ZM277.42,141.68h3.74l2.37-6.01h18.12l2.42,6.01h4l-15.17-36.2h-.63l-14.86,36.2ZM284.85,132.41l6.32-15.91c.68-1.69,1.42-4.27,1.42-4.27,0,0,.68,2.58,1.37,4.27l6.32,15.91h-15.44ZM328.27,130.67c4.95-2,7.48-6.22,7.48-11.59,0-7.75-5.06-13.22-14.86-13.22h-8.06v35.83h3.79v-9.48h4.27c1.26,0,2.58-.1,3.79-.32l6.9,9.8h4.48l-7.8-11.01ZM316.62,128.88v-19.65h4.06c8.06,0,11.12,4.21,11.12,9.85s-3,9.8-11.12,9.8h-4.06ZM351.66,141.68h3.9v-11.38l13.28-24.45h-3.95l-9.69,17.81c-.74,1.42-1.53,3.64-1.53,3.64,0,0-.74-2.27-1.53-3.64l-9.75-17.81h-4.27l13.54,24.61v11.22Z"/>
  </g>
  <g>
    <path class="cls-7" d="M107.43,65.86c0,17.47-14.17,31.64-31.65,31.64s-31.65-14.17-31.65-31.64,14.17-31.65,31.65-31.65,31.65,14.17,31.65,31.65"/>
    <path class="cls-7" d="M105.65,65.85c0,16.5-13.37,29.87-29.87,29.87s-29.88-13.38-29.88-29.87,13.38-29.87,29.88-29.87,29.87,13.38,29.87,29.87"/>
    <path class="cls-5" d="M75.78,96.12c-16.69,0-30.26-13.58-30.26-30.26s13.58-30.26,30.26-30.26,30.26,13.57,30.26,30.26-13.57,30.26-30.26,30.26M75.78,36.37c-16.26,0-29.49,13.23-29.49,29.48s13.23,29.49,29.49,29.49,29.49-13.23,29.49-29.49-13.23-29.48-29.49-29.48"/>
    <path class="cls-5" d="M106.04,65.86c0,16.71-13.55,30.26-30.26,30.26s-30.27-13.55-30.27-30.26,13.55-30.27,30.27-30.27,30.26,13.55,30.26,30.27"/>
    <path class="cls-7" d="M77.02,66.61c-.36-.09-2.87-1.13-2.91-1.16-.2-.16-.04-.47.35-.32.15.06,2.59,1,2.78,1.06.26.08.31.54-.22.42"/>
    <path class="cls-7" d="M102.15,65.85c0,14.56-11.81,26.36-26.37,26.36s-26.37-11.8-26.37-26.36,11.81-26.37,26.37-26.37,26.37,11.8,26.37,26.37"/>
    <path class="cls-5" d="M75.78,92.6c-14.75,0-26.76-12-26.76-26.75s12-26.76,26.76-26.76,26.76,12.01,26.76,26.76-12,26.75-26.76,26.75M75.78,39.87c-14.33,0-25.98,11.66-25.98,25.99s11.66,25.97,25.98,25.97,25.98-11.65,25.98-25.97-11.65-25.99-25.98-25.99"/>
    <path class="cls-7" d="M99.59,65.86c0,13.18-10.69,23.87-23.87,23.87s-23.87-10.69-23.87-23.87,10.69-23.87,23.87-23.87,23.87,10.69,23.87,23.87"/>
    <g class="cls-8" >
      <path class="cls-5" d="M68.67,38.86c.18.03.48-.09.43-.19-.05-.1-.1-.07-.3-.06-.26,0-.31.23-.13.26"/>
      <path class="cls-5" d="M70.01,41.99c.16.11,1.06.25,1.32.26.27,0,.22-.21.11-.19-.11.02-1.53-.31-1.71-.31-.17,0-.43-.15-.55-.19-.12-.04-.38-.16-.29,0l-.04.09c.11.12,1,.23,1.17.35"/>
      <path class="cls-5" d="M70.27,40.37s-.08-.28-.25-.27c-.17,0-.3.11-.38.12-.28.05.63.15.63.15"/>
      <path class="cls-5" d="M69.04,39.46c-.21.16.41.04.34-.03-.06-.07-.24-.04-.34.03"/>
      <path class="cls-5" d="M69.31,40.02c.01-.09-.14-.15-.24-.07l-.03.06c-.02.21.22.22.22.22,0,0,.04-.13.05-.21"/>
      <path class="cls-5" d="M87.99,82.5c.21-.12.29-.34.08-.28-.22.06-1.36.44-1.58.34-.16-.08-.5.19-.23.2.27.01,1.53-.15,1.73-.27"/>
      <path class="cls-5" d="M69.28,40.64c.12.08.69.31.84.34.15.03.65-.09.32-.14-.32-.06-.74-.28-.92-.3-.18-.02-.34.03-.24.1"/>
      <path class="cls-5" d="M72.96,40.83c.15.03.41-.13.41-.13,0,0-.3.08-.33-.06-.03-.21-.23.16-.08.19"/>
      <path class="cls-5" d="M70.29,41.47c.13.06.41.19.55.16.14-.03.35-.15.26-.19-.09-.04-.44,0-.66-.11-.26-.12-.27.08-.15.14"/>
      <path class="cls-5" d="M90.74,81.95c.15-.3-.07.1-.37.31-3.93,2.71-9,2.43-9.28,2.35-.28-.07-2-.04-2.16-.03-.16,0-.24.17-.34.19-.1.02-.39.11-.01.16.38.05,2.17-.07,2.32-.06,3.18.12,5.61-.54,6.17-.71.56-.16,3.25-1.35,3.68-2.22"/>
      <path class="cls-5" d="M73.47,56.6c-.05-.19.17-.16.4-.26.23-.1,1.06.41,1.39.33.33-.08,1.03-.06,1.45.25.42.31,1.38.66,1.58.68.21.02.38.26.25.36-.13.1.7,1,.75,1.23.04.24.46.67.76,1.27.31.61,1.55.98,1.74,1.03.19.05.3.32.5.28.2-.04-.02-.24-.03-.32-.02-.08.12-.04.25.02.13.06.27.24.29.15.02-.09.06-.09.24-.03.17.07.19.19.3.21.11.02.07-.05-.03-.18-.1-.12.04-.25.17-.17.14.08.43.45.61.44.18-.01-.02-.22-.07-.37-.05-.16.16-.15.26,0,.1.14.48.53.73.54.25.02-.05-.28-.04-.44.01-.17.13-.07.26.09.13.16.76,1.08.91.99.15-.09.93,1.34,1.11,1.98.17.64.39.53.36.42-.93-3.38-2-3.6-2.35-3.84-.35-.24-5.16-1.31-5.21-1.56-.05-.26-1-1.36-1-1.36,0,0-.69-.94-.82-1.06-.13-.12-1.76-1.22-2.21-1.42-.44-.21-.81-.22-1.6-.43-.79-.2-.81-.24-1.2-.34-.38-.1-.88.52-.97.7.36.36.9.92,1.34,1.43.28.08.55.15.59.15.08-.01-.66-.6-.71-.79"/>
      <path class="cls-5" d="M79.53,80.18c-.26-.02-.38-.03-.6-.06-.23-.03-.34.18-.16.25.17.07.49.12.69.09.2-.03.35-.25.08-.27"/>
      <path class="cls-5" d="M78.18,78.59c.25-.07.17-.22.16-.28,0-.06-.67-.18-.79-.22-.22-.08-.39.23-.13.31.26.08.52.26.77.19"/>
      <path class="cls-5" d="M78.61,79.37c-.25-.03-.57-.14-.75-.17-.24-.04-.37.23-.18.27.2.05.69.18.79.17.1-.02.28-.26.14-.27"/>
      <path class="cls-5" d="M79.31,81.15c.12.08,1.28.2,1.46.15.18-.05.28-.17.27-.23,0-.06-.16-.1-.35-.02-.19.07-.97-.03-1.09-.06-.2-.05-.4.08-.28.16"/>
      <path class="cls-5" d="M79.47,82.06c.12.08,1.29.2,1.46.15.18-.05.28-.17.27-.23,0-.06-.16-.1-.35-.02-.19.08-.97-.03-1.09-.06-.2-.05-.4.08-.28.16"/>
      <path class="cls-5" d="M79.98,82.8c.12.08,1.28.2,1.46.15.18-.05.28-.17.27-.23,0-.06-.16-.1-.35-.02-.19.08-.97-.03-1.09-.06-.2-.05-.4.08-.28.16"/>
      <path class="cls-5" d="M90.01,56.13h0c-3.15-2.82-6.78-3.89-10.15-3.81.1-.57.2-1.26.29-2.03.4.03,1.22.04,1.76.06.27,0,.53-.13.47-.28-.07-.14-.34-.76-.75-.85-.22-.05-.88-.43-1.3-.56.14-1.57.25-3.28.28-4.8.06-3.31-1.79-5.89-4.71-6-.51-.02-.74-.34-.62-.95.19-1,.61-2.29.94-3.31.17-.53-.14-1.04-.64-.95-.35.06-.67.09-.99.02-.3-.06-.69.17-.69.17-.41.16-.58.54-.67.82-.09.28-.74,1.9-.85,2.15-.1.25-.2,1.34-.43,1.03-.16-.21-.28-.25-.36-.33-.13-1.09-.22-2.17-.31-2.66-.12-.69-.79-.83-1.22-.3-.19.24-.36.47-.58.69-.24.24-.52.29-.84.22-.33-.07-.64.06-.86.31-.24.26-.68.35-.99.16-.22-.14-.43-.28-.68-.33-.25-.04-.4.11-.38.31.12,1.1.29,2.24.37,3.19l.1,1.87c0,.82-.02,1.64-.07,2.19-.07.75-.11,1.46-.05,1.97.04.37-.02.63-.11.93-.24.8-.37,1.52-.35,2.55.03,1.03.01,2.59-.04,3.99-.04,1.4-.24,3.88-.17,5.96,0,0,.02,0,.03-.02-.31.18-.61.39-.9.6.03-.02.05-.04.08-.06v-.02c-.19-2.09.07-4.67-.35-7.03-.2-1.12-1.29-1.11-1.64-.06-.11.34-.18.56-.3.86-.17.42-.41.6-.89.69-.59.11-1.28.29-1.71.48-.22.1-.35.34-.32.69.09.84.2,2.86.33,5.52-.3.09-.58.26-.8.52-.52.59-.69,1.4-.35,2.51.49,1.59.4,2.39,0,3.39-.78,1.97-.35,4.75,1.22,6.71.03.04.06.07.09.1.14.15.29.24.44.28,0,0-.01,0-.02,0,.23,5.91.41,11.44.47,13.69,0,.31.19.66.55.94.51.39,1.15.09,1.44-.25.29-.35.67-.12.69.38.02.43.37.72.6.93.21.18.52.41.8.62.45.36.92.24.94-.09-.02-2.43-.15-6.28-.3-8.86-.04-.05-.08-.09-.12-.14,1.83,2.21,4.18,3.99,6.98,4.98h0c.57,2.25,1.28,6.5,1.3,6.6.07.47.55.92,1.4.98.53.04,1.06-.24,1.52-.32.46-.08.87.09,1.25.31.63.36,1.61.42,2.27.1.41-.2.52-.52.44-.81,0,0,0,.02,0,.03l-1.19-5.75.21-.02c.64.11,1.29.09,1.93-.07,2.43.06,4.7-.35,6.54-1.17,1.75-.77,3.08-1.88,3.82-3.2.59-1.04.79-2.16.6-3.26-.12-.68-.39-1.36-.81-2.01l-.05-.07c-1.28-1.99-2.51-3.91-2.91-6.13-.16-.89-.01-1.86.16-2.88.12-.74.09-1.57-.05-2.41-.18-1.02-.55-2.05-1.05-2.91,0,0,1.31.59,2.38,1.15h0c.4.2.63-.1.48-.42-.09-.18-.26-.45-.45-.73-.2-.29-.35-.55-.3-.89.09-.52-.06-1.23-.41-2.09-.55-1.35-.23-2.04.46-2.22.29-.08.33-.4.12-.59M80.33,91.86s-.01-.04-.02-.05c0,.01,0,.03.02.05M79.41,52.2c-.69.02-2.7.28-3.37.4-.05-.25.14-1.54.4-1.64.27-.02,1.86-.27,2.1-.27.47-.01.73-.1,1.1-.09-.07.6-.14,1.14-.22,1.61M67.54,48.83c.11-.01.25-.05.64.03.39.07.14-.17.02-.2-.13-.04-.41-.09-.74-.12-.9-.1-.69-.61-.41-.61s1.15.07,1.48.1c.32.03.19-.16-.03-.24-.21-.08-.91-.13-1.21-.2-.96-.25-.73-.74-.49-.7.24.05,1.08.13,1.35.2.27.07.26-.26-.04-.32-.3-.07-1.16-.26-1.28-.29-.13-.03-.37-.51.32-.53.32,0,1.41.19,1.73.22.33.03.28-.08.05-.21-.22-.13-1.38-.32-1.72-.44-.34-.11-.63-.46-.1-.41.53.05,1.05.16,1.49.23.45.06.28-.21.04-.25-.24-.04-1.22-.32-1.55-.4-.34-.09-.39-.44-.18-.39.21.05,1.55.36,1.9.41.36.06.37-.18,0-.29-.37-.11-1.61-.44-2.01-.54-.39-.1-.32-.32-.05-.28.27.04,1.68.31,2.11.38.42.07.11-.28-.13-.36-.25-.07-1.55-.27-1.81-.43-.26-.16-.27-.36,0-.23.25.13.93.04.8-.06-.13-.09-.31-.29-.11-.27.2.02.49.17.73.22.24.05.22-.04-.04-.2-.26-.16-.76-.21-1.01-.29-.24-.07-.39-.42-.16-.37.24.05.9.28,1.32.37.42.1.27-.13-.03-.17-.29-.04-.93-.35-1.47-.58-.53-.22-.25-.33.06-.3.33.03.75.27.9.33.16.06.37,0,.04-.12-.34-.11-.73-.36-1.01-.43-.27-.07-.31-.29.04-.27.35.03,1.03.28,1.4.36.36.08.55-.15.13-.23-.42-.07-1.33-.46-1.48-.49-.15-.03-.25-.27-.05-.25.21.02.79.21.97.23.18.03.35-.12-.09-.16-.44-.04-.59-.24-.97-.38-.37-.14-.08-.3.13-.28.21.02.73.19,1.06.27.33.09.17-.15-.15-.2-.33-.06-.99-.35-1.25-.5-.25-.16-.24-.22.06-.18.3.03.73.22,1.13.32.4.1.5-.11.23-.18-.27-.07-1.15-.46-1.31-.52-.15-.06-.29-.21-.09-.19.21.02.67.17.92.27.25.1.56-.13.24-.25-.31-.12-.98-.32-1.29-.44-.31-.12-.16-.26.04-.27.2,0,.97.26,1.26.27.29,0,.23-.18-.06-.19-.29,0-1.08-.36-1.28-.53-.21-.17-.09-.16.15-.14.24.02.51.11.69.14.18.02.39-.1,0-.15-.38-.05-.5-.2-.77-.27-.27-.07-.22-.25-.1-.27.11-.02.29.04.42.07.12.03.75-.05.3-.11-.44-.07-.35-.2-.61-.33-.26-.13-.43-.13-.24-.19.19-.06.33.03.68.08.35.05.64.18.58-.02-.06-.19-.27-.07-1.06-.27-.79-.21-.54-.25-.43-.45.08-.14.27-.06.41-.1.4.21.94.1,1.25-.24.1-.11.31-.29.61-.23.44.09.79,0,1.08-.29.17-.17.31-.36.44-.53l.15-.18c.14-.18.31-.26.46-.22.14.04.25.18.29.4.05.28.1.76.16,1.33.06.64.14,1.36.24,2.05.09.58.41.65.51.66.25.02.47-.18.55-.48,0-.01,0-.03,0-.05.07.03.2-.1.16-.18-.04-.1.09-.29.15-.34.07-.05.16-.25.13-.37-.04-.12.11-.4.24-.64.1-.19.02-.37-.05-.55.06-.19.12-.38.19-.56.05.06.13.01.24.08.12.08.43-.21.44-.35,0-.14.25-.71.34-.87.06-.12.19-.45.2-.68.38.08.75.03,1.04-.02.11-.02.21,0,.28.09.05.06.08.13.09.21.02.1,0,.21-.03.32l-.1.33c-.31.98-.66,2.09-.83,3.01-.04.21-.04.39-.02.55.03.15.08.28.17.39.16.2.39.3.71.32,2.24.09,3.88,1.76,4.31,4.23.08.47.12.98.11,1.51-.03,1.44-.12,3.1-.27,4.72-.2-.02-.4-.04-.6-.03-.35.01-.69-.03-.99-.11-.93-.25-1.64-.27-2.16-.03,0,0-.02,0-.03.01.04-.6.06-1.21.05-1.73.04-.02.1.01.14,0,.13-.02.16.13.16.3,0,.15,0,.93.04,1.11.03.17.19.03.17-.08-.02-.11.01-.29,0-.61,0-.31-.03-1.24-.06-1.52-.02-.23,0-.54-.06-.76-.07-.22-.21-.07-.2.1.02.16-.02.38.02.65.03.22-.08.1-.24.09-.01-.19-.04-.38-.06-.57-.03-.31-.07-.59-.12-.87-.17-.95-.44-1.7-.8-2.21-.15-.21-.34-.33-.54-.35-.03-.22-.23-.19-.3-.2-.07-.02-.22-.21-.21-.28.02-.07.22-.21-.09-.32-.31-.11-.29-.02-.38.06-.09.09-.48.09-.27.21.21.12.59.3.53.37-.06.07-.09.16-.23.11-.14-.05-.5-.13-.64-.16-.14-.03-.26.1-.09.16.17.06.6-.05.72.08.05.05.29-.01.15.73-.08.16-1.36,2.28-1.34,2.3-.08.1-1.73,1.83-1.72,1.94-.17.16-.35.33-.54.5-.33.29-2.01,2.07-2.3,2.51-.1-.04-.28-.11-.48-.19-.91-.36-.63-1.03.15-1.1M67.74,51.37c.63-1.35,1.71-2.42,2.77-3.37,2.11-1.89,3.02-3.36,3.89-5.26.04-.08.09-.12.11-.12.03,0,.34.43.38.51-.05.03.24.61.14.7-.1.09-.22-.05-.39-.12-.17-.07-.23.15-.06.28.17.13.52.36.59.44.07.07.14.4-.03.35-.17-.05-.57-.35-.79-.54-.22-.19-.33.15-.2.23.13.08.72.67.92.78.2.1.06.27.09.54-.78.86-1.32,1.83-1.64,2.95-.02.08-.03.17-.02.24.02.11.08.22.17.28.15.12.36.12.55.01.42-.25,1.03-.35,1.3-.2.27.15.54.03.75-.06h.02c.4-.19,1.01-.17,1.8.05.36.1.74.14,1.14.13.2,0,.39,0,.58.03l.72.2c.18.08.35.18.5.3-.04.08-.07.14-.17.16-.21.06-1.62.24-1.62.25-.1.02-.2.04-.3.05-.23-.22-.83-.59-.91-.73-.09-.14-.29.02-.17.13.12.11.51.46.67.62-.09,0-.24,0-.42.01-.01-.01-.03-.02-.04-.03-.19-.16-.47-.46-.62-.62-.16-.16-.32.03-.17.13.15.1.37.45.41.53,0,.01,0,.02,0,.02-.05,0-.09.01-.14.01-.07-.02-.15-.05-.2-.1-.12-.11-.53-.45-.67-.56-.15-.1-.36-.03-.28.05.08.08.58.41.64.56.02.05,0,.09-.04.11-.03,0-.06,0-.09.01-.07,0-.18-.04-.26-.11-.19-.16-.47-.47-.61-.53-.14-.07-.21.1-.08.24.12.14.36.23.42.41.01.04,0,.08,0,.11,0,0-.01,0-.01,0-.08.02-.17.05-.25.08-.04-.01-.07-.03-.11-.06-.18-.16-.32-.39-.5-.49-.18-.1-.36-.06-.24.07.12.14.58.35.6.47.01.05,0,.11-.04.14-.02,0-.03.02-.05.03-.04,0-.07,0-.11-.04-.11-.1-.11-.07-.29-.17-.18-.09-.14.28.04.41.01,0,.02.02.03.02-.09.07-.17.14-.26.22-.21-.19-.68-.5-.68-.5,0,0-.33-.07-.15.06.18.13.49.42.38.54-.11.12-.47-.14-.65-.24-.18-.09-.29-.01-.18.09.12.11.63.27.69.46.07.18-.04.3-.28.21-.24-.08-.52-.19-.73-.32-.21-.12-.17.13-.06.2.11.08.69.48.56.64-.13.15-.79-.15-.98-.28-.18-.12-.34.03-.2.14.14.1.86.49.72.64-.13.15-.79-.28-.94-.41-.15-.13-.26-.02-.14.12.12.14.85.49.72.64-.13.15-.99-.34-1.21-.46-.22-.13-.33.12-.12.21.21.09,1.26.61,1.01.85-.25.24-1-.37-1.32-.54-.32-.16-.45.01-.23.17.22.16.73.45.87.58.15.14.19.32-.09.18-.28-.14-1.32-.73-1.54-.72-.23,0-.26.17-.02.29.25.12,1.03.36,1.18.53.16.16-.13.15-.37.07-.24-.08-.86-.49-1.01-.46-.16.03-.39,0-.1.18.28.18.92.32.71.39-.21.07-.65.05-1,.05-.28,0-1.94,1.16-2.87,1.97-.91.23-1.52-1.2-.39-3.39.01-.1.9-1.58.93-1.64M65.57,58.82c.06-.05.16-.08.25-.03.2.1,1.23.65,1.39.75.08.05.12.13.08.2-.04.08-.17.14-.37.07-.17-.06-.52-.26-.83-.43-.22-.13-.44-.25-.53-.28-.08-.03-.1-.08-.1-.11,0-.06.03-.13.09-.18M64.65,59.63s.03-.08.08-.1c.07-.02.16-.01.23.06.08.09,1.72.83,1.99.9.24.06.22.13.22.15,0,.05-.08.19-.39.18-.34-.01-1.28-.49-1.81-.77l-.32-.17c-.11-.05-.01-.22,0-.25M69.08,67.02c.16.05.18.11.17.15-.02.09-.21.12-.43.07-.22-.05-.63-.21-.96-.34-.19-.07-.35-.14-.42-.15-.1-.04-.16-.11-.17-.17-.01-.05,0-.09.04-.12.03-.03.1-.04.21.02.2.1,1.26.45,1.56.54M66.39,75.97s0-.04.01-.05c.05-.05.24,0,1.47.47.35.14.69.27.77.29.18.04,1.14.38,1.19.54.02.06.04.14,0,.2-.03.05-.12.21-.19.23-.12.03-.98-.31-.98-.31-.58-.24-1.7-.62-1.88-.65-.29-.06-.39-.41-.38-.57,0-.05,0-.1-.01-.16M70.35,77.11l-.2-.12c-.11-.05-.12-.13-.12-.16,0-.05.03-.09.08-.12.06-.03.17-.04.27.04.04.03.15.07.26.12.27.11,1.07.35,1.08.4,0,.04,0,.11-.05.17-.03.04-.08.07-.14.07-.1,0-1-.29-1.18-.4M71.41,75.45s-.06.1-.2.1c-.18,0-1.69-.5-1.95-.59l-.11-.04-.08-.02c-.1-.01-.21-.03-.24-.2,0-.06-.03-.29.03-.31.12-.05,1.7.52,1.88.54.22.02.42.04.5.11.1.08.2.34.18.41M70.78,74.24c-.3.02-1.94-.59-2.15-.71-.07-.04-.32-.15-.6-.27-.66-.28-1.27-.52-1.4-.58-.71-.28-1.62-.33-1.54-.87.01-.08.1-.3.15-.33.03-.02.09-.04.18.02.05.03.22.1.41.16.29.1,1.24.52,1.57.61.31.09,2.84,1.09,2.95,1.11.19.04.37.08.47.18.03.03.05.07.05.11,0,.04,0,.14,0,.18-.03.13.12.38-.09.4M62.22,67.72c.02-.09.05-.26.31-.14.1.04,3.52,1.33,3.67,1.38.03,0,.08.25.07.28-.02.08-.2.13-.32.09l-2.36-.83c-.65-.19-1.26-.39-1.36-.57-.05-.1-.02-.15,0-.21M62.08,71.15c.15,0,1.4.62,1.53.72.29.23.43.98.45,1,.1.1-.87-.29-1.05-.35-.35-.11-.94-.34-1.01-.43-.06-.09-.08-.31-.05-.36.03-.05,0-.59.14-.58M62.09,73.51c.03-.07.04-.43.11-.43.04,0,1.91.55,1.96.57.37.18.36.91.36.91-.03.05-.07.07-.12.08-.09.01-1.56-.5-1.69-.54-.14-.03-.44-.1-.51-.16-.05-.05-.13-.35-.1-.43M63.24,69.14c0-.06.05-.24.16-.27.12-.03,1.21.41,1.45.51.27.12.44.19.49.24.06.06.07.15.06.21-.01.05-.05.2-.09.21-.03.01-.08,0-.15-.06-.16-.15-1.91-.73-1.93-.84M70.52,72.67c.02.12,0,.22-.08.26-.08.05-3.18-1.11-3.33-1.23-.04-.03-1.45-.62-1.64-.77-.05-.04.09-.26.12-.3.06-.08.18-.12.3-.04.11.07,1.6.51,1.85.61l.42.18c.31.14,1.38.53,1.51.57l.1.02c.1.02.23.04.48.16.27.14.26.5.27.54M70.26,71.58c-.03.12-.25.11-.3.08,0,0-2.79-1.11-3.04-1.17-.4-.12-.86-.2-.87-.35-.01-.13.15-.77,1.2-.31.21.09,2.72.92,2.72.92.2.07.18.32.27.55,0,0,.08.07.03.29M62.32,62.86c.09-.15.39-.16.48-.05.09.11,3.62,1.45,3.94,1.52.12.02.16.08.18.12.02.05-.01.69-.06.74-.07.08-.21.14-.36.11-.28-.07-4.01-1.67-4.2-1.83-.04-.04-.1-.09-.09-.15,0-.02.08-.41.11-.46M62.33,64.29c.07.04.3.12.48.19.14.05.26.09.3.12.09.04,1.83.69,2.44.93l.43.17c.09.04.15.12.16.19,0,.03-.03.23-.05.25-.03.02.05.27-.62.07-.9-.27-3.62-.94-3.47-1.72.01-.05.27-.23.33-.19M68.77,67.95l-.37-.1c-.45-.11-1.06-.26-1.29-.39-.18-.1-.19-.19-.17-.25.03-.1.09-.07.28-.06.25.02.78.24,1.21.34.24.05.41.18.51.21.11.03.17.08.19.13,0,.04,0,.07-.03.09-.05.06-.19.06-.33.03M66.64,63.43c-.13.08-1.6-.54-1.92-.63-.33-.07-1.26-.49-1.5-.6-.1-.05-.14-.19-.14-.23.01-.09.15-.44.25-.47.05-.01.27,0,.32.06.07.08,1.17.55,1.48.62.17.04.54.19.89.33.28.12.55.23.67.26.1.02.13.07.13.11,0,.07-.12.49-.18.54M63.94,60.43c.08,0,.27.04.3.1.09.1,1.52.7,2.28,1.01.13.05.37.16.37.23,0,.21-.17.34-.37.35-.36.01-2.54-1.05-2.66-1.2-.05-.06-.12-.18-.11-.21.02-.05.12-.28.19-.28M60.23,53.43c.19.08,1.35.55,1.51.61.16.06.18-.12.05-.18-.13-.06-.85-.52-1.07-.63-.22-.1.09-.16.21-.12.12.03.67.2.83.26.15.06.3-.08.2-.15-.09-.07-.2-.2-.46-.36.5-.11.78-.36.96-.83.11-.29.18-.51.3-.87.14-.43.42-.61.63-.6.24.02.42.26.49.63.25,1.4.26,2.87.27,4.29,0,.92.01,1.78.08,2.59-.42.33-.81.71-1.17,1.12v-.03s-.13.02-.36.03c-.23.01-.42-.21-.25-.25.17-.03.31-.2.17-.21-.15,0-.24-.04-.54-.1-.3-.06-.28-.27-.14-.3.14-.02.36.08.56.2.19.11.47-.17.16-.24-.3-.06-.73-.36-1.1-.42-.36-.05-.47-.33-.19-.26.27.07.66.12,1.02.14.35.03.22-.22.04-.27-.18-.05-.84-.17-1.12-.27-.28-.1-.23-.31-.03-.32.2,0,1.08.31,1.32.38.24.07.35-.18-.08-.28-.42-.1-1.21-.43-1.36-.49-.16-.06-.19-.23.08-.19.27.04,1.01.26,1.16.29.15.03.22-.07-.08-.13-.3-.06-.95-.44-1.26-.5-.3-.07-.25-.28-.04-.23.22.05,1.02.32,1.26.36.24.05.29-.14-.1-.21-.39-.08-1.16-.47-1.44-.56-.28-.1-.23-.31.04-.24.27.06.77.39,1,.37.23-.01.15-.14-.03-.17-.18-.03-.77-.39-.93-.48-.16-.08-.09-.16.02-.18.11-.02.44.18.59.21.15.03.27-.13.06-.18-.22-.05-.63-.27-.85-.32-.21-.05-.15-.23,0-.2.15.03.68.23.89.27.22.05.22-.04.01-.09-.21-.05-1.01-.46-1.3-.61-.29-.15-.22-.39-.03-.31M62.58,66.01c1.43.36,2.74,1,3.61,1.32.69.25.23.44.42.54.23.12.69.31,1.37.55.62.22,1.21.42,1.36.51.16.09.19.38.18.46,0,.06-.03.1-.08.13-.06.02-.14,0-.21-.07-.11-.1-.91-.37-1.69-.64-.76-.26-1.54-.53-1.78-.67-.28-.15-.7-.28-1.07-.39-.31-.1-.61-.18-.79-.29-.52-.29-1.17-.4-1.7-.72-.07-.04.05-.82.39-.73M59.7,71.31c.11-.05-.02-.29-.22-.43-.2-.14-.42-.57-.25-.45.17.12.63.44.83.58.2.14.35,0,.05-.18-.29-.18-.79-.68-.96-.82-.17-.14-.27-.53-.1-.42.17.11.74.54.88.69.14.15.23-.04.12-.17-.11-.13-.64-.57-.93-.82-.5-.44-.36-1.19-.18-1.16.16.02,1.3,1,1.5,1.17.14.11.25-.05.06-.25-.19-.21-1.24-1.11-1.38-1.22-.4-.32-.29-.86-.27-.9.04-.08.17-.21.26-.15.17.11,1.02.96,1.12,1.08.11.12.26-.05.09-.16-.17-.12-.74-.71-.95-.91-.21-.2,0-.35.19-.27.19.08.84.81,1.03.89.19.09.16-.08.06-.15-.1-.07-1.19-1.1-1.32-1.22-.07-.06-.2-.17-.12-.32.13-.23.15-.42.49-.21.1.06.34.26.44.36.1.1.23-.01.12-.14-.11-.12-.58-.48-.72-.6-.14-.12-.06-.37.17-.24.22.14.81.68.89.75.07.07.38.01.15-.15-.24-.16-1.19-1.11-1.21-1.21-.06-.28-.09-1.35.05-1.2.14.15.53.35.77.59.25.25.16-.11,0-.29-.11-.14-.87-.68-1.23-1.31-.04-.1-.07-.19-.11-.28-.41-.98.02-1.91.85-2.27.31-.08.64-.07.9.02.22.07.32.23.31.32,0,.08-.13.14-.32.16-.47.05-.84.28-1.03.65-.16.32-.15.69.01.97.17.28.33.52.57.85l.52.74c.73,1.08.83,2.8.68,3.94-.07.59-.18,1.4-.02,2.46.16,1.05.02,1.86-.45,2.56-.16.24-.36.38-.55.38-.08,0-.38-.13-.49-.26-.17-.19-.67-.85-.31-1M62.77,86.8c-.09.04-.18.11-.26.2-.15.17-.53.44-.88.31l-.04-.09c-.05-.17.07-.41.25-.38.18.03.58-.16.6-.25.03-.08.33-.16.33-.02,0,.05,0,.13,0,.22M65.43,89.03c-.06.05-.26.04-.49-.14l-.06-.05c.03-.1.14-.22.25-.27.13.1.25.21.28.31.01.02.04.11,0,.14M65.21,85.93c-.07.71.21,1.52.23,2.23-.08-.06-.16-.12-.23-.16l-.2-.14c-.15-.11-3.66-3.05-3.91-2.76-.04.04-.08.11-.14.17,0,0,.19-.36.06-.45-.13-.09-.03-.53.06-.66.09-.13.14,0,.35.08.21.08.12-.15.03-.22-.09-.07-.27-.12-.37-.21-.1-.1-.11-.32.02-.23.13.09.25.09.43.17.18.08.12-.1,0-.19-.13-.09-.32-.16-.49-.3-.16-.14-.06-.36.1-.24.16.11.41.24.66.39.25.15.18-.19,0-.24-.17-.05-.5-.32-.64-.39-.21-.12-.36-.66.02-.63.27.02.46.21.7.31.23.1.29-.11.09-.27-.19-.16-.6-.41-.82-.53-.26-.14-.16-.58.1-.56.12.01.33.11.48.19.16.09.24-.07.11-.16-.13-.09-.35-.2-.48-.29-.12-.09-.14-.52.11-.37.25.15.32.15.54.23.21.07.16-.16.06-.22-.1-.07-.47-.2-.63-.31-.16-.11-.1-.36.09-.25.18.11.43.21.59.29.18.08.37-.06.24-.15-.13-.09-.3-.24-.45-.29-.75-.26-.43-2.88.92-1.87.3.23,1.49,1.66,1.87,1.61.54-.08.49,6.3.48,6.44M62.96,75.98c-.17-.04-.58-.92-.36-.97.18-.04,1.73.53,2.08.61.6.13.59,1.06.27,1.01-.43-.07-1.75-.58-1.99-.65M71.28,82.95c-.14-.04-2.28-.92-2.48-1.07-.2-.15-.07-.66.32-.51.15.06,2.19.86,2.37.94.99.4.86.97-.21.64M67.29,78.22c-.24-.06-.47-.25-.56-.46-.04-.09.13-.38.75-.16.22.07,1.04.4,1.53.52l.32.09.21.06c.19.06,1.45.51,1.55.54.32.14,1.36.49,1.65.57.1.03.11.29.07.43-.16.51-5.27-1.54-5.5-1.59M76.63,92.02c-.37-.03-1.42.25-1.8.35-.38.1-.4-.16-.37-.34.03-.18.39-.51.65-.66.26-.15.8-.45.97-.28.36.36.64.38,1.03.66.4.27-.12.29-.48.27M79.6,92.3c0,.27-.62.38-.91.43-.28.05-.91-.28-1.17-.45-.27-.17.09-.48.26-.6.22-.15.52-.03.7.04.14.05.61-.07.79,0,.18.08.35.29.34.56M78.04,90.97c-.26.07-.46.1-.66.08.05-.09.08-.2-.05-.23-.25-.05-.72-.42-.81-.55-.1-.13-.07.04-.24,0-.17-.04-.36-.05-.71,0-.36.05-.36-1.6-.36-1.85,0-.22.38-.79,1.08-.68.34.05.65-.11.67-.33,0-.11-.06-.64.06-.63.57.04.32-.48.37-.68.45,0,.9-.03,1.36-.07.04.01.08.03.13.04.05.24.76,3.66,1.03,4.95-.62-.31-1.34-.19-1.85-.05M88.18,67.36c0-.06.02-.11.03-.17,0,.06-.02.11-.03.17M88.22,67.14s.01-.08.01-.12c0,.04,0,.08-.01.12M88.24,66.95s0-.07,0-.11c0,.03,0,.07,0,.11M88.25,66.76s0-.07,0-.1c0,.03,0,.06,0,.1M88.17,65.23c-.01-.07-.02-.13-.03-.19.01.06.02.13.03.19M88.26,66.58s0-.07,0-.1c0,.03,0,.07,0,.1M88.26,66.39s0-.07,0-.11c0,.04,0,.08,0,.11M88.26,66.2s0-.07,0-.11c0,.03,0,.07,0,.11M88.25,66.01s0-.07,0-.11c0,.04,0,.08,0,.11M88.24,65.82s0-.08-.01-.12c0,.04,0,.08.01.12M88.22,65.62s0-.08-.01-.13c0,.04.01.09.01.13M88.19,65.43c0-.06-.01-.11-.02-.17,0,.05.01.11.02.17M87.44,62.8s-.04-.09-.07-.14c.02.05.04.09.07.14M88.13,64.98s-.02-.09-.03-.14c0,.05.02.09.03.14M88.08,64.77s-.01-.08-.03-.12c.01.04.02.08.03.12M88.04,64.56s-.02-.08-.03-.12c0,.04.02.08.03.12M87.99,64.37s-.02-.07-.02-.11c0,.04.02.07.02.11M87.94,64.17s-.02-.08-.03-.11c.01.04.02.07.03.11M87.88,63.97s-.02-.07-.03-.11c0,.04.02.07.03.11M87.82,63.78s-.03-.07-.04-.11c.01.04.02.08.04.11M87.76,63.59s-.03-.08-.04-.12c.02.04.03.07.04.12M87.69,63.39s-.04-.08-.05-.12c.02.04.03.08.05.12M87.61,63.21c-.02-.05-.04-.1-.06-.15.02.04.04.1.06.15M87.54,63.02c-.03-.06-.05-.12-.08-.18.03.06.06.12.08.18M86.94,61.9s-.04-.06-.07-.09c.02.03.04.06.07.09M87.34,62.59s-.04-.08-.06-.11c.02.03.04.07.06.11M87.24,62.41s-.04-.07-.06-.1c.02.03.04.07.06.1M87.14,62.24s-.04-.06-.05-.1c.02.04.04.07.05.1M87.04,62.07s-.04-.06-.06-.1c.02.03.04.06.06.1M87.74,67.21c-.61,3.71,1.21,6.56,2.97,9.31l.05.07c.31.5.71,1.41.8,1.7.1.29.15,1.14.11,1.51-.04.37-.63,1.65-.78,1.87-.14.23-.5.64-.75.85-.05.05-2.39,3.95-13.29,2.94-.91-.28-1.1-.96-1.17-1.19-.07-.22-1.38-.82-1.68-.85-.3-.04-.26-.28-.03-.35.22-.07-.22-.28-.48-.39-1.1-.45-.54-1.17-.22-1.05.32.12,1.44.51,1.84.56.39.05.11-.2-.05-.26-.16-.06-1.07-.31-1.32-.45-1.02-.52.06-1.14.46-1.08.15.02,1.23.28,1.6.39.38.11.19-.09-.15-.21-.35-.12-.5-.18-.91-.31-.41-.13,0-.17.11-.19.11-.02.86.2.8.07-.08-.19-.62-.33-1.16-.55-.59-.24-2.62-2.51.49-1.66.29.08.35-.3.22-.36-.13-.06-1.78-.74-2.06-.82-.8-.22-.84-1.09-.69-1.03.16.06,1.58.63,1.79.63.2,0,.22-.3.03-.39-.19-.08-1.41-.54-1.63-.59-.22-.05-.5-.2-.43-.33.06-.13-.16-.1-.38-.33-.22-.23.05-.36.46-.23.41.14.21-.18.07-.27-.14-.1-.5-.29-.72-.55-.24-.28-.33-.86-.45-1.07-.13-.21.19-.07.43-.05.24.02.06-.16-.22-.22-.27-.07-.33-.24-.43-.43-.09-.19.44-.02.68-.03.23-.01.1-.08-.16-.21-.26-.14-.49-.27-.49-.42,0-.15.26,0,.64-.03.3-.03.13-.22-.09-.3-.22-.08-.44-.05-.67-.19-.23-.13-.12-.22-.15-.4-.04-.17.16-.19.43-.18.27,0,.39-.06.36-.14-.08-.2-.53-.17-.68-.17-.15,0-.33-.22-.21-.33.13-.11-.07-.37-.2-.44-.13-.06.17-.17.29-.16.12.01.15-.4-.32-.33-.49.08-.19-.38-.21-.82-.02-.44.11-.37-.03-.55-.15-.18-.69.45-.62.05.08-.4-.17-.5-.24-.55-.06-.05-.02-.26-.12-.33-.1-.07-1.4-.43-1.75-.57-.35-.14.04-.75.79-.55.3.08.67.15.69-.07.01-.14-.24-.17-.81-.39-.57-.22-.4-.73.22-.7.26.01.39-.12.32-.23-.08-.1-.36-.07-.58-.18-.37-.19-.75-1.33.23-1.2.19.03.29-.19.01-.26-.28-.06-.28-.09-.47-.15-.19-.06.04-.92.24-.96.2-.03.4.11.62.18.22.08.25-.1.05-.21-.2-.12-.37-.23-.53-.32-.16-.08.04-.15.17-.26.13-.11.47.11.77.21.29.1.33-.21.03-.37-.17-.09-.73-.22-.72-.36,0-.15.02-.54.2-.54.18,0,.74.15.74.15,0,0,.29-.29,0-.38-.15-.05-.19.03-.68-.21-.4-.19-.02-.63.2-.59.14.03.77.24,1.14.17.4-.07.28-.33,0-.43-.28-.1-1.04-.26-1.3-.39-.26-.13.22-.94.56-1.05.36-.11,1.29-.86,2.15.28.16.21.61.38.77.5.17.11.8.51.93.72.12.21.44.17.8,0,.19-.08-.15-.57-.63-1.12-.27-.08-.53-.18-.62-.26-.19-.15-.81-1-.72-1.18-.23-.23-.38-.38-.38-.38l-.53-.45c1.56-.27,3.36-.07,5.44.6,0,0,3.2,3.56,3.25,3.63.05.07.54.24.68.12.13-.1-.04-.69-.31-.69-.26,0-.55-.9-.73-1.09-.16-.19-1.37-1.55-1.54-1.77-.17-.22.13-.22.25-.07.13.14.52.49.64.42.12-.07-.05-.16-.27-.43-.23-.27.18-.03.2-.19,0,0,0-.02,0-.03,1.06.14,2.15.57,3.22,1.28,1.56,1.04,2.87,2.55,3.48,4.03l.02.06.05.04c1.72,1.4,2.52,4.45,2.21,6.42M88.28,61.93c0,.06,0,.12,0,.17-.13-.08-.26-.15-.39-.22-.11-.37-.7-1.07-.83-1.18-.14-.11.12-.33.5-.05.38.28.71,1.01.71,1.27M87.13,55.96c-.3,0-.56.28-.48.52.08.24.04.74,0,.94-.02.2.25.6.38.68.13.07.25.54.11.61-.15.07-.36.1-.28.3.08.21-.09.49-.17.37-.08-.12-.13-.27-.21-.53-.09-.26-.28-.34-.19-.08.08.26.11.43.2.69.09.26-.13.38-.21.06-.07-.32-.34-.61-.38-.85-.04-.25-.21-.16-.14.09.06.24-.13.38-.23.06-.09-.32-.42-1.24-.5-1.5-.09-.26-.29-.23-.24-.1.06.12.09.37.11.49.02.11-.18.3-.22.06-.05-.25-.2-.55-.23-.75-.04-.19-.41-.41-.31-.18.1.24.07.38.07.65,0,.28-.16.07-.21-.06-.04-.13-.15-.37-.19-.54-.05-.17-.24-.33-.21-.18.03.15.05.3-.07.27-.13-.04-.15-.27-.19-.42-.05-.15-.22-.59-.3-.81-.08-.22-.33-.28-.24-.14.09.14.11.53.17.72.05.18-.26.11-.3-.03-.04-.13-.35-.78-.44-.94-.09-.16-.27-.05-.16.09.11.14.2.46.25.65.06.18-.26-.12-.33-.2-.07-.09-.3-.5-.37-.69-.07-.18-.33-.16-.22,0,.1.16.07.2.15.43.08.22-.28-.03-.34-.12-.05-.09-.37-.66-.42-.81-.04-.15-.29,0-.17.17.13.17.08.32.14.46.06.15-.36-.12-.42-.24-.06-.13-.34-.57-.49-.86-.15-.28-.19.02-.13.14.06.13.2.36.23.55.03.19-.16.08-.22,0-.05-.09-.22-.47-.28-.6-.06-.13-.42-.24-.18.21.24.45.07.38-.07.38-.14,0-.3-.16-.3-.16,0,0-.11-.3-.17-.5-.05-.21-.22-.12-.16-.03.06.09,0,.27.04.46.04.19-.21.06-.22-.04-.02-.1-.19-.42-.25-.49-.05-.07-.23-.07-.15,0,.07.09.09.22.11.39.01.18-.03.18-.1.1-.07-.08-.26-.23-.39-.42-.13-.19-.37.1-.49.13-.12.02-.44-.38-.51-.44-.07-.06-.2,0-.14.1.06.11.27.29.21.41-.05.13.03.37-.19.39-.21.02-.46-.39-.7-.41-.24-.02-.53.02-.62.19,0,0,0,0,0,0-.24-.05-.47-.09-.7-.13-.22-.08-.42-.17-.51-.2-.15-.04-.14-.09-.08-.23,4.12-1.98,10.05-2.13,14.98,1.85-.05,0-.1.02-.15.03-.13-.09-.46-.11-.6-.13-.16,0-.7.15-1,.14M89.11,56.79c-.16.11-.28.25-.37.43-.15.3-.18.67-.11,1.11.05.26.13.54.26.85.18.46.31.86.37,1.2.05.29.06.53.03.74-.02.14-.02.26,0,.37.05.28.2.5.33.71.14.21.34.51.42.7.01.02.02.04.02.06,0,.02,0,.04,0,.05-.02,0-.18-.04-.27-.08-.2-.11-.54-.48-.79-.89-.09-.17-.15-.33-.18-.52-.01-.08,0-.38.03-.44.2-.55-.4-1.74-.51-1.91-.07-.11-.26-.39-.37-.63-.03-.1-.26-.88.11-1.29.16-.17.56-.44.78-.56.19-.1.25-.04.26.1"/>
      <path class="cls-7" d="M77.16,55.51s-.02-.02-.02-.02c-.02-.04-.17-.1-.37-.19-.52-.26-1.09-.47-1.67-.62-.26-.09-.47-.14-.57-.16-.11-.01-.31-.03-.57-.06-.24-.03-.47-.05-.7-.06-.49-.04-1.01-.06-1.31-.02-.13.01-.31.06-.52.12-.88.14-1.72.41-2.45.82,0,0-.02.01-.03.02-.42.24-.8.53-1.13.86-.32.32-.7.46-1,.57-1.98.71-3.9,2.03-4.81,4.32-.05.14.08.21.15.1,1.21-1.98,3.21-3.2,4.83-3.69.48-.14.71.2.75.55.08.75.13,1.39,0,1.82-.13.44-.32.86-.48,1.27-.16.41-.27,1.02-.21,1.57.13,1.13.36,2.58-.43,3.97-.11.19.03.31.2.14.98-.94,1.01-2.43.9-3.88-.04-.58.08-1.1.26-1.42.54-1.02.83-1.71.77-2.56-.03-.49-.04-1.02-.08-1.46-.05-.44.09-.74.33-.97.33-.33,1.03-.74,1.6-.84.4-.07.62.15.81.45.82,1.32,1.84,1.97,3.43,2.57.63.24.76.63.68,1.21-.08.57-.14,1.19-.72,1.72-1.02.92-1.65,1.85-1.94,2.85-.11.37-.43.8-.95.94-1.89.48-3.02,1.85-2.42,3.42.5,1.31.73,1.83.97,2.87.24,1.05.69,2.65,1.07,3.7.58,1.64,1.28,3.06,1.86,3.83.15.21.31.07.2-.16-.78-1.45-1.55-3.67-1.87-4.95-.04-.17.06-.36.27-.34.63.07,2.2.47,3.36,1,.19.09.3-.11.11-.22-1.11-.64-2.79-1.27-3.64-1.45-.23-.05-.35-.32-.41-.6-.25-1.12-.49-2.46-1.03-3.83-.33-.83-.03-1.37.51-1.8.34-.27,1.12-.53,1.44-.52.09,0,.17.02.23.06.05.05.1.1.15.14.05.07.08.15.1.24.19.76.65,1.68,1.2,2.29.55.61.83,1.12.97,1.66.09.31.28.27.26-.04-.03-.53-.31-1.27-.77-1.9-.47-.62-.88-1.46-1-2.09-.11-.63-.01-1.14.14-1.7.31-1.11,1.13-2.14,1.83-2.68.7-.54,1.21-1.49,1.12-2.65-.02-.29.33-.47.52-.09.57,1.18,1.35,2.14,2.21,2.69,2.13,1.35,2.22,3.37.45,4.52-2.33,1.51-2.27,3.55-1.24,5.45.47.86.78,1.27,1.08,1.69.31.42.35.91.12,1.36-.67,1.34-.64,2.73.07,3.72.52.73.86,1.34,1.01,1.71.14.33.36.25.26-.05-.19-.68-.62-1.42-.88-1.89-.4-.75-.28-2.08-.04-2.66.19-.47.37-.81.48-1.07.11-.26.35-.4.56-.17.49.54.88,1.41,1.13,1.96.25.55.66.78,1.04.96.86.4,1.71.99,1.96,1.77.09.26.27.15.23-.04-.21-.99-.92-1.45-1.82-2.08-.54-.37-.78-.57-.98-1.08-.42-1.07-.63-2.02-1.46-2.5-.52-.3-.88-.38-1.2-.77-.91-1.14-1.39-2.31-1.32-3.26.07-.95.78-1.8,1.66-2.37,1.02-.66,1.65-1.67,1.6-2.76-.02-.31.27-.44.56-.37,1.06.24,2.28.93,2.61,2.76.05.3.33.22.3-.05-.1-.97-.36-2.52-2.12-3.24-.17-.11-.33-.19-.44-.19-.04,0-.07,0-.11,0-.13-.03-.25-.06-.39-.09-.32-.05-.66-.05-.86-.43-.47-.86-1.14-1.37-1.8-1.76-.66-.4-1.16-1.17-1.62-1.99-.46-.82-.89-1.42-1.79-1.49-1.54-.12-2.87-.72-3.76-1.93-.15-.21-.04-.51.3-.49,2.24.12,3.59.57,4.83,1.67.87.77,1.44,1.58,2.01,2.39.95,1.37,2.31,1.61,3.85,1.6,1.64,0,2.72.63,3.52,2.73.6,1.57.69,2.98-.07,4.11-.73,1.09-.9,2.37-.62,3.53.17.72.09,1.12.25,1.84.17.72.62,1.49,1.31,2.23.47.51.64.92.78,1.53.15.62.36,1.18.8,1.67.13.14.33.02.19-.17-.14-.19-.46-.77-.54-1.61-.08-.84-.46-1.42-.73-1.72-.27-.31-.5-.62-.71-1.19-.14-.4.19-.54.51-.3,1.18.84,2.54,2.27,3,4.1.07.27.27.24.25,0-.12-1.57-1.29-3.48-2.71-4.66-.59-.49-1.37-1.11-1.59-2.18-.23-1.06.13-1.88.7-2.87.57-.99.61-2.64-.08-4.69-.55-1.64-1.34-2.45-2.14-2.86h0s-.09-.06-.16-.08c-.7-.31-1.41-.34-1.96-.37-1.23-.07-2.24-.17-3.03-1.18-.32-.41-1.01-1.49-2.17-2.57"/>
      <path class="cls-5" d="M71.93,54.26l-.54.12c-.9.14-1.74.42-2.47.83-.01,0,0,0,0,0h-.01s-.02,0-.02,0c-.44.26-.83.55-1.16.88-.29.29-.63.43-.95.54-1.67.59-3.87,1.84-4.88,4.38-.05.13,0,.25.09.29.09.05.2.01.26-.08,1.03-1.69,2.81-3.05,4.77-3.64.16-.05.29-.04.39.04.12.07.19.23.21.41.08.76.13,1.37,0,1.78-.09.3-.21.6-.33.89l-.15.37c-.15.37-.28,1-.22,1.62,0,0,.03.23.03.23.12,1.07.28,2.4-.45,3.67-.1.17-.05.3.02.35.07.06.21.07.36-.07,1.02-.97,1.05-2.48.94-3.97-.04-.5.06-1.01.25-1.36.56-1.05.84-1.75.79-2.62,0,0-.03-.58-.03-.58l-.05-.89c-.04-.36.05-.64.3-.88.32-.31,1-.71,1.54-.81.33-.06.51.11.69.4.87,1.41,1.82,2.16,3.32,2.73.52.2.71.41.63,1v.06c-.08.55-.12,1.07-.65,1.55-1.02.92-1.67,1.88-1.98,2.92-.1.32-.33.68-.82.8-1.13.29-1.95.95-2.36,1.73-.3.58-.33,1.23-.08,1.89l.18.47c.38,1,.57,1.49.79,2.39.24,1.02.68,2.62,1.07,3.72.57,1.61,1.27,3.05,1.87,3.86.12.17.26.17.34.12.09-.06.14-.2.05-.39-.75-1.4-1.53-3.6-1.86-4.92-.01-.06,0-.13.03-.16.03-.03.06-.04.11-.04.63.06,2.2.47,3.32.99.16.07.3,0,.35-.09.05-.1.03-.24-.14-.34-1.17-.67-2.84-1.29-3.68-1.46-.18-.04-.28-.3-.32-.52l-.12-.56c-.21-1-.45-2.13-.91-3.28-.27-.68-.12-1.19.48-1.67.32-.26,1.08-.51,1.37-.5.07,0,.13.02.18.04.03.02.1.09.12.11.04.05.06.12.09.2.21.82.69,1.74,1.23,2.34.51.56.8,1.06.95,1.61.08.3.25.3.3.3.05,0,.2-.06.18-.38-.04-.59-.35-1.36-.8-1.96-.47-.63-.87-1.45-.98-2.05-.1-.58-.02-1.06.14-1.66.3-1.1,1.12-2.11,1.79-2.62.81-.62,1.25-1.65,1.17-2.74,0-.1.05-.17.1-.18.07-.02.07.03.13.14.59,1.22,1.19,2.23,2.06,2.78,1.05.67,1.75,1.46,1.76,2.34,0,.74-.27,1.46-1.04,1.96-2.64,1.72-2.15,3.99-1.28,5.6.45.83.76,1.25,1.06,1.66l.03.05c.28.37.32.82.11,1.24-.69,1.38-.66,2.81.08,3.84.45.63.82,1.26,1,1.68.11.26.27.31.37.27.1-.03.18-.16.11-.4-.17-.61-.54-1.27-.8-1.75l-.09-.16c-.38-.71-.27-1.99-.03-2.57l.34-.75.15-.31c.05-.12.13-.21.21-.22.05,0,.1.01.16.07.45.49.82,1.3,1.06,1.83l.05.1c.27.57.68.82,1.09,1.01.72.33,1.64.91,1.9,1.71.07.2.2.25.29.22.12-.03.19-.17.16-.32-.21-.99-.9-1.47-1.77-2.08l-.1-.07c-.54-.38-.75-.55-.93-1.03,0,0-.21-.56-.21-.56-.31-.85-.58-1.58-1.3-1.99l-.43-.22c-.31-.15-.53-.26-.73-.52-.9-1.13-1.36-2.26-1.3-3.18.06-.83.65-1.67,1.61-2.28,1.09-.7,1.7-1.77,1.65-2.86,0-.09.02-.16.08-.2.08-.07.21-.09.35-.06,1.42.32,2.27,1.22,2.52,2.67.04.22.18.3.3.28.13-.02.25-.15.23-.37-.08-.76-.27-2.55-2.19-3.33-.21-.13-.37-.2-.48-.19,0,0-.08,0-.1,0-.03,0-.37-.08-.37-.08,0,0-.14-.02-.14-.02-.27-.04-.5-.08-.65-.36-.5-.93-1.25-1.45-1.85-1.8-.64-.39-1.14-1.17-1.58-1.96-.45-.8-.9-1.47-1.88-1.55-1.6-.12-2.84-.75-3.68-1.89-.03-.04-.05-.09-.05-.13,0-.03,0-.05.02-.08.04-.07.12-.1.23-.1,2.27.13,3.56.57,4.76,1.64.87.77,1.44,1.59,1.99,2.37,1.02,1.46,2.5,1.66,3.94,1.65,1.44,0,2.57.45,3.42,2.65.64,1.69.62,3-.06,4.01-.72,1.06-.94,2.35-.64,3.62.09.36.11.64.13.93.02.27.04.55.12.91.17.74.63,1.53,1.34,2.29.47.5.62.89.75,1.48.13.55.33,1.18.82,1.73.1.11.25.13.35.04.08-.07.12-.21,0-.36-.02-.03-.43-.58-.52-1.56-.08-.84-.46-1.44-.76-1.79-.24-.28-.48-.59-.69-1.15-.04-.11-.04-.2.01-.24.05-.04.19-.03.33.07.71.51,2.41,1.91,2.96,4.04.06.23.19.29.29.27.1-.02.2-.12.18-.32-.12-1.55-1.25-3.5-2.75-4.74l-.06-.05c-.57-.48-1.28-1.07-1.49-2.06-.05-.21-.07-.42-.07-.61,0-.71.28-1.35.76-2.18.3-.52.45-1.19.45-1.96,0-.83-.17-1.78-.52-2.82-.49-1.45-1.2-2.4-2.18-2.91,0,0-.1-.24-.1-.24-.68-.3-1.46-.46-2-.49h-.09c-1.26-.08-2.21.05-2.94-.89l-.23-.32c-.38-.52-1.01-1.4-1.95-2.27-.34-.33-.75-.63-1.21-.89-.04-.05-.11-.09-.42-.23-.51-.26-1.08-.47-1.69-.63-.19-.06-.45-.14-.58-.16,0,0-.57-.06-.57-.06,0,0-.71-.06-.71-.06-.63-.05-1.07-.05-1.33-.02M69.04,55.41c.7-.39,1.51-.67,2.4-.8.02,0,.52-.12.52-.12.25-.03.67-.02,1.29.02,0,0,.7.06.7.06,0,0,.57.06.57.06.08,0,.28.06.55.15.6.16,1.15.36,1.66.61.08.04.3.13.34.17h0s.03.03.03.03l-.02-.02h0s.04.03.04.03c.45.26.84.55,1.18.87.92.86,1.54,1.72,1.92,2.24l.24.32c.79,1.01,1.79,1.15,3.11,1.22h.09c.53.04,1.18.07,1.83.36,0,0,.12.05.12.05l.03.03c.93.47,1.62,1.39,2.09,2.8.33,1,.5,1.94.5,2.75,0,.74-.14,1.37-.42,1.85-.49.86-.79,1.53-.79,2.28,0,.22.02.44.07.67.22,1.06.97,1.69,1.57,2.19l.07.05c1.45,1.2,2.55,3.08,2.67,4.58v.02s0,0,0,.02c0-.02-.02-.04-.03-.07-.56-2.19-2.32-3.64-3.04-4.16-.21-.15-.45-.17-.6-.06-.05.04-.13.12-.13.28,0,.06,0,.13.04.21.22.61.48.94.73,1.23.28.32.64.87.7,1.66.07.83.39,1.45.56,1.67.02.03.02.04.02.05,0,0-.02,0-.03-.02-.46-.51-.65-1.11-.77-1.63-.14-.62-.31-1.05-.81-1.58-.68-.73-1.12-1.48-1.28-2.18-.08-.34-.1-.61-.12-.88-.02-.29-.04-.59-.13-.97-.09-.35-.13-.7-.13-1.05,0-.85.25-1.67.73-2.39.37-.56.56-1.2.56-1.93,0-.68-.16-1.44-.48-2.29-.76-2-1.82-2.81-3.63-2.8-1.38,0-2.79-.18-3.75-1.55-.56-.79-1.14-1.62-2.03-2.41-1.23-1.1-2.61-1.57-4.9-1.7-.2-.01-.36.06-.44.21-.03.06-.05.12-.05.19,0,.09.03.18.09.26.87,1.17,2.2,1.86,3.85,1.98.87.07,1.29.69,1.7,1.43.46.81.98,1.62,1.66,2.04.61.36,1.29.85,1.76,1.72.21.38.53.43.82.47l.13.02.4.09h.14s.12,0,.37.16c1.59.66,1.94,1.96,2.07,3.16,0,0,0,.02,0,.03,0,.06-.03.09-.04.09,0,0-.03-.02-.05-.1-.34-1.93-1.66-2.62-2.7-2.85-.2-.05-.41-.01-.54.1-.1.09-.16.21-.16.36v.03s0,.08,0,.12c0,.97-.57,1.91-1.55,2.54-1.03.66-1.65,1.55-1.72,2.46,0,.06,0,.13,0,.18,0,.95.48,2.06,1.36,3.16.24.3.5.43.81.58l.42.22c.65.37.9,1.07,1.2,1.87l.21.56c.21.53.46.75,1.02,1.13l.1.06c.86.6,1.48,1.03,1.68,1.94,0,0,0,0,0,0,0,0,0-.01-.02-.03-.28-.88-1.25-1.49-2.02-1.84-.35-.16-.74-.38-.98-.9l-.05-.1c-.25-.55-.63-1.37-1.11-1.89-.1-.11-.23-.16-.36-.14-.16.03-.3.16-.38.35l-.14.31-.34.76c-.14.33-.23.86-.23,1.4,0,.49.08.99.28,1.36l.09.16c.26.47.62,1.11.79,1.71.01.03.01.06.02.09-.02-.02-.04-.06-.07-.12-.18-.44-.56-1.08-1.02-1.73-.35-.49-.53-1.09-.53-1.73,0-.6.16-1.24.47-1.87.1-.21.16-.43.16-.64,0-.29-.1-.57-.29-.83l-.03-.05c-.29-.4-.59-.81-1.04-1.63-.83-1.53-1.29-3.68,1.2-5.3.84-.55,1.3-1.3,1.29-2.12,0-.96-.62-1.88-1.75-2.59-.83-.53-1.6-1.47-2.17-2.64-.12-.26-.32-.31-.46-.27-.16.04-.27.2-.27.38,0,.01,0,.02,0,.04,0,.08,0,.16,0,.24,0,.93-.4,1.77-1.09,2.3-.7.54-1.55,1.59-1.87,2.74-.12.43-.19.8-.19,1.2,0,.18.02.36.05.55.11.62.52,1.48,1.01,2.14.42.57.72,1.29.75,1.84,0,.01,0,.03,0,.04,0,.02,0,.03,0,.04-.01-.02-.02-.04-.03-.08-.16-.59-.47-1.12-1-1.7-.51-.56-.98-1.47-1.18-2.24-.03-.11-.07-.2-.12-.28h0s-.02-.03-.02-.03l-.15-.14h-.02c-.08-.06-.18-.08-.29-.09-.34-.01-1.15.25-1.52.54-.47.37-.7.77-.7,1.24,0,.21.05.45.15.69.45,1.14.69,2.26.9,3.25l.12.56c.09.41.26.65.5.69.8.16,2.48.79,3.61,1.43.03.02.03.03.04.04,0,0-.02,0-.04-.01-1.19-.55-2.76-.94-3.4-1.01-.12-.01-.23.03-.3.12-.06.07-.1.16-.1.26,0,.03,0,.07.01.11.33,1.33,1.12,3.56,1.88,4.97.01.02.01.04.02.06,0,0-.01-.01-.02-.02-.59-.79-1.27-2.2-1.84-3.8-.39-1.08-.83-2.68-1.06-3.69-.22-.92-.41-1.42-.79-2.42l-.18-.47c-.1-.27-.16-.54-.16-.8,0-.32.07-.62.22-.91.37-.72,1.2-1.3,2.27-1.57.59-.15.92-.64,1.03-1.01.3-.99.92-1.91,1.91-2.8.59-.54.68-1.17.75-1.72v-.06c.02-.1.03-.19.03-.28,0-.52-.24-.84-.78-1.05-1.5-.57-2.53-1.17-3.37-2.53-.19-.3-.44-.59-.92-.5-.6.11-1.31.53-1.66.87-.25.25-.37.54-.37.89,0,.06,0,.12,0,.17l.05.87.03.59c0,.06,0,.13,0,.19,0,.74-.27,1.38-.77,2.31-.18.33-.28.79-.28,1.25,0,.08,0,.15,0,.23.03.34.04.67.04,1.01,0,1.08-.19,2.08-.91,2.78-.02.02-.02.02-.04.03,0,0,0-.01,0-.03.46-.8.58-1.61.58-2.37,0-.5-.06-.99-.11-1.43l-.03-.23c0-.1-.02-.2-.02-.3,0-.41.08-.86.22-1.21l.15-.36c.12-.29.25-.6.34-.91.06-.2.08-.44.08-.71,0-.34-.03-.72-.08-1.16-.02-.26-.14-.47-.31-.58-.11-.07-.3-.15-.58-.06-1.9.57-3.63,1.85-4.71,3.46,1.02-2.27,3.05-3.42,4.61-3.98.33-.12.71-.27,1.04-.6.32-.32.69-.6,1.11-.84h-.03s.06-.02.06-.02ZM85.75,60.51h0s-.03-.02-.03-.02c0,0,.02.01.03.02"/>
      <path class="cls-7" d="M69.6,75.96c-.45-.14-.68-.42-1.14-1.01-.06-.01-.17-.12-.34-.22-.31-.18-.79-.83-.95-.98-.16-.15-1.15-.8-1.3-.85-1.01-.35-1.3-1.34-1.54-1.71l-.02-.03c-.25-.39-.53-.82-.82-1.26.04.07-.4-.62-.51-.77,0,0,0,0,0,0-.09-.14-.5-.39-.47-.22.03.17.22.65.33.78.11.13.5.8.54,1,.03.2.51.84.64,1.04h0c.35.58.64,1.1.82,1.48.29.6.4.84.53,1.45.17.76.51,1.84.86,2.43.06.11.12.14.14.13.02,0,.05-.08,0-.21-.33-.95-.62-2.4-.69-2.83-.04-.2-.01-.33.07-.39.1-.07.26-.03.5.1.56.33,1.2.9,1.74,1.55.29.36.79.81,1.52.93.11.02.18-.02.19-.06v-.02s.01-.28-.09-.32"/>
    </g>
    <path class="cls-5" d="M75.72,90.12c-13.38,0-24.26-10.88-24.26-24.26s10.88-24.26,24.26-24.26,24.26,10.88,24.26,24.26-10.88,24.26-24.26,24.26M75.72,42.38c-12.95,0-23.49,10.53-23.49,23.48s10.54,23.48,23.49,23.48,23.48-10.53,23.48-23.48-10.53-23.48-23.48-23.48"/>
    <path class="cls-7" d="M117.69,41.6h2.04l5.51,12.62h-2.33l-1.27-3.03h-5.93l-1.29,3.03h-2.26l5.51-12.62ZM120.84,49.24l-2.17-5.01-2.15,5.01h4.32Z"/>
    <polygon class="cls-7" points="127.57 41.69 129.92 41.69 133.73 47.61 137.54 41.69 139.89 41.69 139.89 54.22 137.69 54.22 137.69 45.23 133.73 51.14 133.66 51.14 129.74 45.27 129.74 54.22 127.57 54.22 127.57 41.69"/>
    <polygon class="cls-7" points="143.29 41.69 152.59 41.69 152.59 43.66 145.5 43.66 145.5 46.92 151.78 46.92 151.78 48.89 145.5 48.89 145.5 52.25 152.67 52.25 152.67 54.22 143.29 54.22 143.29 41.69"/>
    <path class="cls-7" d="M155.47,41.69h5.59c1.57,0,2.81.47,3.62,1.25.66.68,1.04,1.61,1.04,2.7v.04c0,2.06-1.24,3.29-2.97,3.8l3.38,4.74h-2.61l-3.08-4.37h-2.76v4.37h-2.2v-12.53ZM160.89,47.9c1.58,0,2.58-.82,2.58-2.09v-.04c0-1.34-.97-2.08-2.6-2.08h-3.2v4.21h3.22Z"/>
    <rect class="cls-7" x="168.72" y="41.69" width="2.2" height="12.53"/>
    <path class="cls-7" d="M173.89,47.99v-.04c0-3.56,2.67-6.48,6.46-6.48,2.31,0,3.71.81,4.91,1.95l-1.41,1.63c-1-.93-2.08-1.56-3.51-1.56-2.38,0-4.14,1.97-4.14,4.42v.04c0,2.45,1.74,4.44,4.14,4.44,1.54,0,2.52-.61,3.6-1.61l1.41,1.43c-1.31,1.36-2.74,2.22-5.08,2.22-3.65,0-6.37-2.85-6.37-6.45"/>
    <path class="cls-7" d="M192.28,41.6h2.04l5.51,12.62h-2.33l-1.27-3.03h-5.93l-1.29,3.03h-2.26l5.51-12.62ZM195.43,49.24l-2.17-5.01-2.15,5.01h4.32Z"/>
    <polygon class="cls-7" points="202.16 41.69 204.2 41.69 210.92 50.35 210.92 41.69 213.08 41.69 213.08 54.22 211.24 54.22 204.33 45.3 204.33 54.22 202.16 54.22 202.16 41.69"/>
    <path class="cls-7" d="M112.69,65.89v-.04c0-3.56,2.67-6.48,6.46-6.48,2.31,0,3.71.81,4.91,1.95l-1.41,1.63c-1-.93-2.08-1.56-3.51-1.56-2.38,0-4.14,1.97-4.14,4.42v.04c0,2.45,1.74,4.44,4.14,4.44,1.54,0,2.52-.61,3.6-1.61l1.41,1.43c-1.31,1.36-2.74,2.22-5.08,2.22-3.65,0-6.37-2.85-6.37-6.45"/>
    <path class="cls-7" d="M125.73,65.89v-.04c0-3.53,2.72-6.48,6.57-6.48s6.53,2.92,6.53,6.45v.04c0,3.53-2.72,6.48-6.57,6.48s-6.53-2.92-6.53-6.45M136.52,65.89v-.04c0-2.43-1.77-4.46-4.26-4.46s-4.22,1.99-4.22,4.42v.04c0,2.44,1.77,4.44,4.26,4.44s4.22-1.97,4.22-4.4"/>
    <polygon class="cls-7" points="141.68 59.59 143.88 59.59 143.88 70.12 150.47 70.12 150.47 72.12 141.68 72.12 141.68 59.59"/>
    <polygon class="cls-7" points="152.94 59.59 155.15 59.59 155.15 70.12 161.73 70.12 161.73 72.12 152.94 72.12 152.94 59.59"/>
    <polygon class="cls-7" points="164.21 59.59 173.5 59.59 173.5 61.56 166.41 61.56 166.41 64.82 172.69 64.82 172.69 66.79 166.41 66.79 166.41 70.16 173.59 70.16 173.59 72.12 164.21 72.12 164.21 59.59"/>
    <path class="cls-7" d="M175.83,65.89v-.04c0-3.51,2.69-6.48,6.46-6.48,2.18,0,3.53.61,4.82,1.7l-1.4,1.66c-.97-.82-1.91-1.34-3.51-1.34-2.31,0-4.06,2.02-4.06,4.42v.04c0,2.58,1.7,4.48,4.26,4.48,1.18,0,2.26-.38,3.03-.95v-2.35h-3.2v-1.92h5.33v5.26c-1.23,1.06-3.01,1.95-5.23,1.95-3.92,0-6.5-2.79-6.5-6.45"/>
    <polygon class="cls-7" points="190.6 59.59 199.89 59.59 199.89 61.56 192.8 61.56 192.8 64.82 199.08 64.82 199.08 66.79 192.8 66.79 192.8 70.16 199.98 70.16 199.98 72.12 190.6 72.12 190.6 59.59"/>
    <path class="cls-7" d="M207.55,67.45v-.04c0-2.7,2.15-4.94,5.05-4.94s5.03,2.2,5.03,4.91v.04c0,2.69-2.15,4.92-5.07,4.92s-5.01-2.2-5.01-4.89M215.47,67.45v-.04c0-1.66-1.2-3.04-2.9-3.04s-2.85,1.36-2.85,3.01v.04c0,1.65,1.2,3.03,2.88,3.03s2.86-1.36,2.86-2.99"/>
    <path class="cls-7" d="M220.5,64.53h-1.2v-1.81h1.2v-.7c0-1.04.27-1.83.77-2.33.5-.5,1.2-.75,2.13-.75.75,0,1.27.11,1.76.25v1.83c-.43-.14-.81-.23-1.27-.23-.82,0-1.25.45-1.25,1.43v.52h2.51v1.79h-2.47v7.59h-2.17v-7.59Z"/>
    <path class="cls-7" d="M112.69,83.8v-.04c0-3.56,2.67-6.48,6.46-6.48,2.31,0,3.71.81,4.91,1.95l-1.41,1.63c-1-.93-2.08-1.56-3.51-1.56-2.38,0-4.14,1.97-4.14,4.42v.04c0,2.45,1.74,4.44,4.14,4.44,1.54,0,2.52-.61,3.6-1.61l1.41,1.43c-1.31,1.36-2.74,2.22-5.08,2.22-3.65,0-6.37-2.85-6.37-6.45"/>
    <path class="cls-7" d="M131.08,77.41h2.04l5.51,12.62h-2.33l-1.27-3.03h-5.93l-1.29,3.03h-2.26l5.51-12.62ZM134.23,85.05l-2.17-5.01-2.15,5.01h4.32Z"/>
    <path class="cls-7" d="M140.97,77.5h5.59c1.57,0,2.81.47,3.62,1.25.66.68,1.04,1.61,1.04,2.7v.04c0,2.06-1.24,3.29-2.97,3.8l3.38,4.74h-2.61l-3.08-4.37h-2.76v4.37h-2.2v-12.53ZM146.39,83.71c1.58,0,2.58-.82,2.58-2.09v-.04c0-1.34-.97-2.08-2.6-2.08h-3.2v4.21h3.22Z"/>
    <path class="cls-7" d="M154.09,77.5h4.67c3.94,0,6.66,2.7,6.66,6.23v.04c0,3.53-2.72,6.27-6.66,6.27h-4.67v-12.53ZM156.29,79.5v8.52h2.47c2.63,0,4.35-1.77,4.35-4.23v-.04c0-2.45-1.72-4.26-4.35-4.26h-2.47Z"/>
    <rect class="cls-7" x="168.4" y="77.5" width="2.2" height="12.53"/>
    <path class="cls-7" d="M173.57,83.8v-.04c0-3.53,2.72-6.48,6.57-6.48s6.53,2.92,6.53,6.45v.04c0,3.53-2.72,6.48-6.57,6.48s-6.53-2.92-6.53-6.45M184.37,83.8v-.04c0-2.43-1.77-4.46-4.26-4.46s-4.22,1.99-4.22,4.42v.04c0,2.44,1.77,4.44,4.26,4.44s4.22-1.97,4.22-4.4"/>
    <polygon class="cls-7" points="189.52 77.5 191.72 77.5 191.72 88.02 198.31 88.02 198.31 90.03 189.52 90.03 189.52 77.5"/>
    <path class="cls-7" d="M199.51,83.8v-.04c0-3.53,2.72-6.48,6.57-6.48s6.53,2.92,6.53,6.45v.04c0,3.53-2.72,6.48-6.57,6.48s-6.53-2.92-6.53-6.45M210.31,83.8v-.04c0-2.43-1.77-4.46-4.26-4.46s-4.22,1.99-4.22,4.42v.04c0,2.44,1.77,4.44,4.26,4.44s4.22-1.97,4.22-4.4"/>
    <path class="cls-7" d="M214.91,83.8v-.04c0-3.51,2.69-6.48,6.46-6.48,2.18,0,3.53.61,4.82,1.7l-1.4,1.66c-.97-.82-1.91-1.34-3.51-1.34-2.31,0-4.06,2.02-4.06,4.42v.04c0,2.58,1.7,4.48,4.26,4.48,1.18,0,2.26-.38,3.03-.95v-2.35h-3.2v-1.92h5.33v5.26c-1.23,1.06-3.01,1.95-5.23,1.95-3.92,0-6.5-2.79-6.5-6.45"/>
    <polygon class="cls-7" points="232.83 85.09 227.86 77.5 230.47 77.5 233.96 83.03 237.51 77.5 240.03 77.5 235.05 85.03 235.05 90.03 232.83 90.03 232.83 85.09"/>
    <path class="cls-7" d="M237.64,87.7h0c0-1.36,1.09-2.5,2.47-2.5s2.47,1.12,2.47,2.47h0c0,1.36-1.09,2.5-2.47,2.5s-2.47-1.12-2.47-2.47M242.3,87.69h0c0-1.22-.94-2.22-2.19-2.22s-2.19,1.01-2.19,2.22h0c0,1.22.94,2.22,2.19,2.22s2.19-1.01,2.19-2.22M239.09,86.35h1.21c.6,0,1.04.27,1.04.85,0,.41-.23.68-.57.8l.65.92h-.75l-.56-.81h-.4v.81h-.62v-2.57ZM240.26,87.61c.28,0,.44-.14.44-.36,0-.23-.17-.36-.44-.36h-.54v.71h.54Z"/>
  </g>
</svg>