<svg xmlns="http://www.w3.org/2000/svg" id="Layer_1" data-name="Layer 1" viewBox="0 0 400 400"><defs><style>.cls-1{fill:none;stroke:#152e54;stroke-linecap:round;stroke-linejoin:round;stroke-width:8px}.cls-2{fill:#237abf;stroke-width:0}</style></defs><g><polygon points="137.17 166.6 137.17 239.6 200.38 276.09 263.6 239.6 263.6 166.6 200.38 130.1 137.17 166.6" class="cls-1"/><g><g><polyline points="164.56 225.94 182.76 180.26 200.31 225.94" class="cls-1"/><line x1="171.95" x2="193.47" y1="210.93" y2="210.93" class="cls-1"/></g><g><line x1="222.03" x2="222.03" y1="224.94" y2="181.25" class="cls-1"/><line x1="215.85" x2="227.77" y1="225.38" y2="225.38" class="cls-1"/><line x1="216.29" x2="228.21" y1="180.81" y2="180.81" class="cls-1"/></g></g><line x1="200.24" x2="200.24" y1="306.32" y2="336.51" class="cls-1"/><polygon points="113.02 152.66 113.02 253.54 200.38 303.97 287.75 253.54 287.75 152.66 200.38 102.22 113.02 152.66" class="cls-1"/><line x1="200.24" x2="200.24" y1="102.22" y2="67.54" class="cls-1"/><line x1="288.94" x2="318.84" y1="251.42" y2="268.32" class="cls-1"/><line x1="110.97" x2="73.28" y1="150.81" y2="129.49" class="cls-1"/><line x1="110.92" x2="84.77" y1="254.17" y2="269.26" class="cls-1"/><line x1="291.57" x2="317.72" y1="149.88" y2="134.79" class="cls-1"/></g><circle cx="200.24" cy="48.01" r="19.53" class="cls-2"/><circle cx="200.47" cy="351.99" r="19.53" class="cls-2"/><circle cx="334.68" cy="124.99" r="19.53" class="cls-2"/><circle cx="65.32" cy="124.99" r="19.53" class="cls-2"/><circle cx="334.68" cy="276.09" r="19.53" class="cls-2"/><circle cx="72.94" cy="276.09" r="19.53" class="cls-2"/></svg>