<svg xmlns="http://www.w3.org/2000/svg" id="Layer_1" data-name="Layer 1" viewBox="0 0 400 400"><defs><style>.cls-1{fill:none;stroke:#152e54;stroke-linecap:round;stroke-linejoin:round;stroke-width:8px}.cls-2{fill:#237abf;stroke-width:0}</style></defs><g><polyline points="187.1 187 187.1 292.09 157.58 292.09 198.99 355.63 242.87 292.09 213.34 292.09 213.34 187" class="cls-2"/><g><polyline points="238.29 213.12 290.42 265.25 269.54 286.12 343.75 301.77 329.85 225.82 308.97 246.69 256.84 194.56" class="cls-2"/><polyline points="144.89 195.43 92.77 247.56 71.89 226.69 56.25 300.9 132.2 286.99 111.32 266.12 163.45 213.99" class="cls-2"/></g></g><g><circle cx="189.57" cy="53.66" r="9.29" class="cls-1"/><line x1="190.3" x2="189.66" y1="170.58" y2="62.94" class="cls-1"/><circle cx="219.77" cy="82.64" r="9.29" class="cls-1"/><polyline points="209.75 171.06 209.75 123.94 219.87 109.95 219.87 91.92" class="cls-1"/><circle cx="266.37" cy="98.12" r="9.29" class="cls-1"/><polyline points="228.6 170.83 228.64 135.61 258.21 106.03" class="cls-1"/><circle cx="133.3" cy="86.56" r="9.29" class="cls-1"/><polyline points="171.04 170.3 171.04 124.04 141.46 94.47" class="cls-1"/><circle cx="292.16" cy="151.77" r="9.29" class="cls-1"/><polyline points="248.96 171.39 248.83 152.11 282.88 151.77" class="cls-1"/><circle cx="107.84" cy="137.25" r="9.29" class="cls-1"/><polyline points="151.17 171.41 151.17 137.59 117.12 137.25" class="cls-1"/></g></svg>