<?xml version="1.0" encoding="UTF-8"?>
<svg id="Layer_1" data-name="Layer 1" xmlns="http://www.w3.org/2000/svg" viewBox="0 0 400 400">
  <defs>
    <style>
      .cls-1 {
        fill: none;
        stroke: #152e54;
        stroke-linecap: round;
        stroke-miterlimit: 10;
        stroke-width: 8px;
      }

      .cls-2 {
        fill: #237abf;
        stroke-width: 0px;
      }
    </style>
  </defs>
  <path class="cls-2" d="M354.45,278.2l.09-15.98-13.73-3.95c-1.05-4.06-2.62-7.93-4.71-11.55l7.06-12.43-11.23-11.36-12.53,6.93c-3.61-2.13-7.45-3.75-11.48-4.84l-3.8-13.8-15.98-.09-3.96,13.78c-4.04,1.04-7.9,2.61-11.51,4.68l-12.46-7.08-11.36,11.23,6.93,12.53c-2.14,3.62-3.77,7.48-4.86,11.53l-13.77,3.8-.09,15.97,13.75,3.95c1.05,4.06,2.62,7.94,4.71,11.56l-7.04,12.39,11.23,11.36,12.49-6.91c3.59,2.12,7.43,3.74,11.45,4.83l3.79,13.74,15.97.09,3.93-13.67c4.08-1.04,7.97-2.62,11.62-4.72l12.39,7.04,11.36-11.23-6.89-12.46c2.15-3.63,3.78-7.5,4.88-11.56l13.74-3.79ZM295.81,288.1c-10.07,0-18.23-8.16-18.23-18.23s8.16-18.23,18.23-18.23,18.23,8.16,18.23,18.23-8.16,18.23-18.23,18.23Z"/>
  <path class="cls-1" d="M288.42,193.92v-112.44c0-5.56-4.51-10.07-10.07-10.07H55.53c-5.56,0-10.07,4.51-10.07,10.07v188.53c0,5.56,4.51,10.07,10.07,10.07h170.29"/>
  <line class="cls-1" x1="146.1" y1="131.91" x2="232.6" y2="131.91"/>
  <line class="cls-1" x1="146.1" y1="176.33" x2="232.6" y2="176.33"/>
  <line class="cls-1" x1="146.1" y1="221.88" x2="232.6" y2="221.88"/>
  <path class="cls-1" d="M84.21,127.45l12.88,13.47c.77.8,2.04.81,2.82.03l25.91-25.93"/>
  <path class="cls-1" d="M84.21,175.5l12.88,13.47c.77.8,2.04.81,2.82.03l25.91-25.93"/>
  <path class="cls-1" d="M84.21,221.05l12.88,13.47c.77.8,2.04.81,2.82.03l25.91-25.93"/>
</svg>